<svg width="51" height="51" viewBox="0 0 51 51" fill="none" xmlns="http://www.w3.org/2000/svg">
<path d="M36.932 43.4885C36.6668 43.4885 36.4124 43.3831 36.2249 43.1956C36.0374 43.0081 35.932 42.7537 35.932 42.4885V18.2085C35.932 17.9433 36.0374 17.6889 36.2249 17.5014C36.4124 17.3139 36.6668 17.2085 36.932 17.2085C37.1972 17.2085 37.4516 17.3139 37.6391 17.5014C37.8267 17.6889 37.932 17.9433 37.932 18.2085V42.4985C37.9294 42.762 37.8229 43.0138 37.6356 43.1992C37.4483 43.3845 37.1955 43.4885 36.932 43.4885Z" fill="#10A372"/>
<path d="M36.992 12.8184C36.7268 12.8184 36.4724 12.713 36.2849 12.5255C36.0974 12.338 35.992 12.0836 35.992 11.8184V9.1084C35.992 8.84318 36.0974 8.58883 36.2849 8.40129C36.4724 8.21375 36.7268 8.1084 36.992 8.1084C37.2572 8.1084 37.5116 8.21375 37.6991 8.40129C37.8866 8.58883 37.992 8.84318 37.992 9.1084V11.8184C37.992 12.0836 37.8866 12.338 37.6991 12.5255C37.5116 12.713 37.2572 12.8184 36.992 12.8184Z" fill="#10A372"/>
<path d="M25.802 43.4782C25.5368 43.4782 25.2824 43.3728 25.0949 43.1853C24.9074 42.9977 24.802 42.7434 24.802 42.4782V29.1182C24.802 28.8529 24.9074 28.5986 25.0949 28.4111C25.2824 28.2235 25.5368 28.1182 25.802 28.1182C26.0672 28.1182 26.3216 28.2235 26.5091 28.4111C26.6966 28.5986 26.802 28.8529 26.802 29.1182V42.4882C26.7994 42.7516 26.6928 43.0034 26.5056 43.1888C26.3183 43.3742 26.0655 43.4782 25.802 43.4782Z" fill="#10A372"/>
<path d="M25.842 23.8181C25.5768 23.8181 25.3224 23.7128 25.1349 23.5253C24.9474 23.3377 24.842 23.0834 24.842 22.8181V9.09814C24.842 8.83293 24.9474 8.57858 25.1349 8.39104C25.3224 8.2035 25.5768 8.09814 25.842 8.09814C26.1072 8.09814 26.3616 8.2035 26.5491 8.39104C26.7367 8.57858 26.842 8.83293 26.842 9.09814V22.8181C26.842 23.0834 26.7367 23.3377 26.5491 23.5253C26.3616 23.7128 26.1072 23.8181 25.842 23.8181Z" fill="#10A372"/>
<path d="M14.682 43.4585C14.4168 43.4585 14.1624 43.3532 13.9749 43.1656C13.7874 42.9781 13.682 42.7238 13.682 42.4585V39.9985C13.682 39.7333 13.7874 39.479 13.9749 39.2914C14.1624 39.1039 14.4168 38.9985 14.682 38.9985C14.9472 38.9985 15.2016 39.1039 15.3891 39.2914C15.5767 39.479 15.682 39.7333 15.682 39.9985V42.4485C15.6833 42.5807 15.6584 42.7118 15.6088 42.8343C15.5591 42.9568 15.4857 43.0682 15.3927 43.1621C15.2997 43.256 15.189 43.3306 15.067 43.3815C14.945 43.4323 14.8142 43.4585 14.682 43.4585Z" fill="#10A372"/>
<path d="M14.692 35.0684C14.4268 35.0684 14.1724 34.963 13.9849 34.7755C13.7974 34.5879 13.692 34.3336 13.692 34.0684V9.06836C13.692 8.80314 13.7974 8.54879 13.9849 8.36125C14.1724 8.17372 14.4268 8.06836 14.692 8.06836C14.9572 8.06836 15.2116 8.17372 15.3991 8.36125C15.5867 8.54879 15.692 8.80314 15.692 9.06836V34.0684C15.692 34.3336 15.5867 34.5879 15.3991 34.7755C15.2116 34.963 14.9572 35.0684 14.692 35.0684Z" fill="#10A372"/>
<path d="M36.152 12.8184H37.822C38.0872 12.8184 38.3416 12.9237 38.5291 13.1113C38.7167 13.2988 38.822 13.5531 38.822 13.8184V15.5184C38.822 15.7836 38.7167 16.0379 38.5291 16.2255C38.3416 16.413 38.0872 16.5184 37.822 16.5184H36.142C35.8768 16.5184 35.6225 16.413 35.4349 16.2255C35.2474 16.0379 35.142 15.7836 35.142 15.5184V13.8184C35.142 13.5531 35.2474 13.2988 35.4349 13.1113C35.6225 12.9237 35.8768 12.8184 36.142 12.8184H36.152ZM36.142 10.8184C35.3464 10.8184 34.5833 11.1344 34.0207 11.697C33.4581 12.2596 33.142 13.0227 33.142 13.8184V15.4884C33.142 16.284 33.4581 17.0471 34.0207 17.6097C34.5833 18.1723 35.3464 18.4884 36.142 18.4884H37.812C38.6077 18.4884 39.3707 18.1723 39.9333 17.6097C40.496 17.0471 40.812 16.284 40.812 15.4884V13.8184C40.812 13.0227 40.496 12.2596 39.9333 11.697C39.3707 11.1344 38.6077 10.8184 37.812 10.8184H36.142Z" fill="#17CF81"/>
<path d="M13.852 35.0483H15.522C15.7872 35.0483 16.0416 35.1537 16.2291 35.3412C16.4167 35.5288 16.522 35.7831 16.522 36.0483V37.7183C16.522 37.9836 16.4167 38.2379 16.2291 38.4254C16.0416 38.613 15.7872 38.7183 15.522 38.7183H13.852C13.5868 38.7183 13.3325 38.613 13.1449 38.4254C12.9574 38.2379 12.852 37.9836 12.852 37.7183V36.0483C12.852 35.7831 12.9574 35.5288 13.1449 35.3412C13.3325 35.1537 13.5868 35.0483 13.852 35.0483ZM13.852 33.0483C13.0564 33.0483 12.2933 33.3644 11.7307 33.927C11.1681 34.4896 10.852 35.2527 10.852 36.0483V37.7083C10.852 38.504 11.1681 39.2671 11.7307 39.8297C12.2933 40.3923 13.0564 40.7083 13.852 40.7083H15.512C16.3077 40.7083 17.0707 40.3923 17.6333 39.8297C18.196 39.2671 18.512 38.504 18.512 37.7083V36.0583C18.512 35.2627 18.196 34.4996 17.6333 33.937C17.0707 33.3744 16.3077 33.0583 15.512 33.0583L13.852 33.0483Z" fill="#17CF81"/>
<path d="M25.002 23.9482H26.672C26.9372 23.9482 27.1916 24.0536 27.3791 24.2411C27.5667 24.4287 27.672 24.683 27.672 24.9482V26.6182C27.672 26.8835 27.5667 27.1378 27.3791 27.3253C27.1916 27.5129 26.9372 27.6182 26.672 27.6182H25.002C24.7368 27.6182 24.4824 27.5129 24.2949 27.3253C24.1074 27.1378 24.002 26.8835 24.002 26.6182V24.9482C24.002 24.683 24.1074 24.4287 24.2949 24.2411C24.4824 24.0536 24.7368 23.9482 25.002 23.9482ZM25.002 21.9482C24.2064 21.9482 23.4433 22.2643 22.8807 22.8269C22.3181 23.3895 22.002 24.1526 22.002 24.9482V26.6182C22.002 27.4139 22.3181 28.177 22.8807 28.7396C23.4433 29.3022 24.2064 29.6182 25.002 29.6182H26.672C27.4677 29.6182 28.2307 29.3022 28.7933 28.7396C29.3559 28.177 29.672 27.4139 29.672 26.6182V24.9582C29.672 24.1626 29.3559 23.3995 28.7933 22.8369C28.2307 22.2743 27.4677 21.9582 26.672 21.9582L25.002 21.9482Z" fill="#17CF81"/>
<path d="M49.572 50.8185L1.85202 50.6785C1.5868 50.6785 1.33245 50.5731 1.14491 50.3856C0.957376 50.1981 0.85202 49.9437 0.85202 49.6785L0.93202 1.9585C0.93202 1.69328 1.03738 1.43893 1.22491 1.25139C1.41245 1.06385 1.6668 0.958496 1.93202 0.958496L49.642 1.0385C49.7736 1.03774 49.9041 1.06296 50.0259 1.11273C50.1478 1.16249 50.2586 1.23582 50.352 1.3285C50.4447 1.42194 50.518 1.53275 50.5678 1.65459C50.6176 1.77643 50.6428 1.90689 50.642 2.0385L50.572 49.8185C50.572 50.0837 50.4667 50.3381 50.2791 50.5256C50.0916 50.7131 49.8372 50.8185 49.572 50.8185ZM2.85202 48.6885L48.572 48.7585L48.652 3.0385L2.93202 2.9685L2.85202 48.6885Z" fill="#17CF81"/>
</svg>
