<svg width="49" height="50" viewBox="0 0 49 50" fill="none" xmlns="http://www.w3.org/2000/svg">
<path d="M1.23193 40.2352C0.966717 40.2352 0.712364 40.1298 0.524828 39.9423C0.337292 39.7548 0.231934 39.5004 0.231934 39.2352V9.68518C0.231934 9.41996 0.337292 9.16561 0.524828 8.97807C0.712364 8.79054 0.966717 8.68518 1.23193 8.68518C1.49715 8.68518 1.7515 8.79054 1.93904 8.97807C2.12658 9.16561 2.23193 9.41996 2.23193 9.68518V39.2352C2.23193 39.5004 2.12658 39.7548 1.93904 39.9423C1.7515 40.1298 1.49715 40.2352 1.23193 40.2352Z" fill="#10A372"/>
<path d="M25.2819 36.6352C25.0166 36.6352 24.7623 36.5298 24.5748 36.3423C24.3872 36.1548 24.2819 35.9004 24.2819 35.6352V9.68518C24.2819 9.41996 24.3872 9.16561 24.5748 8.97807C24.7623 8.79054 25.0166 8.68518 25.2819 8.68518C25.5471 8.68518 25.8014 8.79054 25.989 8.97807C26.1765 9.16561 26.2819 9.41996 26.2819 9.68518V35.6852C26.269 35.9416 26.158 36.1833 25.9719 36.3602C25.7857 36.537 25.5386 36.6355 25.2819 36.6352Z" fill="#10A372"/>
<path d="M13.252 15.4752C6.94195 15.4752 0.251953 13.4252 0.251953 9.63517C0.251953 5.84517 6.96195 3.79517 13.252 3.79517C19.542 3.79517 26.252 5.79517 26.252 9.63517C26.252 13.4752 19.572 15.4752 13.252 15.4752ZM13.252 5.79517C6.42195 5.79517 2.25195 8.02517 2.25195 9.63517C2.25195 11.2452 6.44195 13.4752 13.252 13.4752C20.062 13.4752 24.252 11.2352 24.252 9.63517C24.252 8.03517 20.082 5.79517 13.252 5.79517Z" fill="#10A372"/>
<path d="M13.252 21.3852C6.94195 21.3852 0.251953 19.3852 0.251953 15.5452C0.251953 15.2799 0.357309 15.0256 0.544846 14.8381C0.732382 14.6505 0.986737 14.5452 1.25195 14.5452C1.51717 14.5452 1.77152 14.6505 1.95906 14.8381C2.1466 15.0256 2.25195 15.2799 2.25195 15.5452C2.25195 17.1452 6.44195 19.3852 13.252 19.3852C20.062 19.3852 24.252 17.1452 24.252 15.5452C24.252 15.2799 24.3573 15.0256 24.5448 14.8381C24.7324 14.6505 24.9867 14.5452 25.252 14.5452C25.5172 14.5452 25.7715 14.6505 25.9591 14.8381C26.1466 15.0256 26.252 15.2799 26.252 15.5452C26.282 19.3352 19.572 21.3852 13.252 21.3852Z" fill="#10A372"/>
<path d="M13.252 27.2952C6.94195 27.2952 0.251953 25.2952 0.251953 21.4552C0.251953 21.19 0.357309 20.9356 0.544846 20.7481C0.732382 20.5606 0.986737 20.4552 1.25195 20.4552C1.51717 20.4552 1.77152 20.5606 1.95906 20.7481C2.1466 20.9356 2.25195 21.19 2.25195 21.4552C2.25195 23.0552 6.44195 25.2952 13.252 25.2952C20.062 25.2952 24.252 23.0552 24.252 21.4552C24.252 21.19 24.3573 20.9356 24.5448 20.7481C24.7324 20.5606 24.9867 20.4552 25.252 20.4552C25.5172 20.4552 25.7715 20.5606 25.9591 20.7481C26.1466 20.9356 26.252 21.19 26.252 21.4552C26.282 25.2452 19.572 27.2952 13.252 27.2952Z" fill="#10A372"/>
<path d="M13.252 33.2052C6.94195 33.2052 0.251953 31.2052 0.251953 27.3652C0.251953 27.1 0.357309 26.8457 0.544846 26.6581C0.732382 26.4706 0.986737 26.3652 1.25195 26.3652C1.51717 26.3652 1.77152 26.4706 1.95906 26.6581C2.1466 26.8457 2.25195 27.1 2.25195 27.3652C2.25195 28.9652 6.44195 31.2052 13.252 31.2052C20.062 31.2052 24.252 28.9652 24.252 27.3652C24.252 27.1 24.3573 26.8457 24.5448 26.6581C24.7324 26.4706 24.9867 26.3652 25.252 26.3652C25.5172 26.3652 25.7715 26.4706 25.9591 26.6581C26.1466 26.8457 26.252 27.1 26.252 27.3652C26.282 31.1552 19.572 33.2052 13.252 33.2052Z" fill="#10A372"/>
<path d="M13.252 39.1152C6.94195 39.1152 0.251953 37.0651 0.251953 33.2751C0.251953 33.0099 0.357309 32.7556 0.544846 32.568C0.732382 32.3805 0.986737 32.2751 1.25195 32.2751C1.51717 32.2751 1.77152 32.3805 1.95906 32.568C2.1466 32.7556 2.25195 33.0099 2.25195 33.2751C2.25195 34.8751 6.44195 37.1151 13.252 37.1151C20.062 37.1151 24.252 34.8751 24.252 33.2751C24.252 33.0099 24.3573 32.7556 24.5448 32.568C24.7324 32.3805 24.9867 32.2751 25.252 32.2751C25.5172 32.2751 25.7715 32.3805 25.9591 32.568C26.1466 32.7556 26.252 33.0099 26.252 33.2751C26.282 37.0651 19.572 39.1152 13.252 39.1152Z" fill="#10A372"/>
<path d="M13.252 45.0252C6.94195 45.0252 0.251953 43.0252 0.251953 39.1852C0.251953 38.92 0.357309 38.6656 0.544846 38.4781C0.732382 38.2905 0.986737 38.1852 1.25195 38.1852C1.51717 38.1852 1.77152 38.2905 1.95906 38.4781C2.1466 38.6656 2.25195 38.92 2.25195 39.1852C2.25195 40.7952 6.44195 43.0252 13.252 43.0252C20.062 43.0252 24.252 40.7952 24.252 39.1852C24.252 38.92 24.3573 38.6656 24.5448 38.4781C24.7324 38.2905 24.9867 38.1852 25.252 38.1852C25.5172 38.1852 25.7715 38.2905 25.9591 38.4781C26.1466 38.6656 26.252 38.92 26.252 39.1852C26.282 42.9852 19.572 45.0252 13.252 45.0252Z" fill="#10A372"/>
<path d="M34.6519 49.6652C34.5203 49.666 34.3898 49.6407 34.268 49.591C34.1461 49.5412 34.0353 49.4679 33.9419 49.3752L20.8119 36.2952C20.672 36.1565 20.5763 35.9797 20.5365 35.7868C20.4968 35.5939 20.5149 35.3935 20.5886 35.2109C20.6623 35.0283 20.7883 34.8715 20.9508 34.7602C21.1133 34.6488 21.305 34.588 21.5019 34.5852H26.2519V12.0852C26.2519 11.82 26.3572 11.5656 26.5448 11.3781C26.7323 11.1906 26.9867 11.0852 27.2519 11.0852C27.5171 11.0852 27.7715 11.1906 27.959 11.3781C28.1465 11.5656 28.2519 11.82 28.2519 12.0852V35.5852C28.2519 35.8504 28.1465 36.1048 27.959 36.2923C27.7715 36.4798 27.5171 36.5852 27.2519 36.5852H23.9419L34.6519 47.2552L45.3519 36.5852H42.0119C41.7467 36.5852 41.4923 36.4798 41.3048 36.2923C41.1173 36.1048 41.0119 35.8504 41.0119 35.5852L40.9619 12.0852C40.9619 11.82 41.0672 11.5656 41.2548 11.3781C41.4423 11.1906 41.6967 11.0852 41.9619 11.0852C42.2271 11.0852 42.4815 11.1906 42.669 11.3781C42.8565 11.5656 42.9619 11.82 42.9619 12.0852L43.0119 34.5852H47.7719C47.971 34.5842 48.1659 34.6427 48.3316 34.7531C48.4973 34.8636 48.6262 35.021 48.7019 35.2052C48.7797 35.3864 48.8023 35.5865 48.7667 35.7804C48.7311 35.9744 48.639 36.1535 48.5019 36.2952L35.3619 49.3752C35.2685 49.4679 35.1576 49.5412 35.0358 49.591C34.914 49.6407 34.7835 49.666 34.6519 49.6652V49.6652Z" fill="#041C43"/>
<path d="M27.3219 10.4652C27.0567 10.4652 26.8023 10.3598 26.6148 10.1723C26.4273 9.98473 26.3219 9.73037 26.3219 9.46516V5.53516C26.3219 5.26994 26.4273 5.01559 26.6148 4.82805C26.8023 4.64051 27.0567 4.53516 27.3219 4.53516C27.5871 4.53516 27.8415 4.64051 28.029 4.82805C28.2165 5.01559 28.3219 5.26994 28.3219 5.53516V9.46516C28.3219 9.73037 28.2165 9.98473 28.029 10.1723C27.8415 10.3598 27.5871 10.4652 27.3219 10.4652Z" fill="#041C43"/>
<path d="M27.3219 4.10522C27.0567 4.10522 26.8023 3.99987 26.6148 3.81233C26.4273 3.6248 26.3219 3.37044 26.3219 3.10522V1.10522C26.3219 0.840008 26.4273 0.585655 26.6148 0.398119C26.8023 0.210583 27.0567 0.105225 27.3219 0.105225C27.5871 0.105225 27.8415 0.210583 28.029 0.398119C28.2165 0.585655 28.3219 0.840008 28.3219 1.10522V3.10522C28.3219 3.37044 28.2165 3.6248 28.029 3.81233C27.8415 3.99987 27.5871 4.10522 27.3219 4.10522Z" fill="#041C43"/>
<path d="M41.9119 10.4652C41.6466 10.4652 41.3923 10.3598 41.2048 10.1723C41.0172 9.98473 40.9119 9.73037 40.9119 9.46516V5.53516C40.9119 5.26994 41.0172 5.01559 41.2048 4.82805C41.3923 4.64051 41.6466 4.53516 41.9119 4.53516C42.1771 4.53516 42.4314 4.64051 42.619 4.82805C42.8065 5.01559 42.9119 5.26994 42.9119 5.53516V9.46516C42.9119 9.73037 42.8065 9.98473 42.619 10.1723C42.4314 10.3598 42.1771 10.4652 41.9119 10.4652Z" fill="#041C43"/>
<path d="M41.9119 4.10522C41.6466 4.10522 41.3923 3.99987 41.2048 3.81233C41.0172 3.6248 40.9119 3.37044 40.9119 3.10522V1.10522C40.9119 0.840008 41.0172 0.585655 41.2048 0.398119C41.3923 0.210583 41.6466 0.105225 41.9119 0.105225C42.1771 0.105225 42.4314 0.210583 42.619 0.398119C42.8065 0.585655 42.9119 0.840008 42.9119 1.10522V3.10522C42.9119 3.37044 42.8065 3.6248 42.619 3.81233C42.4314 3.99987 42.1771 4.10522 41.9119 4.10522Z" fill="#041C43"/>
</svg>
