<svg width="51" height="51" viewBox="0 0 51 51" fill="none" xmlns="http://www.w3.org/2000/svg">
<path d="M28.906 38.4494C28.7097 38.4506 28.5174 38.394 28.3531 38.2867C28.1888 38.1794 28.0596 38.0261 27.9818 37.8459C27.904 37.6658 27.8809 37.4667 27.9154 37.2734C27.9499 37.0802 28.0406 36.9014 28.176 36.7594L29.306 35.5494L27.686 34.0294L23.586 30.3394C23.4075 30.1574 23.3052 29.914 23.3001 29.6591C23.295 29.4042 23.3874 29.1569 23.5586 28.9679C23.7297 28.7789 23.9666 28.6624 24.2207 28.6422C24.4749 28.6221 24.7272 28.6997 24.926 28.8594L29.026 32.5494L31.396 34.7594C31.4911 34.85 31.5675 34.9584 31.6206 35.0785C31.6738 35.1987 31.7028 35.3281 31.706 35.4594C31.7156 35.721 31.6223 35.9759 31.446 36.1694L31.286 36.3394L36.396 36.1594L36.226 31.0494L36.066 31.2194C35.8871 31.4108 35.6401 31.5244 35.3783 31.5356C35.1165 31.5468 34.8607 31.4548 34.666 31.2794L28.186 25.3894C28.0075 25.2074 27.9052 24.964 27.9001 24.7091C27.895 24.4542 27.9874 24.2069 28.1586 24.0179C28.3297 23.8289 28.5666 23.7124 28.8207 23.6922C29.0749 23.6721 29.3272 23.7497 29.526 23.9094L35.306 29.1494L36.436 27.9394C36.5711 27.7948 36.7461 27.6936 36.9387 27.6486C37.1314 27.6035 37.3331 27.6166 37.5183 27.6861C37.7035 27.7557 37.8639 27.8787 37.9792 28.0395C38.0945 28.2003 38.1595 28.3916 38.166 28.5894L38.446 37.1094C38.446 37.3746 38.3407 37.629 38.1531 37.8165C37.9656 38.004 37.7112 38.1094 37.446 38.1094L28.926 38.4194L28.906 38.4494Z" fill="#10A372"/>
<path d="M22.576 28.9395C22.3247 28.9413 22.082 28.8485 21.896 28.6795L20.576 27.4595C20.4003 27.2759 20.3011 27.0324 20.2985 26.7784C20.2959 26.5243 20.3901 26.2788 20.5619 26.0917C20.7338 25.9045 20.9704 25.7898 21.2238 25.7709C21.4771 25.7519 21.7282 25.8301 21.926 25.9895L23.246 27.2095C23.3916 27.3458 23.4932 27.5225 23.5376 27.717C23.582 27.9114 23.5672 28.1147 23.4952 28.3007C23.4231 28.4867 23.2971 28.6469 23.1333 28.7608C22.9695 28.8746 22.7755 28.9368 22.576 28.9395Z" fill="#10A372"/>
<path d="M19.486 25.9995C19.2334 25.9986 18.9905 25.9021 18.806 25.7295L18.136 25.0995C18.0295 25.0131 17.942 24.9058 17.8787 24.7842C17.8154 24.6626 17.7779 24.5292 17.7683 24.3924C17.7587 24.2557 17.7774 24.1184 17.8231 23.9892C17.8689 23.8599 17.9407 23.7415 18.0341 23.6411C18.1276 23.5408 18.2407 23.4608 18.3664 23.406C18.492 23.3513 18.6276 23.3229 18.7647 23.3228C18.9018 23.3226 19.0375 23.3506 19.1633 23.4051C19.2891 23.4596 19.4024 23.5394 19.496 23.6395L20.166 24.2695C20.3523 24.4568 20.4568 24.7103 20.4568 24.9745C20.4568 25.2387 20.3523 25.4921 20.166 25.6795C19.9896 25.8705 19.7457 25.9853 19.486 25.9995Z" fill="#10A372"/>
<path d="M27.156 24.0394C26.9034 24.0386 26.6604 23.9421 26.476 23.7694L25.156 22.5494C25.0595 22.4601 24.9815 22.3527 24.9265 22.2332C24.8715 22.1138 24.8406 21.9847 24.8355 21.8533C24.8304 21.7219 24.8512 21.5908 24.8968 21.4675C24.9423 21.3441 25.0117 21.2309 25.101 21.1344C25.1903 21.0379 25.2978 20.9599 25.4172 20.9049C25.5366 20.8499 25.6657 20.819 25.7971 20.8139C25.9285 20.8088 26.0596 20.8296 26.183 20.8751C26.3063 20.9207 26.4195 20.9901 26.516 21.0794L27.836 22.2894C28.0223 22.4768 28.1268 22.7302 28.1268 22.9944C28.1268 23.2586 28.0223 23.5121 27.836 23.6994C27.663 23.8979 27.4186 24.02 27.156 24.0394Z" fill="#10A372"/>
<path d="M24.066 21.0894C23.8134 21.0886 23.5705 20.9921 23.386 20.8194L22.716 20.1994C22.6195 20.1101 22.5415 20.0027 22.4865 19.8833C22.4315 19.7638 22.4006 19.6347 22.3955 19.5033C22.3852 19.238 22.4807 18.9794 22.661 18.7844C22.8414 18.5895 23.0918 18.4742 23.3571 18.4639C23.6225 18.4536 23.8811 18.5491 24.076 18.7294L24.746 19.3594C24.9391 19.5401 25.0527 19.7899 25.0621 20.0541C25.0714 20.3184 24.9758 20.5756 24.796 20.7694C24.7028 20.87 24.5899 20.9503 24.4643 21.0053C24.3387 21.0604 24.2031 21.089 24.066 21.0894Z" fill="#10A372"/>
<path d="M32.226 50.2295C31.9699 50.2312 31.723 50.1345 31.536 49.9595L8.07602 27.4495C7.96585 27.3433 7.88152 27.2133 7.82951 27.0694C7.77749 26.9255 7.7592 26.7716 7.77602 26.6195L9.41602 11.5495C9.4378 11.3199 9.53831 11.1048 9.70051 10.9408C9.86271 10.7767 10.0766 10.6738 10.306 10.6495L25.426 8.2695C25.5789 8.24567 25.7353 8.25764 25.8828 8.30449C26.0303 8.35135 26.1649 8.43179 26.276 8.5395L49.736 31.0395C49.8298 31.1325 49.9041 31.2431 49.9549 31.3649C50.0057 31.4868 50.0318 31.6175 50.0318 31.7495C50.0318 31.8815 50.0057 32.0122 49.9549 32.1341C49.9041 32.2559 49.8298 32.3665 49.736 32.4595L32.956 49.9295C32.8634 50.024 32.753 50.0992 32.6311 50.1507C32.5092 50.2022 32.3783 50.229 32.246 50.2295H32.226ZM9.81602 26.3495L32.196 47.8195L47.576 31.8195L25.196 10.3295L11.306 12.5495L9.81602 26.3495Z" fill="#041C43"/>
<path d="M17.306 21.1295C16.6585 21.1314 16.0249 20.9411 15.4856 20.5825C14.9463 20.224 14.5256 19.7134 14.2769 19.1155C14.0282 18.5175 13.9626 17.8592 14.0884 17.224C14.2143 16.5887 14.5259 16.0052 14.9838 15.5472C15.4417 15.0893 16.0253 14.7777 16.6606 14.6518C17.2958 14.526 17.9541 14.5916 18.5521 14.8403C19.15 15.089 19.6606 15.5097 20.0191 16.049C20.3777 16.5883 20.568 17.2219 20.566 17.8695C20.5634 18.7333 20.2191 19.5609 19.6083 20.1717C18.9975 20.7825 18.1698 21.1268 17.306 21.1295V21.1295ZM17.306 16.5995C17.0545 16.5975 16.8079 16.6703 16.5978 16.8086C16.3876 16.947 16.2233 17.1446 16.1256 17.3765C16.028 17.6084 16.0014 17.864 16.0492 18.111C16.0971 18.3581 16.2173 18.5853 16.3945 18.7639C16.5717 18.9425 16.798 19.0645 17.0446 19.1143C17.2912 19.1641 17.5471 19.1395 17.7797 19.0437C18.0124 18.9479 18.2113 18.7851 18.3513 18.5761C18.4913 18.367 18.566 18.1211 18.566 17.8695C18.5661 17.5344 18.4336 17.2128 18.1976 16.975C17.9616 16.7371 17.6411 16.6021 17.306 16.5995Z" fill="#041C43"/>
<path d="M19.016 16.8895C18.7312 16.889 18.4523 16.8074 18.2122 16.6542C17.972 16.5011 17.7804 16.2827 17.6597 16.0247C17.5391 15.7666 17.4944 15.4796 17.531 15.1971C17.5675 14.9146 17.6837 14.6483 17.866 14.4295C18.046 14.1995 19.456 12.2595 17.206 9.42946C16.476 8.50946 13.866 8.75946 11.566 8.96946C8.38601 9.26946 4.79601 9.59946 2.56601 7.54946C1.89113 6.86532 1.37059 6.04459 1.03941 5.14246C0.70823 4.24034 0.574089 3.27775 0.646012 2.31946C0.646012 1.92163 0.804048 1.5401 1.08535 1.2588C1.36666 0.977492 1.74819 0.819458 2.14601 0.819458V0.819458C2.54384 0.819458 2.92537 0.977492 3.20667 1.2588C3.48798 1.5401 3.64601 1.92163 3.64601 2.31946C3.58533 2.85739 3.63758 3.40207 3.79945 3.91865C3.96131 4.43523 4.22921 4.91234 4.58601 5.31946C5.85601 6.47946 8.75601 6.20946 11.306 5.96946C14.506 5.67946 17.826 5.36946 19.566 7.53946C22.676 11.3995 21.326 14.9595 20.176 16.2995C20.0394 16.4786 19.8641 16.6247 19.6633 16.7268C19.4625 16.829 19.2413 16.8845 19.016 16.8895V16.8895Z" fill="#041C43"/>
</svg>
