<svg width="50" height="51" viewBox="0 0 50 51" fill="none" xmlns="http://www.w3.org/2000/svg">
<path d="M41.5011 14.9788H17.2211C16.9559 14.9788 16.7015 14.8734 16.514 14.6859C16.3264 14.4983 16.2211 14.244 16.2211 13.9788C16.2211 13.7135 16.3264 13.4592 16.514 13.2717C16.7015 13.0841 16.9559 12.9788 17.2211 12.9788H41.5011C41.7663 12.9788 42.0206 13.0841 42.2082 13.2717C42.3957 13.4592 42.5011 13.7135 42.5011 13.9788C42.5011 14.244 42.3957 14.4983 42.2082 14.6859C42.0206 14.8734 41.7663 14.9788 41.5011 14.9788Z" fill="#041C43"/>
<path d="M10.8911 14.9788H8.11108C7.84587 14.9788 7.59151 14.8734 7.40398 14.6859C7.21644 14.4983 7.11108 14.244 7.11108 13.9788C7.11108 13.7135 7.21644 13.4592 7.40398 13.2717C7.59151 13.0841 7.84587 12.9788 8.11108 12.9788H10.8911C11.1563 12.9788 11.4107 13.0841 11.5982 13.2717C11.7857 13.4592 11.8911 13.7135 11.8911 13.9788C11.8911 14.244 11.7857 14.4983 11.5982 14.6859C11.4107 14.8734 11.1563 14.9788 10.8911 14.9788Z" fill="#041C43"/>
<path d="M41.501 26.1088H28.131C27.8658 26.1088 27.6115 26.0034 27.4239 25.8159C27.2364 25.6283 27.131 25.374 27.131 25.1088C27.131 24.8435 27.2364 24.5892 27.4239 24.4017C27.6115 24.2141 27.8658 24.1088 28.131 24.1088H41.501C41.7663 24.1088 42.0206 24.2141 42.2081 24.4017C42.3957 24.5892 42.501 24.8435 42.501 25.1088C42.501 25.374 42.3957 25.6283 42.2081 25.8159C42.0206 26.0034 41.7663 26.1088 41.501 26.1088Z" fill="#041C43"/>
<path d="M21.8311 26.1088H8.11108C7.84587 26.1088 7.59151 26.0034 7.40398 25.8159C7.21644 25.6283 7.11108 25.374 7.11108 25.1088C7.11108 24.8435 7.21644 24.5892 7.40398 24.4017C7.59151 24.2141 7.84587 24.1088 8.11108 24.1088H21.8311C22.0963 24.1088 22.3507 24.2141 22.5382 24.4017C22.7257 24.5892 22.8311 24.8435 22.8311 25.1088C22.8311 25.374 22.7257 25.6283 22.5382 25.8159C22.3507 26.0034 22.0963 26.1088 21.8311 26.1088Z" fill="#041C43"/>
<path d="M41.501 37.1887H39.051C38.7858 37.1887 38.5315 37.0834 38.3439 36.8958C38.1564 36.7083 38.051 36.4539 38.051 36.1887C38.051 35.9235 38.1564 35.6691 38.3439 35.4816C38.5315 35.2941 38.7858 35.1887 39.051 35.1887H41.501C41.7662 35.1887 42.0206 35.2941 42.2081 35.4816C42.3957 35.6691 42.501 35.9235 42.501 36.1887C42.501 36.4539 42.3957 36.7083 42.2081 36.8958C42.0206 37.0834 41.7662 37.1887 41.501 37.1887Z" fill="#041C43"/>
<path d="M33.1111 37.1887H8.11108C7.84587 37.1887 7.59151 37.0834 7.40398 36.8958C7.21644 36.7083 7.11108 36.4539 7.11108 36.1887C7.11108 35.9235 7.21644 35.6691 7.40398 35.4816C7.59151 35.2941 7.84587 35.1887 8.11108 35.1887H33.1111C33.3763 35.1887 33.6307 35.2941 33.8182 35.4816C34.0057 35.6691 34.1111 35.9235 34.1111 36.1887C34.1111 36.4539 34.0057 36.7083 33.8182 36.8958C33.6307 37.0834 33.3763 37.1887 33.1111 37.1887Z" fill="#041C43"/>
<path d="M14.5211 12.1887C14.7863 12.1887 15.0406 12.2941 15.2282 12.4816C15.4157 12.6691 15.5211 12.9235 15.5211 13.1887V14.8487C15.5211 15.1139 15.4157 15.3683 15.2282 15.5558C15.0406 15.7434 14.7863 15.8487 14.5211 15.8487H12.8911C12.6258 15.8487 12.3715 15.7434 12.1839 15.5558C11.9964 15.3683 11.8911 15.1139 11.8911 14.8487V13.1887C11.8911 12.9235 11.9964 12.6691 12.1839 12.4816C12.3715 12.2941 12.6258 12.1887 12.8911 12.1887H14.5611H14.5211ZM14.5611 10.1887H12.8911C12.0954 10.1887 11.3323 10.5048 10.7697 11.0674C10.2071 11.63 9.89105 12.3931 9.89105 13.1887V14.8487C9.89105 15.6444 10.2071 16.4074 10.7697 16.97C11.3323 17.5326 12.0954 17.8487 12.8911 17.8487H14.5611C15.3567 17.8487 16.1198 17.5326 16.6824 16.97C17.245 16.4074 17.5611 15.6444 17.5611 14.8487V13.1887C17.5611 12.3931 17.245 11.63 16.6824 11.0674C16.1198 10.5048 15.3567 10.1887 14.5611 10.1887Z" fill="#10A372"/>
<path d="M36.7611 34.3987C37.0263 34.3987 37.2806 34.504 37.4682 34.6916C37.6557 34.8791 37.7611 35.1335 37.7611 35.3987V37.0687C37.7611 37.3339 37.6557 37.5883 37.4682 37.7758C37.2806 37.9633 37.0263 38.0687 36.7611 38.0687H35.1011C34.8359 38.0687 34.5815 37.9633 34.394 37.7758C34.2064 37.5883 34.1011 37.3339 34.1011 37.0687V35.3987C34.1011 35.1335 34.2064 34.8791 34.394 34.6916C34.5815 34.504 34.8359 34.3987 35.1011 34.3987H36.7611ZM36.7611 32.3987H35.1011C34.3054 32.3987 33.5424 32.7148 32.9798 33.2774C32.4171 33.84 32.1011 34.603 32.1011 35.3987V37.0687C32.1011 37.8643 32.4171 38.6274 32.9798 39.19C33.5424 39.7526 34.3054 40.0687 35.1011 40.0687H36.7611C37.155 40.0687 37.5451 39.9911 37.9091 39.8403C38.2731 39.6896 38.6038 39.4686 38.8824 39.19C39.161 38.9114 39.382 38.5807 39.5327 38.2167C39.6835 37.8528 39.7611 37.4626 39.7611 37.0687V35.3987C39.7611 34.603 39.445 33.84 38.8824 33.2774C38.3198 32.7148 37.5567 32.3987 36.7611 32.3987Z" fill="#10A372"/>
<path d="M25.6411 23.2687C25.9063 23.2687 26.1606 23.374 26.3482 23.5616C26.5357 23.7491 26.6411 24.0035 26.6411 24.2687V25.9387C26.6411 26.2039 26.5357 26.4582 26.3482 26.6458C26.1606 26.8333 25.9063 26.9387 25.6411 26.9387H23.9711C23.7059 26.9387 23.4515 26.8333 23.264 26.6458C23.0764 26.4582 22.9711 26.2039 22.9711 25.9387V24.2687C22.9711 24.0035 23.0764 23.7491 23.264 23.5616C23.4515 23.374 23.7059 23.2687 23.9711 23.2687H25.6411ZM25.6411 21.2687H23.9711C23.1754 21.2687 22.4124 21.5847 21.8497 22.1474C21.2871 22.71 20.9711 23.473 20.9711 24.2687V25.9387C20.9711 26.7343 21.2871 27.4974 21.8497 28.06C22.4124 28.6226 23.1754 28.9387 23.9711 28.9387H25.6411C26.4367 28.9387 27.1998 28.6226 27.7624 28.06C28.325 27.4974 28.6411 26.7343 28.6411 25.9387V24.2687C28.6411 23.473 28.325 22.71 27.7624 22.1474C27.1998 21.5847 26.4367 21.2687 25.6411 21.2687Z" fill="#10A372"/>
<path d="M48.7511 50.0487H1.03107C0.76585 50.0487 0.511498 49.9434 0.323961 49.7558C0.136425 49.5683 0.0310669 49.314 0.0310669 49.0487V1.32874C0.0310669 1.06352 0.136425 0.809166 0.323961 0.62163C0.511498 0.434093 0.76585 0.328735 1.03107 0.328735H48.7511C49.0163 0.328735 49.2706 0.434093 49.4582 0.62163C49.6457 0.809166 49.7511 1.06352 49.7511 1.32874V49.0487C49.7511 49.314 49.6457 49.5683 49.4582 49.7558C49.2706 49.9434 49.0163 50.0487 48.7511 50.0487ZM2.03107 48.0487H47.7511V2.32874H2.03107V48.0487Z" fill="#10A372"/>
</svg>
