<svg width="39" height="36" viewBox="0 0 39 36" fill="none" xmlns="http://www.w3.org/2000/svg">
<path d="M12.3566 20.6718C12.1583 20.6718 11.9681 20.593 11.8278 20.4528C11.6876 20.3125 11.6088 20.1223 11.6088 19.924C11.6088 19.7257 11.6876 19.5355 11.8278 19.3953C11.9681 19.2551 12.1583 19.1763 12.3566 19.1763H16.7982C16.9965 19.1763 17.1867 19.2551 17.3269 19.3953C17.4671 19.5355 17.5459 19.7257 17.5459 19.924C17.5459 20.1223 17.4671 20.3125 17.3269 20.4528C17.1867 20.593 16.9965 20.6718 16.7982 20.6718H12.364H12.3566Z" fill="#10A372"/>
<path d="M11.407 20.6644H5.66431C5.466 20.6644 5.2758 20.5857 5.13558 20.4454C4.99535 20.3052 4.91656 20.115 4.91656 19.9167C4.91656 19.7184 4.99535 19.5282 5.13558 19.388C5.2758 19.2477 5.466 19.1689 5.66431 19.1689H11.407C11.6053 19.1689 11.7955 19.2477 11.9357 19.388C12.076 19.5282 12.1547 19.7184 12.1547 19.9167C12.1547 20.115 12.076 20.3052 11.9357 20.4454C11.7955 20.5857 11.6053 20.6644 11.407 20.6644Z" fill="#10A372"/>
<path d="M33.5028 17.4789H28.7247C28.5264 17.4789 28.3362 17.4001 28.196 17.2599C28.0558 17.1197 27.977 16.9295 27.977 16.7311C27.977 16.5328 28.0558 16.3426 28.196 16.2024C28.3362 16.0622 28.5264 15.9834 28.7247 15.9834H33.5028C33.7011 15.9834 33.8913 16.0622 34.0316 16.2024C34.1718 16.3426 34.2506 16.5328 34.2506 16.7311C34.2506 16.9295 34.1718 17.1197 34.0316 17.2599C33.8913 17.4001 33.7011 17.4789 33.5028 17.4789Z" fill="#03132E"/>
<path d="M35.4395 6.46473C35.2411 6.46473 35.0509 6.38595 34.9107 6.24572C34.7705 6.10549 34.6917 5.9153 34.6917 5.71698C34.6917 5.51867 34.7705 5.32848 34.9107 5.18825C35.0509 5.04802 35.2411 4.96924 35.4395 4.96924H37.5331C37.7315 4.96924 37.9216 5.04802 38.0619 5.18825C38.2021 5.32848 38.2809 5.51867 38.2809 5.71698C38.2809 5.9153 38.2021 6.10549 38.0619 6.24572C37.9216 6.38595 37.7315 6.46473 37.5331 6.46473H35.4395Z" fill="#03132E"/>
<path d="M11.6612 21.7561C11.5623 21.7556 11.4644 21.7356 11.3733 21.6971C11.2821 21.6586 11.1995 21.6024 11.1303 21.5317L1.35727 11.7064C1.218 11.5663 1.13983 11.3767 1.13983 11.1792C1.13983 10.9817 1.218 10.7921 1.35727 10.652L11.1452 0.849118C11.2494 0.744119 11.3823 0.672357 11.5272 0.642907C11.6722 0.613457 11.8226 0.627641 11.9594 0.683666C12.0963 0.739692 12.2135 0.835041 12.2961 0.957658C12.3788 1.08028 12.4233 1.22465 12.4239 1.37254V4.9318L26.631 4.97667H33.5327C33.731 4.97667 33.9212 5.05545 34.0614 5.19568C34.2017 5.33591 34.2805 5.5261 34.2805 5.72441C34.2805 5.92273 34.2017 6.11292 34.0614 6.25315C33.9212 6.39338 33.731 6.47216 33.5327 6.47216H26.6011L11.6462 6.42729C11.4479 6.42729 11.2577 6.34851 11.1175 6.20828C10.9773 6.06805 10.8985 5.87786 10.8985 5.67955V3.18208L2.94249 11.1829L10.9134 19.1988V16.7013C10.9134 16.503 10.9922 16.3128 11.1325 16.1726C11.2727 16.0323 11.4629 15.9536 11.6612 15.9536H26.7432C26.9415 15.9536 27.1317 16.0323 27.2719 16.1726C27.4122 16.3128 27.4909 16.503 27.4909 16.7013C27.4909 16.8996 27.4122 17.0898 27.2719 17.23C27.1317 17.3703 26.9415 17.449 26.7432 17.449H12.4089V21.0083C12.4089 21.2066 12.3302 21.3968 12.1899 21.537C12.0497 21.6773 11.8595 21.7561 11.6612 21.7561Z" fill="#03132E"/>
<path d="M35.447 17.4789C35.2486 17.4789 35.0585 17.4001 34.9182 17.2599C34.778 17.1197 34.6992 16.9295 34.6992 16.7311C34.6992 16.5328 34.778 16.3426 34.9182 16.2024C35.0585 16.0622 35.2486 15.9834 35.447 15.9834H37.578C37.7763 15.9834 37.9665 16.0622 38.1068 16.2024C38.247 16.3426 38.3258 16.5328 38.3258 16.7311C38.3258 16.9295 38.247 17.1197 38.1068 17.2599C37.9665 17.4001 37.7763 17.4789 37.578 17.4789H35.447Z" fill="#03132E"/>
<path d="M3.72759 20.6571H1.72364C1.52532 20.6571 1.33513 20.5783 1.1949 20.4381C1.05467 20.2979 0.975891 20.1077 0.975891 19.9094C0.975891 19.7111 1.05467 19.5209 1.1949 19.3806C1.33513 19.2404 1.52532 19.1616 1.72364 19.1616H3.72011C3.91843 19.1616 4.10862 19.2404 4.24885 19.3806C4.38908 19.5209 4.46786 19.7111 4.46786 19.9094C4.46786 20.1077 4.38908 20.2979 4.24885 20.4381C4.10862 20.5783 3.91843 20.6571 3.72011 20.6571H3.72759Z" fill="#10A372"/>
<path d="M3.72011 31.6713H1.72364C1.52532 31.6713 1.33513 31.5925 1.1949 31.4523C1.05467 31.312 0.975891 31.1218 0.975891 30.9235C0.975891 30.7252 1.05467 30.535 1.1949 30.3948C1.33513 30.2546 1.52532 30.1758 1.72364 30.1758H3.72011C3.91843 30.1758 4.10862 30.2546 4.24885 30.3948C4.38908 30.535 4.46786 30.7252 4.46786 30.9235C4.46786 31.1218 4.38908 31.312 4.24885 31.4523C4.10862 31.5925 3.91843 31.6713 3.72011 31.6713Z" fill="#10A372"/>
<path d="M27.5059 35.9484C27.3076 35.9484 27.1174 35.8697 26.9772 35.7294C26.837 35.5892 26.7582 35.399 26.7582 35.2007V31.6414H5.66431C5.466 31.6414 5.2758 31.5626 5.13558 31.4224C4.99535 31.2822 4.91656 31.092 4.91656 30.8937C4.91656 30.6954 4.99535 30.5052 5.13558 30.3649C5.2758 30.2247 5.466 30.1459 5.66431 30.1459H27.5059C27.7042 30.1459 27.8944 30.2247 28.0347 30.3649C28.1749 30.5052 28.2537 30.6954 28.2537 30.8937V33.3837L36.2246 25.3753L28.2387 17.3745V19.8719C28.2387 20.0702 28.1599 20.2604 28.0197 20.4007C27.8795 20.5409 27.6893 20.6197 27.491 20.6197L15.1457 20.6571C14.9474 20.6571 14.7572 20.5783 14.617 20.438C14.4767 20.2978 14.398 20.1076 14.398 19.9093C14.398 19.711 14.4767 19.5208 14.617 19.3806C14.7572 19.2404 14.9474 19.1616 15.1457 19.1616L26.7806 19.1242V15.5649C26.7812 15.417 26.8257 15.2727 26.9084 15.15C26.991 15.0274 27.1082 14.9321 27.2451 14.876C27.3819 14.82 27.5323 14.8058 27.6773 14.8353C27.8222 14.8647 27.9551 14.9365 28.0593 15.0415L37.8098 24.8444C37.9491 24.9845 38.0273 25.174 38.0273 25.3716C38.0273 25.5691 37.9491 25.7586 37.8098 25.8987L28.0368 35.7241C27.9676 35.7948 27.885 35.851 27.7939 35.8895C27.7027 35.928 27.6049 35.948 27.5059 35.9484Z" fill="#10A372"/>
</svg>
