<svg width="38" height="38" viewBox="0 0 38 38" fill="none" xmlns="http://www.w3.org/2000/svg">
<path d="M9.85911 11.6322H5.13336C4.93505 11.6322 4.74486 11.5534 4.60463 11.4132C4.4644 11.273 4.38562 11.0828 4.38562 10.8845C4.38562 10.6861 4.4644 10.496 4.60463 10.3557C4.74486 10.2155 4.93505 10.1367 5.13336 10.1367H9.85911C10.0574 10.1367 10.2476 10.2155 10.3878 10.3557C10.5281 10.496 10.6069 10.6861 10.6069 10.8845C10.6069 11.0828 10.5281 11.273 10.3878 11.4132C10.2476 11.5534 10.0574 11.6322 9.85911 11.6322Z" fill="#03132E"/>
<path d="M9.85911 15.0345H5.13336C4.93505 15.0345 4.74486 14.9558 4.60463 14.8155C4.4644 14.6753 4.38562 14.4851 4.38562 14.2868C4.38562 14.0885 4.4644 13.8983 4.60463 13.7581C4.74486 13.6178 4.93505 13.5391 5.13336 13.5391H9.85911C10.0574 13.5391 10.2476 13.6178 10.3878 13.7581C10.5281 13.8983 10.6069 14.0885 10.6069 14.2868C10.6069 14.4851 10.5281 14.6753 10.3878 14.8155C10.2476 14.9558 10.0574 15.0345 9.85911 15.0345Z" fill="#03132E"/>
<path d="M9.85911 18.4369H5.13336C4.93505 18.4369 4.74486 18.3581 4.60463 18.2179C4.4644 18.0777 4.38562 17.8875 4.38562 17.6891C4.38562 17.4908 4.4644 17.3006 4.60463 17.1604C4.74486 17.0202 4.93505 16.9414 5.13336 16.9414H9.85911C10.0574 16.9414 10.2476 17.0202 10.3878 17.1604C10.5281 17.3006 10.6069 17.4908 10.6069 17.6891C10.6069 17.8875 10.5281 18.0777 10.3878 18.2179C10.2476 18.3581 10.0574 18.4369 9.85911 18.4369Z" fill="#03132E"/>
<path d="M18.705 17.786H14.398C14.1996 17.786 14.0094 17.7072 13.8692 17.567C13.729 17.4268 13.6502 17.2366 13.6502 17.0383C13.6502 16.84 13.729 16.6498 13.8692 16.5095C14.0094 16.3693 14.1996 16.2905 14.398 16.2905H18.705C18.9033 16.2905 19.0935 16.3693 19.2337 16.5095C19.3739 16.6498 19.4527 16.84 19.4527 17.0383C19.4527 17.2366 19.3739 17.4268 19.2337 17.567C19.0935 17.7072 18.9033 17.786 18.705 17.786Z" fill="#10A372"/>
<path d="M18.705 21.1884H14.398C14.1996 21.1884 14.0094 21.1096 13.8692 20.9694C13.729 20.8291 13.6502 20.6389 13.6502 20.4406C13.6502 20.2423 13.729 20.0521 13.8692 19.9119C14.0094 19.7717 14.1996 19.6929 14.398 19.6929H18.705C18.9033 19.6929 19.0935 19.7717 19.2337 19.9119C19.3739 20.0521 19.4527 20.2423 19.4527 20.4406C19.4527 20.6389 19.3739 20.8291 19.2337 20.9694C19.0935 21.1096 18.9033 21.1884 18.705 21.1884Z" fill="#10A372"/>
<path d="M18.705 24.598H14.398C14.1996 24.598 14.0094 24.5193 13.8692 24.379C13.729 24.2388 13.6502 24.0486 13.6502 23.8503C13.6502 23.652 13.729 23.4618 13.8692 23.3215C14.0094 23.1813 14.1996 23.1025 14.398 23.1025H18.705C18.9033 23.1025 19.0935 23.1813 19.2337 23.3215C19.3739 23.4618 19.4527 23.652 19.4527 23.8503C19.4527 24.0486 19.3739 24.2388 19.2337 24.379C19.0935 24.5193 18.9033 24.598 18.705 24.598Z" fill="#10A372"/>
<path d="M13.71 7.5944C13.5117 7.5944 13.3215 7.51562 13.1813 7.37539C13.0411 7.23516 12.9623 7.04497 12.9623 6.84665V1.82929C12.9623 1.63097 13.0411 1.44078 13.1813 1.30055C13.3215 1.16032 13.5117 1.08154 13.71 1.08154C13.9083 1.08154 14.0985 1.16032 14.2388 1.30055C14.379 1.44078 14.4578 1.63097 14.4578 1.82929V6.82422C14.4608 6.92429 14.4437 7.02394 14.4074 7.11726C14.3712 7.21059 14.3166 7.29569 14.2469 7.36752C14.1771 7.43935 14.0937 7.49644 14.0015 7.53541C13.9092 7.57438 13.8101 7.59444 13.71 7.5944Z" fill="#03132E"/>
<path d="M7.48877 27.1704C7.31754 27.1711 7.15125 27.113 7.01769 27.0059L5.90355 26.116L4.78194 27.0059C4.64992 27.1102 4.48659 27.1669 4.31833 27.1669C4.15008 27.1669 3.98675 27.1102 3.85473 27.0059L2.73312 26.116L1.98537 26.6993C1.87539 26.7862 1.74319 26.8404 1.60386 26.8558C1.46453 26.8712 1.32368 26.8471 1.19738 26.7863C1.07108 26.7255 0.964415 26.6304 0.889559 26.5119C0.814703 26.3934 0.774669 26.2562 0.774025 26.116L0.676819 0.946963C0.676819 0.748649 0.755598 0.558458 0.895828 0.418229C1.03606 0.278 1.22625 0.199219 1.42456 0.199219H13.538C13.7305 0.199985 13.9154 0.27498 14.054 0.408588L20.2303 6.44288C20.3721 6.5817 20.453 6.77117 20.4551 6.96959C20.4572 7.16802 20.3804 7.35915 20.2416 7.50094C20.1027 7.64274 19.9133 7.72358 19.7148 7.72568C19.5164 7.72779 19.3253 7.65098 19.1835 7.51216L13.2015 1.69471H2.18726L2.27699 24.5757C2.40838 24.4732 2.57023 24.4176 2.73685 24.4176C2.90348 24.4176 3.06533 24.4732 3.19672 24.5757L4.34077 25.4655L5.46238 24.5757C5.5944 24.4714 5.75773 24.4146 5.92598 24.4146C6.09424 24.4146 6.25758 24.4714 6.38959 24.5757L7.51121 25.4655L8.62534 24.5757C8.77658 24.4554 8.96849 24.3984 9.16086 24.4165C9.35323 24.4346 9.53112 24.5265 9.65723 24.6729L10.7489 25.9216C10.8788 26.0773 10.9416 26.2782 10.9233 26.4801C10.9051 26.6821 10.8074 26.8685 10.6517 26.9984C10.4961 27.1283 10.2952 27.191 10.0932 27.1728C9.89129 27.1546 9.70487 27.0569 9.57498 26.9012L8.95435 26.1534L7.92994 26.9685C7.80941 27.0829 7.65418 27.154 7.48877 27.1704Z" fill="#03132E"/>
<path d="M22.4287 12.3651C22.2304 12.3651 22.0402 12.2863 21.9 12.1461C21.7598 12.0059 21.681 11.8157 21.681 11.6174V7.92353C21.681 7.72521 21.7598 7.53502 21.9 7.39479C22.0402 7.25456 22.2304 7.17578 22.4287 7.17578C22.627 7.17578 22.8172 7.25456 22.9575 7.39479C23.0977 7.53502 23.1765 7.72521 23.1765 7.92353V11.6174C23.1765 11.8157 23.0977 12.0059 22.9575 12.1461C22.8172 12.2863 22.627 12.3651 22.4287 12.3651Z" fill="#10A372"/>
<path d="M16.1701 33.2347C16.0014 33.2338 15.838 33.1758 15.7065 33.0702L14.5849 32.1804L13.4707 33.0627C13.3381 33.1689 13.1733 33.2268 13.0034 33.2268C12.8335 33.2268 12.6687 33.1689 12.536 33.0627L11.4219 32.1804L10.6742 32.7637C10.5632 32.8507 10.43 32.9046 10.2897 32.9192C10.1495 32.9337 10.008 32.9083 9.88154 32.8459C9.75683 32.7848 9.6516 32.6902 9.57764 32.5726C9.50368 32.4551 9.46392 32.3193 9.4628 32.1804L9.38055 7.06367C9.38055 6.86536 9.45933 6.67517 9.59956 6.53494C9.73979 6.39471 9.92998 6.31593 10.1283 6.31593H22.2343C22.3327 6.31536 22.4302 6.33422 22.5213 6.37144C22.6124 6.40865 22.6953 6.46348 22.7652 6.53278L27.2516 11.0192C27.3214 11.0885 27.3768 11.1708 27.4147 11.2614C27.4526 11.352 27.4723 11.4492 27.4726 11.5475C27.473 11.6457 27.454 11.7431 27.4167 11.834C27.3794 11.9249 27.3246 12.0076 27.2554 12.0773C27.1862 12.147 27.1039 12.2024 27.0132 12.2403C26.9226 12.2783 26.8254 12.298 26.7271 12.2983C26.6289 12.2987 26.5315 12.2796 26.4406 12.2424C26.3497 12.2051 26.267 12.1503 26.1973 12.081L21.8978 7.82637H10.876L10.9658 30.7074C11.0972 30.6049 11.259 30.5492 11.4256 30.5492C11.5923 30.5492 11.7541 30.6049 11.8855 30.7074L13.0071 31.5897L14.1213 30.7074C14.2539 30.6012 14.4187 30.5433 14.5886 30.5433C14.7585 30.5433 14.9233 30.6012 15.0559 30.7074L16.1701 31.5972L17.2917 30.7074C17.4237 30.603 17.587 30.5463 17.7553 30.5463C17.9235 30.5463 18.0869 30.603 18.2189 30.7074L19.2209 31.4551C19.3765 31.5781 19.477 31.7578 19.5001 31.9548C19.5233 32.1519 19.4672 32.35 19.3442 32.5057C19.2213 32.6614 19.0415 32.7618 18.8445 32.785C18.6475 32.8081 18.4493 32.752 18.2937 32.6291L17.7553 32.2103L16.6412 33.0852C16.5038 33.1835 16.3389 33.2358 16.1701 33.2347Z" fill="#10A372"/>
<path d="M36.3292 18.4668H31.095C30.8967 18.4668 30.7065 18.388 30.5663 18.2477C30.4261 18.1075 30.3473 17.9173 30.3473 17.719V12.5446C30.3473 12.3463 30.4261 12.1561 30.5663 12.0159C30.7065 11.8757 30.8967 11.7969 31.095 11.7969C31.2933 11.7969 31.4835 11.8757 31.6238 12.0159C31.764 12.1561 31.8428 12.3463 31.8428 12.5446V16.9713H36.3292C36.5276 16.9713 36.7178 17.05 36.858 17.1903C36.9982 17.3305 37.077 17.5207 37.077 17.719C37.077 17.9173 36.9982 18.1075 36.858 18.2477C36.7178 18.388 36.5276 18.4668 36.3292 18.4668Z" fill="#03132E"/>
<path d="M31.1998 37.8633C31.0286 37.864 30.8623 37.8059 30.7287 37.6988L29.6071 36.8089L28.493 37.7212C28.3609 37.8255 28.1976 37.8823 28.0294 37.8823C27.8611 37.8823 27.6978 37.8255 27.5658 37.7212L26.4441 36.8389L25.3225 37.7212C25.1905 37.8255 25.0272 37.8823 24.8589 37.8823C24.6907 37.8823 24.5273 37.8255 24.3953 37.7212L23.2737 36.8314L22.1521 37.7212C22.0201 37.8255 21.8567 37.8823 21.6885 37.8823C21.5202 37.8823 21.3569 37.8255 21.2249 37.7212L20.1033 36.8389L19.3555 37.4221C19.2453 37.5103 19.1124 37.5656 18.9722 37.5815C18.8319 37.5974 18.69 37.5732 18.5629 37.5118C18.4357 37.4512 18.3281 37.3559 18.2527 37.2368C18.1773 37.1177 18.1371 36.9798 18.1367 36.8389L18.0395 11.6698C18.0399 11.5708 18.0599 11.473 18.0984 11.3818C18.137 11.2907 18.1932 11.2081 18.2638 11.1389C18.4019 10.998 18.59 10.9174 18.7872 10.9146H30.9007C31.0969 10.9154 31.2848 10.9933 31.4241 11.1314L37.6528 17.2629C37.7244 17.333 37.7811 17.4168 37.8196 17.5093C37.8582 17.6018 37.8777 17.7011 37.8771 17.8013V36.8015C37.8779 36.9423 37.8389 37.0804 37.7646 37.2001C37.6903 37.3197 37.5837 37.4159 37.4572 37.4776C37.3306 37.5393 37.1892 37.564 37.0492 37.5489C36.9092 37.5338 36.7763 37.4795 36.6658 37.3922L35.9181 36.8089L34.8263 37.7212C34.6943 37.8255 34.531 37.8823 34.3627 37.8823C34.1945 37.8823 34.0312 37.8255 33.8991 37.7212L32.7551 36.8089L31.6634 37.7212C31.5289 37.8187 31.3658 37.8687 31.1998 37.8633ZM29.6146 35.1041C29.7832 35.1051 29.9466 35.163 30.0782 35.2686L31.1998 36.1584L32.3139 35.2686C32.4466 35.1624 32.6114 35.1046 32.7813 35.1046C32.9512 35.1046 33.116 35.1624 33.2486 35.2686L34.3627 36.1509L35.4918 35.2686C35.6226 35.1679 35.783 35.1134 35.948 35.1134C36.113 35.1134 36.2733 35.1679 36.4041 35.2686V18.0705L30.6165 12.3727H19.5649L19.6546 35.2536C19.7854 35.153 19.9457 35.0984 20.1107 35.0984C20.2757 35.0984 20.4361 35.153 20.5669 35.2536L21.6885 36.136L22.8101 35.2536C22.9421 35.1493 23.1054 35.0926 23.2737 35.0926C23.442 35.0926 23.6053 35.1493 23.7373 35.2536L24.8589 36.1434L25.9805 35.2536C26.1125 35.1493 26.2759 35.0926 26.4441 35.0926C26.6124 35.0926 26.7757 35.1493 26.9077 35.2536L28.0294 36.136L29.151 35.2536C29.2845 35.1534 29.4477 35.1008 29.6146 35.1041Z" fill="#03132E"/>
<path d="M33.8991 23.2147H22.0623C21.864 23.2147 21.6738 23.1359 21.5336 22.9957C21.3934 22.8555 21.3146 22.6653 21.3146 22.467C21.3146 22.2687 21.3934 22.0785 21.5336 21.9383C21.6738 21.798 21.864 21.7192 22.0623 21.7192H33.8991C34.0974 21.7192 34.2876 21.798 34.4278 21.9383C34.5681 22.0785 34.6469 22.2687 34.6469 22.467C34.6469 22.6653 34.5681 22.8555 34.4278 22.9957C34.2876 23.1359 34.0974 23.2147 33.8991 23.2147Z" fill="#03132E"/>
<path d="M33.8991 26.6171H22.0623C21.864 26.6171 21.6738 26.5383 21.5336 26.3981C21.3934 26.2578 21.3146 26.0676 21.3146 25.8693C21.3146 25.671 21.3934 25.4808 21.5336 25.3406C21.6738 25.2004 21.864 25.1216 22.0623 25.1216H33.8991C34.0974 25.1216 34.2876 25.2004 34.4278 25.3406C34.5681 25.4808 34.6469 25.671 34.6469 25.8693C34.6469 26.0676 34.5681 26.2578 34.4278 26.3981C34.2876 26.5383 34.0974 26.6171 33.8991 26.6171Z" fill="#03132E"/>
<path d="M33.8991 30.0189H22.0623C21.864 30.0189 21.6738 29.9401 21.5336 29.7999C21.3934 29.6597 21.3146 29.4695 21.3146 29.2712C21.3146 29.0729 21.3934 28.8827 21.5336 28.7424C21.6738 28.6022 21.864 28.5234 22.0623 28.5234H33.8991C34.0974 28.5234 34.2876 28.6022 34.4278 28.7424C34.5681 28.8827 34.6469 29.0729 34.6469 29.2712C34.6469 29.4695 34.5681 29.6597 34.4278 29.7999C34.2876 29.9401 34.0974 30.0189 33.8991 30.0189Z" fill="#03132E"/>
</svg>
