<svg width="50" height="50" viewBox="0 0 50 50" fill="none" xmlns="http://www.w3.org/2000/svg">
<path d="M43.248 10.2881H7.18799C6.92277 10.2881 6.66842 10.1827 6.48088 9.99519C6.29334 9.80766 6.18799 9.5533 6.18799 9.28809C6.18799 9.02287 6.29334 8.76851 6.48088 8.58098C6.66842 8.39344 6.92277 8.28809 7.18799 8.28809H43.248C43.5132 8.28809 43.7676 8.39344 43.9551 8.58098C44.1426 8.76851 44.248 9.02287 44.248 9.28809C44.248 9.5533 44.1426 9.80766 43.9551 9.99519C43.7676 10.1827 43.5132 10.2881 43.248 10.2881Z" fill="#17CF81"/>
<path d="M21.048 49.988C20.7828 49.988 20.5284 49.8826 20.3409 49.6951C20.1534 49.5076 20.048 49.2532 20.048 48.988V30.618L1.118 2.46799C1.02251 2.32041 0.967607 2.15026 0.958828 1.9747C0.95005 1.79914 0.987704 1.62436 1.068 1.46799C1.15302 1.30831 1.27977 1.17469 1.43474 1.08135C1.58971 0.988019 1.76709 0.938471 1.948 0.937988H48.548C48.7289 0.938471 48.9063 0.988019 49.0613 1.08135C49.2162 1.17469 49.343 1.30831 49.428 1.46799C49.5083 1.62436 49.5459 1.79914 49.5372 1.9747C49.5284 2.15026 49.4735 2.32041 49.378 2.46799L30.378 30.568V42.568C30.3776 42.7207 30.3423 42.8713 30.2747 43.0082C30.2071 43.1452 30.109 43.2648 29.988 43.358L21.628 49.718C21.4694 49.8691 21.2657 49.9639 21.048 49.988ZM3.828 2.98799L21.878 29.758C21.9935 29.9215 22.0531 30.1179 22.048 30.318V46.968L28.408 42.128V30.308C28.4076 30.1085 28.4668 29.9135 28.578 29.748L46.668 2.94799L3.828 2.98799Z" fill="#10A372"/>
</svg>
