<svg width="24" height="24" viewBox="0 0 24 24" fill="none" xmlns="http://www.w3.org/2000/svg">
<path d="M17.0953 0.748047H6.64574C3.11982 0.748047 0.234985 3.63289 0.234985 7.1588V17.5442C0.234985 21.0701 3.11982 23.955 6.64574 23.955H17.0312C20.5571 23.955 23.4419 21.0701 23.4419 17.5442V7.1588C23.506 3.63289 20.6212 0.748047 17.0953 0.748047ZM21.3905 17.6083C21.3905 19.9803 19.4672 21.9676 17.0312 21.9676H6.64574C4.27376 21.9676 2.28643 20.0444 2.28643 17.6083V7.1588C2.28643 4.78682 4.20965 2.79949 6.64574 2.79949H17.0312C19.4031 2.79949 21.3905 4.72271 21.3905 7.1588V17.6083Z" fill="#041C43"/>
<path d="M11.8384 6.3902C8.50481 6.3902 5.8764 9.08272 5.8764 12.3522C5.8764 15.6858 8.56892 18.3142 11.8384 18.3142C15.1079 18.3142 17.8004 15.6217 17.8004 12.3522C17.8645 9.08272 15.172 6.3902 11.8384 6.3902ZM11.8384 16.3269C9.65875 16.3269 7.92784 14.596 7.92784 12.4163C7.92784 10.2366 9.65875 8.50575 11.8384 8.50575C14.0181 8.50575 15.749 10.2366 15.749 12.4163C15.8131 14.5319 14.0181 16.3269 11.8384 16.3269Z" fill="#041C43"/>
<path d="M18.121 4.65875C17.7363 4.65875 17.3517 4.85108 17.0312 5.10751C16.7747 5.36394 16.5824 5.74858 16.5824 6.19733C16.5824 6.58198 16.7747 6.96662 17.0312 7.28716C17.2876 7.54359 17.6722 7.73591 18.121 7.73591C18.5056 7.73591 18.8903 7.54359 19.2108 7.28716C19.4672 7.03073 19.6596 6.64609 19.6596 6.19733C19.6596 5.81269 19.4672 5.42804 19.2108 5.10751C18.8903 4.78697 18.5056 4.65875 18.121 4.65875Z" fill="#041C43"/>
</svg>
