<svg width="21" height="20" viewBox="0 0 21 20" fill="none" xmlns="http://www.w3.org/2000/svg">
<path d="M21 12.5321V19.9686H16.7048V13.045C16.7048 11.3141 16.0637 10.096 14.5251 10.096C13.3071 10.096 12.6019 10.8653 12.2814 11.6987C12.1532 11.9551 12.1532 12.3398 12.1532 12.7244V19.9686H7.85796C7.85796 19.9686 7.92207 8.23691 7.85796 7.01887H12.1532V8.87799C12.1532 8.87799 12.1532 8.87798 12.1532 8.94209V8.87799C12.7301 7.98048 13.7559 6.76244 16.0637 6.76244C18.8845 6.69833 21 8.55745 21 12.5321ZM3.30632 0.736328C1.83185 0.736328 0.870239 1.69794 0.870239 2.98009C0.870239 4.19814 1.83185 5.22385 3.24222 5.22385C4.71669 5.22385 5.6783 4.19814 5.6783 2.98009C5.74241 1.69794 4.7808 0.736328 3.30632 0.736328ZM1.12667 19.9686H5.42187V7.01887H1.12667V19.9686Z" fill="#041C43"/>
</svg>
