<svg width="25" height="25" viewBox="0 0 25 25" fill="none" xmlns="http://www.w3.org/2000/svg">
<path d="M24.8077 12.4806C24.8077 5.74929 19.3586 0.364258 12.6914 0.364258C6.02422 0.364258 0.575073 5.74929 0.575073 12.4806C0.575073 18.3785 4.80617 23.2506 10.3835 24.3405V15.4936H7.69101V12.0318H10.3835V9.91628C10.3835 8.44181 10.7041 7.28787 11.4093 6.58269C12.1144 5.87751 13.2684 5.42875 14.8711 5.42875H17.6277V8.89056H15.8968C15.5762 8.89056 15.3198 8.89056 15.1275 8.95467C14.9352 9.01878 14.8069 9.08288 14.6787 9.2111C14.6146 9.33931 14.5505 9.46753 14.4864 9.65985C14.4864 9.78807 14.4223 9.98039 14.4223 10.2368V11.9677H17.5636L17.1789 15.4295H14.5505V24.3405C20.3843 23.5071 24.8077 18.5067 24.8077 12.4806Z" fill="#041C43"/>
</svg>
