<svg width="138" height="40" viewBox="0 0 138 40" fill="none" xmlns="http://www.w3.org/2000/svg">
<path d="M26.6195 10.6478H15.4534V0H37.2674V16.3958C37.2674 18.2332 36.1837 19.9293 34.5347 20.7303L26.6195 24.4994V10.6478Z" fill="#17CF81"/>
<path d="M11.1661 26.1013H0V15.5006H21.8139V31.8964C21.8139 33.7338 20.7303 35.4299 19.0813 36.2309L11.1661 40V26.1013Z" fill="#17CF81"/>
<path d="M55.1085 18.3505L51.4832 11.7704H50.4652V18.3505H46.2191V0.919373H53.3455C54.7195 0.919373 55.8865 1.1594 56.8466 1.63946C57.8233 2.11952 58.5517 2.78167 59.0317 3.62591C59.5118 4.4536 59.7518 5.38061 59.7518 6.40694C59.7518 7.56571 59.4207 8.60032 58.7586 9.51077C58.113 10.4212 57.1529 11.0668 55.8782 11.4476L59.9008 18.3505H55.1085ZM50.4652 8.76585H53.0972C53.8752 8.76585 54.4546 8.57548 54.8353 8.19475C55.2326 7.81401 55.4313 7.27601 55.4313 6.58076C55.4313 5.91861 55.2326 5.39716 54.8353 5.01643C54.4546 4.63569 53.8752 4.44532 53.0972 4.44532H50.4652V8.76585Z" fill="#091D3E"/>
<path d="M75.4781 11.1993C75.4781 11.5965 75.4533 12.0104 75.4037 12.4408H65.7942C65.8604 13.3016 66.1335 13.9637 66.6136 14.4272C67.1102 14.8742 67.7144 15.0977 68.4262 15.0977C69.4857 15.0977 70.2223 14.6507 70.6362 13.7568H75.1553C74.9236 14.6673 74.5015 15.4867 73.889 16.215C73.293 16.9434 72.5398 17.5145 71.6294 17.9284C70.7189 18.3422 69.7009 18.5491 68.5752 18.5491C67.2178 18.5491 66.0094 18.2594 64.95 17.68C63.8905 17.1007 63.0628 16.273 62.4669 15.197C61.871 14.121 61.573 12.8629 61.573 11.4227C61.573 9.98255 61.8627 8.72447 62.4421 7.64847C63.038 6.57248 63.8657 5.74479 64.9251 5.16541C65.9846 4.58603 67.2013 4.29634 68.5752 4.29634C69.9161 4.29634 71.1079 4.57775 72.1508 5.14058C73.1937 5.70341 74.0049 6.50627 74.5842 7.54915C75.1802 8.59204 75.4781 9.80874 75.4781 11.1993ZM71.1328 10.0819C71.1328 9.35351 70.8845 8.77413 70.3879 8.34373C69.8912 7.91333 69.2705 7.69814 68.5256 7.69814C67.8138 7.69814 67.2095 7.90506 66.7129 8.3189C66.2329 8.73275 65.9349 9.3204 65.819 10.0819H71.1328Z" fill="#091D3E"/>
<path d="M76.8739 11.4227C76.8739 9.98255 77.1636 8.72447 77.743 7.64847C78.3389 6.57248 79.1583 5.74479 80.2012 5.16541C81.2606 4.58603 82.4691 4.29634 83.8265 4.29634C85.5646 4.29634 87.0131 4.75157 88.1718 5.66202C89.3471 6.57248 90.1169 7.8554 90.4811 9.51077H85.9619C85.5812 8.45133 84.8445 7.92161 83.752 7.92161C82.974 7.92161 82.3532 8.22785 81.8897 8.84034C81.4262 9.43628 81.1944 10.2971 81.1944 11.4227C81.1944 12.5484 81.4262 13.4175 81.8897 14.0299C82.3532 14.6259 82.974 14.9238 83.752 14.9238C84.8445 14.9238 85.5812 14.3941 85.9619 13.3347H90.4811C90.1169 14.957 89.3471 16.2316 88.1718 17.1586C86.9965 18.0856 85.5481 18.5491 83.8265 18.5491C82.4691 18.5491 81.2606 18.2594 80.2012 17.68C79.1583 17.1007 78.3389 16.273 77.743 15.197C77.1636 14.121 76.8739 12.8629 76.8739 11.4227Z" fill="#091D3E"/>
<path d="M105.813 11.1993C105.813 11.5965 105.788 12.0104 105.739 12.4408H96.1293C96.1955 13.3016 96.4686 13.9637 96.9487 14.4272C97.4453 14.8742 98.0495 15.0977 98.7613 15.0977C99.8208 15.0977 100.557 14.6507 100.971 13.7568H105.49C105.259 14.6673 104.837 15.4867 104.224 16.215C103.628 16.9434 102.875 17.5145 101.964 17.9284C101.054 18.3422 100.036 18.5491 98.9103 18.5491C97.5529 18.5491 96.3445 18.2594 95.285 17.68C94.2256 17.1007 93.3979 16.273 92.802 15.197C92.206 14.121 91.9081 12.8629 91.9081 11.4227C91.9081 9.98255 92.1978 8.72447 92.7771 7.64847C93.3731 6.57248 94.2008 5.74479 95.2602 5.16541C96.3196 4.58603 97.5363 4.29634 98.9103 4.29634C100.251 4.29634 101.443 4.57775 102.486 5.14058C103.529 5.70341 104.34 6.50627 104.919 7.54915C105.515 8.59204 105.813 9.80874 105.813 11.1993ZM101.468 10.0819C101.468 9.35351 101.22 8.77413 100.723 8.34373C100.226 7.91333 99.6056 7.69814 98.8606 7.69814C98.1488 7.69814 97.5446 7.90506 97.048 8.3189C96.568 8.73275 96.27 9.3204 96.1541 10.0819H101.468Z" fill="#091D3E"/>
<path d="M112.299 6.4566C112.697 5.81101 113.268 5.28956 114.013 4.89227C114.757 4.49498 115.61 4.29634 116.57 4.29634C117.712 4.29634 118.747 4.58603 119.674 5.16541C120.601 5.74479 121.329 6.57248 121.859 7.64847C122.405 8.72447 122.678 9.97428 122.678 11.3979C122.678 12.8215 122.405 14.0796 121.859 15.1722C121.329 16.2481 120.601 17.0841 119.674 17.68C118.747 18.2594 117.712 18.5491 116.57 18.5491C115.593 18.5491 114.741 18.3588 114.013 17.978C113.284 17.5807 112.713 17.0593 112.299 16.4137V18.3505H108.053V0.919372H112.299V6.4566ZM118.358 11.3979C118.358 10.3385 118.06 9.51077 117.464 8.91484C116.885 8.30235 116.165 7.9961 115.304 7.9961C114.46 7.9961 113.739 8.30235 113.143 8.91484C112.564 9.52733 112.274 10.3633 112.274 11.4227C112.274 12.4822 112.564 13.3181 113.143 13.9306C113.739 14.5431 114.46 14.8494 115.304 14.8494C116.148 14.8494 116.868 14.5431 117.464 13.9306C118.06 13.3016 118.358 12.4573 118.358 11.3979Z" fill="#091D3E"/>
<path d="M137.967 11.1993C137.967 11.5965 137.942 12.0104 137.892 12.4408H128.283C128.349 13.3016 128.622 13.9637 129.102 14.4272C129.599 14.8742 130.203 15.0977 130.915 15.0977C131.974 15.0977 132.711 14.6507 133.125 13.7568H137.644C137.412 14.6673 136.99 15.4867 136.378 16.215C135.782 16.9434 135.029 17.5145 134.118 17.9284C133.208 18.3422 132.19 18.5491 131.064 18.5491C129.707 18.5491 128.498 18.2594 127.439 17.68C126.379 17.1007 125.552 16.273 124.956 15.197C124.36 14.121 124.062 12.8629 124.062 11.4227C124.062 9.98255 124.351 8.72447 124.931 7.64847C125.527 6.57248 126.354 5.74479 127.414 5.16541C128.473 4.58603 129.69 4.29634 131.064 4.29634C132.405 4.29634 133.597 4.57775 134.64 5.14058C135.683 5.70341 136.494 6.50627 137.073 7.54915C137.669 8.59204 137.967 9.80874 137.967 11.1993ZM133.622 10.0819C133.622 9.35351 133.373 8.77413 132.877 8.34373C132.38 7.91333 131.759 7.69814 131.014 7.69814C130.303 7.69814 129.698 7.90506 129.202 8.3189C128.722 8.73275 128.424 9.3204 128.308 10.0819H133.622Z" fill="#091D3E"/>
<path d="M65.9595 21.4509V38.882H61.7134V28.4283L57.815 38.882H54.3884L50.4652 28.4035V38.882H46.2191V21.4509H51.2349L56.1265 33.5186L60.9685 21.4509H65.9595Z" fill="#091D3E"/>
<path d="M68.1686 31.9294C68.1686 30.5058 68.4335 29.256 68.9632 28.18C69.5095 27.104 70.2461 26.2763 71.1731 25.6969C72.1001 25.1176 73.1348 24.8279 74.277 24.8279C75.2536 24.8279 76.1061 25.0265 76.8345 25.4238C77.5794 25.8211 78.1505 26.3425 78.5478 26.9881V25.0265H82.7939V38.882H78.5478V36.9204C78.134 37.566 77.5546 38.0874 76.8097 38.4847C76.0813 38.882 75.2288 39.0807 74.2521 39.0807C73.1265 39.0807 72.1001 38.791 71.1731 38.2116C70.2461 37.6156 69.5095 36.7797 68.9632 35.7037C68.4335 34.6111 68.1686 33.3531 68.1686 31.9294ZM78.5478 31.9543C78.5478 30.8948 78.2499 30.0589 77.6539 29.4464C77.0745 28.8339 76.3627 28.5276 75.5185 28.5276C74.6743 28.5276 73.9542 28.8339 73.3582 29.4464C72.7788 30.0423 72.4892 30.87 72.4892 31.9294C72.4892 32.9889 72.7788 33.8331 73.3582 34.4622C73.9542 35.0746 74.6743 35.3809 75.5185 35.3809C76.3627 35.3809 77.0745 35.0746 77.6539 34.4622C78.2499 33.8497 78.5478 33.0137 78.5478 31.9543Z" fill="#091D3E"/>
<path d="M88.0011 23.5863C87.2562 23.5863 86.6437 23.3711 86.1637 22.9407C85.7001 22.4938 85.4684 21.9475 85.4684 21.3019C85.4684 20.6398 85.7001 20.0935 86.1637 19.6631C86.6437 19.2161 87.2562 18.9927 88.0011 18.9927C88.7295 18.9927 89.3254 19.2161 89.7889 19.6631C90.269 20.0935 90.509 20.6398 90.509 21.3019C90.509 21.9475 90.269 22.4938 89.7889 22.9407C89.3254 23.3711 88.7295 23.5863 88.0011 23.5863ZM90.1117 25.0265V38.882H85.8657V25.0265H90.1117Z" fill="#091D3E"/>
<path d="M98.8253 39.0807C97.6169 39.0807 96.5409 38.8737 95.5974 38.4599C94.6538 38.046 93.9089 37.4832 93.3626 36.7714C92.8163 36.043 92.5101 35.2319 92.4439 34.338H96.6402C96.6899 34.8181 96.9134 35.2071 97.3107 35.505C97.708 35.803 98.1963 35.952 98.7757 35.952C99.3054 35.952 99.711 35.8527 99.9924 35.654C100.29 35.4388 100.439 35.1657 100.439 34.8346C100.439 34.4373 100.232 34.1476 99.8186 33.9655C99.4047 33.7669 98.7343 33.5517 97.8073 33.32C96.8141 33.0882 95.9864 32.8482 95.3242 32.5999C94.6621 32.335 94.091 31.9294 93.6109 31.3832C93.1308 30.8203 92.8908 30.0671 92.8908 29.1236C92.8908 28.329 93.106 27.6089 93.5364 26.9633C93.9834 26.3012 94.629 25.7797 95.4732 25.399C96.334 25.0182 97.3521 24.8279 98.5274 24.8279C100.266 24.8279 101.631 25.2583 102.624 26.1191C103.634 26.9799 104.214 28.1221 104.363 29.5457H100.439C100.373 29.0656 100.158 28.6849 99.7937 28.4035C99.4461 28.1221 98.9826 27.9814 98.4032 27.9814C97.9066 27.9814 97.5259 28.0807 97.261 28.2793C96.9962 28.4614 96.8637 28.718 96.8637 29.0491C96.8637 29.4464 97.0706 29.7443 97.4845 29.943C97.9149 30.1416 98.577 30.3403 99.4709 30.5389C100.497 30.8038 101.333 31.0686 101.979 31.3335C102.624 31.5818 103.187 31.9957 103.667 32.575C104.164 33.1379 104.421 33.8993 104.437 34.8595C104.437 35.6706 104.205 36.3989 103.742 37.0445C103.295 37.6736 102.641 38.1702 101.78 38.5344C100.936 38.8986 99.951 39.0807 98.8253 39.0807Z" fill="#091D3E"/>
</svg>
