<svg width="32" height="32" viewBox="0 0 32 32" fill="none" xmlns="http://www.w3.org/2000/svg">
<path d="M16.0126 31.8228C15.9056 31.8241 15.8003 31.7956 15.7085 31.7404L1.13736 23.8276C1.03738 23.7729 0.954008 23.6923 0.89603 23.5941C0.838052 23.496 0.807614 23.3841 0.807925 23.2701C0.807614 23.1562 0.838052 23.0442 0.89603 22.9461C0.954008 22.848 1.03738 22.7673 1.13736 22.7126L7.58669 19.2092C7.6599 19.1676 7.74059 19.1408 7.82415 19.1304C7.90771 19.12 7.9925 19.1261 8.07368 19.1485C8.15487 19.1709 8.23085 19.209 8.2973 19.2607C8.36375 19.3124 8.41936 19.3767 8.46096 19.4499C8.50256 19.5231 8.52933 19.6038 8.53974 19.6874C8.55016 19.771 8.54401 19.8557 8.52166 19.9369C8.4993 20.0181 8.46118 20.0941 8.40945 20.1605C8.35773 20.227 8.29343 20.2826 8.22022 20.3242L2.80354 23.2701L16.0126 30.467L29.2471 23.2701L23.8747 20.3495C23.8015 20.3079 23.7372 20.2523 23.6855 20.1859C23.6338 20.1194 23.5956 20.0435 23.5733 19.9623C23.5509 19.8811 23.5448 19.7963 23.5552 19.7127C23.5656 19.6292 23.5924 19.5485 23.634 19.4753C23.718 19.3274 23.8573 19.219 24.0213 19.1738C24.1024 19.1515 24.1872 19.1453 24.2708 19.1558C24.3544 19.1662 24.435 19.1929 24.5083 19.2345L30.8752 22.7126C30.9752 22.7673 31.0586 22.848 31.1166 22.9461C31.1745 23.0442 31.205 23.1562 31.2047 23.2701C31.205 23.3841 31.1745 23.496 31.1166 23.5941C31.0586 23.6923 30.9752 23.7729 30.8752 23.8276L16.3041 31.7404C16.2156 31.7925 16.1152 31.8209 16.0126 31.8228Z" fill="#03132E"/>
<path d="M16.0126 24.6764C15.9065 24.677 15.8019 24.6508 15.7085 24.6004L1.13737 16.6813C1.03679 16.627 0.952778 16.5465 0.894222 16.4484C0.835665 16.3502 0.804749 16.2381 0.804749 16.1238C0.804749 16.0095 0.835665 15.8973 0.894222 15.7992C0.952778 15.701 1.03679 15.6206 1.13737 15.5663L7.7134 11.9932C7.7862 11.9516 7.86648 11.9247 7.94965 11.9142C8.03282 11.9036 8.11727 11.9095 8.19816 11.9316C8.27905 11.9536 8.3548 11.9914 8.42109 12.0427C8.48738 12.0941 8.54291 12.158 8.58451 12.2308C8.6261 12.3035 8.65295 12.3838 8.66353 12.467C8.6741 12.5502 8.66819 12.6346 8.64613 12.7155C8.62407 12.7964 8.58629 12.8721 8.53496 12.9384C8.48362 13.0047 8.41973 13.0603 8.34693 13.1019L2.77821 16.1238L16.0126 23.3207L29.2471 16.1238L23.9064 13.2222C23.7586 13.1382 23.6501 12.9989 23.605 12.835C23.5598 12.671 23.5817 12.4958 23.6657 12.348C23.7497 12.2001 23.889 12.0917 24.0529 12.0465C24.2169 12.0014 24.3921 12.0232 24.5399 12.1072L30.8752 15.5663C30.9758 15.6206 31.0598 15.701 31.1184 15.7992C31.1769 15.8973 31.2079 16.0095 31.2079 16.1238C31.2079 16.2381 31.1769 16.3502 31.1184 16.4484C31.0598 16.5465 30.9758 16.627 30.8752 16.6813L16.3041 24.6004C16.2144 24.6488 16.1145 24.6749 16.0126 24.6764Z" fill="#10A372"/>
<path d="M16.0126 17.5303C15.9065 17.5308 15.8019 17.5047 15.7085 17.4543L1.13736 9.53515C1.03738 9.48045 0.954008 9.39979 0.89603 9.30167C0.838052 9.20356 0.807614 9.09162 0.807925 8.97765C0.807614 8.86368 0.838052 8.75174 0.89603 8.65362C0.954008 8.55551 1.03738 8.47485 1.13736 8.42014L15.7085 0.507362C15.8048 0.451758 15.9141 0.422485 16.0253 0.422485C16.1365 0.422485 16.2458 0.451758 16.3421 0.507362L30.9132 8.42014C31.0132 8.47485 31.0966 8.55551 31.1546 8.65362C31.2125 8.75174 31.243 8.86368 31.2427 8.97765C31.243 9.09162 31.2125 9.20356 31.1546 9.30167C31.0966 9.39979 31.0132 9.48045 30.9132 9.53515L16.3421 17.4543C16.2412 17.509 16.1273 17.5353 16.0126 17.5303ZM2.7782 8.97765L16.0126 16.1745L29.2471 8.97765L16.0126 1.78076L2.7782 8.97765Z" fill="#03132E"/>
</svg>
