<svg width="51" height="51" viewBox="0 0 51 51" fill="none" xmlns="http://www.w3.org/2000/svg">
<path d="M1.89107 20.1735C1.69365 20.1725 1.50093 20.1131 1.33721 20.0028C1.17349 19.8925 1.04609 19.7361 0.971071 19.5535C0.920251 19.4321 0.89391 19.3018 0.893558 19.1701C0.893207 19.0385 0.918852 18.9081 0.969023 18.7864C1.01919 18.6647 1.0929 18.5541 1.18592 18.4609C1.27894 18.3677 1.38944 18.2939 1.51107 18.2435L6.95107 15.9735C7.07251 15.9227 7.20279 15.8964 7.33444 15.896C7.46608 15.8956 7.5965 15.9213 7.71821 15.9715C7.83992 16.0216 7.95053 16.0953 8.04369 16.1884C8.13685 16.2814 8.21072 16.3919 8.26107 16.5135C8.36059 16.7576 8.35969 17.0312 8.25856 17.2746C8.15743 17.5181 7.96426 17.7118 7.72107 17.8135L2.28107 20.0935C2.15708 20.1439 2.02488 20.171 1.89107 20.1735V20.1735Z" fill="#041C43"/>
<path d="M13.9511 20.0636C13.7481 20.0633 13.55 20.0012 13.3831 19.8856C13.2162 19.77 13.0885 19.6064 13.0168 19.4164C12.9452 19.2265 12.9331 19.0193 12.9821 18.8223C13.0311 18.6253 13.1388 18.4478 13.2911 18.3136L32.2911 1.31356C32.4875 1.1363 32.7463 1.04414 33.0105 1.05726C33.2748 1.07038 33.5231 1.18772 33.7011 1.38356L46.7911 15.9236C46.9632 16.1268 47.0524 16.3875 47.0411 16.6536C47.0269 16.9182 46.9082 17.1664 46.7111 17.3436L44.0811 19.7336C43.9856 19.8309 43.8713 19.9076 43.7451 19.9591C43.6189 20.0106 43.4835 20.0358 43.3472 20.0331C43.2109 20.0303 43.0767 19.9998 42.9526 19.9433C42.8286 19.8868 42.7174 19.8055 42.6259 19.7044C42.5344 19.6034 42.4646 19.4847 42.4206 19.3557C42.3767 19.2267 42.3596 19.09 42.3704 18.9541C42.3811 18.8183 42.4196 18.686 42.4833 18.5656C42.5471 18.4451 42.6348 18.3389 42.7411 18.2536L44.6311 16.5636L32.8911 3.42356L14.6211 19.8036C14.4377 19.9703 14.1989 20.0629 13.9511 20.0636Z" fill="#10A372"/>
<path d="M6.89105 19.4235C6.78519 19.442 6.67692 19.442 6.57105 19.4235C6.43574 19.3878 6.30944 19.324 6.20033 19.2363C6.09122 19.1487 6.00172 19.0391 5.93762 18.9147C5.87353 18.7903 5.83627 18.6538 5.82824 18.514C5.82022 18.3743 5.84162 18.2345 5.89105 18.1035L11.6111 1.56352C11.6527 1.43742 11.7191 1.32088 11.8063 1.22072C11.8935 1.12055 11.9998 1.03875 12.1189 0.980106C12.2381 0.921459 12.3677 0.887134 12.5003 0.879135C12.6329 0.871136 12.7657 0.889625 12.8911 0.933519L27.7911 5.73352C27.924 5.76657 28.0487 5.82656 28.1574 5.90979C28.2662 5.99302 28.3567 6.0977 28.4234 6.21735C28.49 6.337 28.5314 6.46906 28.5449 6.60535C28.5584 6.74164 28.5437 6.87925 28.5019 7.00965C28.46 7.14005 28.3918 7.26047 28.3015 7.36342C28.2112 7.46638 28.1007 7.54969 27.9768 7.60818C27.853 7.66667 27.7185 7.6991 27.5816 7.70346C27.4447 7.70782 27.3084 7.68401 27.1811 7.63352L13.1811 3.14352L7.80105 18.7335C7.73794 18.9277 7.61691 19.0979 7.45424 19.2212C7.29156 19.3445 7.09503 19.4151 6.89105 19.4235Z" fill="#10A372"/>
<path d="M46.7211 50.5835H1.89105C1.62584 50.5835 1.37148 50.4781 1.18394 50.2906C0.996408 50.103 0.891052 49.8487 0.891052 49.5835V19.1735C0.891052 18.9082 0.996408 18.6539 1.18394 18.4664C1.37148 18.2788 1.62584 18.1735 1.89105 18.1735H46.7211C46.9863 18.1735 47.2406 18.2788 47.4282 18.4664C47.6157 18.6539 47.7211 18.9082 47.7211 19.1735V27.7935C47.7211 28.0587 47.6157 28.313 47.4282 28.5006C47.2406 28.6881 46.9863 28.7935 46.7211 28.7935C46.4558 28.7935 46.2015 28.6881 46.0139 28.5006C45.8264 28.313 45.7211 28.0587 45.7211 27.7935V20.1735H2.89105V48.5835H45.7211V41.0635C45.7211 40.7982 45.8264 40.5439 46.0139 40.3564C46.2015 40.1688 46.4558 40.0635 46.7211 40.0635C46.9863 40.0635 47.2406 40.1688 47.4282 40.3564C47.6157 40.5439 47.7211 40.7982 47.7211 41.0635V49.5835C47.7211 49.8487 47.6157 50.103 47.4282 50.2906C47.2406 50.4781 46.9863 50.5835 46.7211 50.5835Z" fill="#041C43"/>
<path d="M49.8911 41.8635H39.1611C37.1719 41.8635 35.2643 41.0733 33.8578 39.6668C32.4512 38.2603 31.6611 36.3526 31.6611 34.3635C31.6611 32.3744 32.4512 30.4667 33.8578 29.0602C35.2643 27.6537 37.1719 26.8635 39.1611 26.8635H49.8911C50.1563 26.8635 50.4106 26.9689 50.5982 27.1564C50.7857 27.344 50.8911 27.5983 50.8911 27.8635V40.8635C50.8911 41.1287 50.7857 41.3831 50.5982 41.5706C50.4106 41.7582 50.1563 41.8635 49.8911 41.8635ZM39.1611 28.8635C37.7024 28.8635 36.3034 29.443 35.272 30.4744C34.2405 31.5059 33.6611 32.9048 33.6611 34.3635C33.6611 35.8222 34.2405 37.2212 35.272 38.2526C36.3034 39.2841 37.7024 39.8635 39.1611 39.8635H48.8911V28.8635H39.1611Z" fill="#041C43"/>
<path d="M39.1211 37.5435C38.4941 37.5435 37.8812 37.3576 37.3599 37.0092C36.8386 36.6609 36.4323 36.1658 36.1924 35.5866C35.9524 35.0074 35.8896 34.37 36.012 33.7551C36.1343 33.1401 36.4362 32.5753 36.8795 32.132C37.3229 31.6886 37.8877 31.3867 38.5026 31.2644C39.1175 31.1421 39.7549 31.2049 40.3342 31.4448C40.9134 31.6847 41.4085 32.091 41.7568 32.6123C42.1051 33.1336 42.2911 33.7465 42.2911 34.3735C42.2911 35.2142 41.9571 36.0205 41.3626 36.615C40.7681 37.2095 39.9618 37.5435 39.1211 37.5435ZM39.1211 33.2035C38.8107 33.2035 38.5132 33.3268 38.2937 33.5462C38.0743 33.7656 37.9511 34.0632 37.9511 34.3735C37.9511 34.6838 38.0743 34.9814 38.2937 35.2008C38.5132 35.4202 38.8107 35.5435 39.1211 35.5435C39.4314 35.5435 39.7289 35.4202 39.9484 35.2008C40.1678 34.9814 40.2911 34.6838 40.2911 34.3735C40.2911 34.0632 40.1678 33.7656 39.9484 33.5462C39.7289 33.3268 39.4314 33.2035 39.1211 33.2035Z" fill="#10A372"/>
<path d="M9.21106 43.2635C8.94584 43.2635 8.69149 43.1581 8.50395 42.9706C8.31642 42.7831 8.21106 42.5287 8.21106 42.2635V25.5935C8.21106 25.3283 8.31642 25.0739 8.50395 24.8864C8.69149 24.6989 8.94584 24.5935 9.21106 24.5935C9.47628 24.5935 9.73063 24.6989 9.91817 24.8864C10.1057 25.0739 10.2111 25.3283 10.2111 25.5935V42.2635C10.2111 42.5287 10.1057 42.7831 9.91817 42.9706C9.73063 43.1581 9.47628 43.2635 9.21106 43.2635Z" fill="#041C43"/>
</svg>
