<svg width="32" height="32" viewBox="0 0 32 32" fill="none" xmlns="http://www.w3.org/2000/svg">
<path d="M25.7117 20.1657H6.83889C5.17422 20.1134 3.59525 19.4153 2.43623 18.2193C1.2772 17.0232 0.629089 15.4231 0.629089 13.7576C0.629089 12.0921 1.2772 10.492 2.43623 9.29592C3.59525 8.09988 5.17422 7.40179 6.83889 7.34945C7.31205 7.35134 7.7836 7.40444 8.24533 7.50783C8.45877 5.55264 9.38819 3.7456 10.8546 2.43484C12.3209 1.12408 14.2205 0.402316 16.1872 0.40861C18.154 0.414904 20.0489 1.1488 21.5069 2.46893C22.9648 3.78905 23.8826 5.602 24.0836 7.55851C24.6108 7.41959 25.1538 7.34932 25.6991 7.34945C27.3637 7.40179 28.9427 8.09988 30.1017 9.29592C31.2608 10.492 31.9089 12.0921 31.9089 13.7576C31.9089 15.4231 31.2608 17.0232 30.1017 18.2193C28.9427 19.4153 27.3637 20.1134 25.6991 20.1657H25.7117ZM6.83889 8.6165C5.50662 8.66328 4.24454 9.22541 3.31859 10.1844C2.39264 11.1435 1.87513 12.4245 1.87513 13.7576C1.87513 15.0907 2.39264 16.3717 3.31859 17.3307C4.24454 18.2898 5.50662 18.8519 6.83889 18.8987H25.7117C27.044 18.8519 28.3061 18.2898 29.232 17.3307C30.158 16.3717 30.6755 15.0907 30.6755 13.7576C30.6755 12.4245 30.158 11.1435 29.232 10.1844C28.3061 9.22541 27.044 8.66328 25.7117 8.6165C25.0349 8.61665 24.365 8.75236 23.7415 9.01563C23.646 9.05481 23.5425 9.0701 23.4398 9.06016C23.3371 9.05022 23.2384 9.01536 23.1523 8.95861C23.0642 8.90063 22.992 8.8216 22.9423 8.72867C22.8925 8.63574 22.8667 8.53186 22.8672 8.42644V8.31241C22.8136 6.57123 22.0843 4.9193 20.8338 3.7066C19.5832 2.4939 17.9096 1.81571 16.1676 1.81571C14.4256 1.81571 12.752 2.4939 11.5015 3.7066C10.2509 4.9193 9.52159 6.57123 9.46804 8.31241C9.46994 8.41668 9.44607 8.51981 9.39855 8.61264C9.35103 8.70548 9.28132 8.78514 9.19562 8.84457C9.11294 8.90549 9.01668 8.9454 8.91514 8.96085C8.81361 8.9763 8.70984 8.96684 8.61278 8.93327C8.04479 8.72388 7.44424 8.61664 6.83889 8.6165Z" fill="#10A372"/>
<path d="M6.8325 31.8987C6.66448 31.8987 6.50334 31.832 6.38453 31.7131C6.26572 31.5943 6.19897 31.4332 6.19897 31.2652V26.5644C6.19925 26.4775 6.2174 26.3916 6.25227 26.3121C6.28715 26.2325 6.33801 26.161 6.4017 26.1019L9.15755 23.5298V15.4016C9.15755 15.2336 9.2243 15.0724 9.34311 14.9536C9.46192 14.8348 9.62306 14.7681 9.79108 14.7681C9.95911 14.7681 10.1202 14.8348 10.2391 14.9536C10.3579 15.0724 10.4246 15.2336 10.4246 15.4016V23.8085C10.4251 23.8949 10.408 23.9805 10.3742 24.0601C10.3405 24.1396 10.2908 24.2114 10.2282 24.271L7.46603 26.8431V31.2778C7.46272 31.4437 7.39451 31.6016 7.27605 31.7176C7.1576 31.8337 6.99835 31.8987 6.8325 31.8987Z" fill="#03132E"/>
<path d="M25.7243 31.8987C25.5563 31.8987 25.3952 31.832 25.2764 31.7131C25.1575 31.5943 25.0908 31.4332 25.0908 31.2652V27.3563L22.3286 24.7842C22.2661 24.7245 22.2164 24.6528 22.1826 24.5732C22.1488 24.4937 22.1317 24.4081 22.1322 24.3217V15.4016C22.1322 15.2336 22.199 15.0724 22.3178 14.9536C22.4366 14.8348 22.5977 14.7681 22.7657 14.7681C22.9338 14.7681 23.0949 14.8348 23.2137 14.9536C23.3325 15.0724 23.3993 15.2336 23.3993 15.4016V24.0493L26.1551 26.6214C26.2188 26.6805 26.2697 26.752 26.3046 26.8316C26.3394 26.9111 26.3576 26.997 26.3579 27.0839V31.2652C26.3579 31.3484 26.3415 31.4307 26.3096 31.5076C26.2778 31.5845 26.2311 31.6543 26.1723 31.7131C26.1135 31.772 26.0436 31.8186 25.9668 31.8505C25.8899 31.8823 25.8075 31.8987 25.7243 31.8987Z" fill="#03132E"/>
<path d="M16.2784 31.8987C16.1104 31.8987 15.9493 31.832 15.8305 31.7132C15.7116 31.5944 15.6449 31.4332 15.6449 31.2652V10.8592C15.6449 10.6912 15.7116 10.5301 15.8305 10.4113C15.9493 10.2925 16.1104 10.2257 16.2784 10.2257C16.4464 10.2257 16.6076 10.2925 16.7264 10.4113C16.8452 10.5301 16.912 10.6912 16.912 10.8592V31.2652C16.912 31.4332 16.8452 31.5944 16.7264 31.7132C16.6076 31.832 16.4464 31.8987 16.2784 31.8987Z" fill="#03132E"/>
<path d="M9.74042 15.7375C9.26527 15.7375 8.80079 15.5965 8.4058 15.3324C8.01081 15.0682 7.70306 14.6929 7.52152 14.2538C7.33998 13.8147 7.2928 13.3316 7.38596 12.8656C7.47912 12.3997 7.70843 11.9719 8.04486 11.6363C8.38129 11.3008 8.80971 11.0726 9.27589 10.9807C9.74207 10.8887 10.225 10.9372 10.6637 11.1199C11.1023 11.3026 11.4769 11.6113 11.7399 12.007C12.003 12.4027 12.1428 12.8676 12.1415 13.3427C12.1398 13.9784 11.8861 14.5875 11.436 15.0364C10.9859 15.4854 10.3761 15.7375 9.74042 15.7375ZM9.74042 12.2087C9.51614 12.2087 9.29688 12.2752 9.1104 12.3998C8.92391 12.5244 8.77856 12.7015 8.69273 12.9087C8.6069 13.116 8.58444 13.344 8.6282 13.564C8.67195 13.7839 8.77996 13.986 8.93855 14.1446C9.09715 14.3032 9.29921 14.4112 9.51919 14.4549C9.73917 14.4987 9.96718 14.4762 10.1744 14.3904C10.3816 14.3046 10.5587 14.1592 10.6833 13.9727C10.8079 13.7863 10.8744 13.567 10.8744 13.3427C10.8744 13.042 10.755 12.7535 10.5423 12.5408C10.3296 12.3282 10.0412 12.2087 9.74042 12.2087Z" fill="#03132E"/>
<path d="M22.7594 15.7374C22.2838 15.7399 21.818 15.6011 21.4214 15.3385C21.0247 15.0759 20.715 14.7014 20.5315 14.2625C20.348 13.8237 20.299 13.3402 20.3908 12.8734C20.4825 12.4066 20.7108 11.9776 21.0467 11.6408C21.3826 11.304 21.811 11.0746 22.2776 10.9816C22.7441 10.8886 23.2277 10.9363 23.6671 11.1187C24.1064 11.301 24.4818 11.6097 24.7454 12.0057C25.009 12.4016 25.1491 12.867 25.1478 13.3427C25.1462 13.9762 24.8942 14.5834 24.4468 15.0319C23.9995 15.4805 23.393 15.7341 22.7594 15.7374ZM22.7594 12.2087C22.5346 12.2062 22.3142 12.2705 22.126 12.3936C21.9379 12.5167 21.7905 12.6929 21.7028 12.8999C21.615 13.1068 21.5907 13.3352 21.633 13.556C21.6753 13.7769 21.7823 13.9801 21.9404 14.14C22.0985 14.2998 22.3005 14.4091 22.5208 14.4539C22.7412 14.4987 22.9698 14.477 23.1778 14.3915C23.3857 14.3061 23.5636 14.1608 23.6888 13.974C23.8139 13.7873 23.8808 13.5675 23.8808 13.3427C23.8808 13.0441 23.7631 12.7576 23.5531 12.5453C23.3432 12.3329 23.058 12.212 22.7594 12.2087Z" fill="#03132E"/>
<path d="M16.2785 11.4927C15.8036 11.4927 15.3394 11.3519 14.9446 11.0881C14.5497 10.8242 14.2419 10.4492 14.0602 10.0105C13.8785 9.57174 13.8309 9.08897 13.9236 8.6232C14.0162 8.15744 14.2449 7.72961 14.5807 7.39381C14.9165 7.05802 15.3443 6.82934 15.8101 6.73669C16.2759 6.64404 16.7586 6.69159 17.1974 6.87332C17.6361 7.05506 18.0111 7.36281 18.2749 7.75766C18.5388 8.15252 18.6796 8.61674 18.6796 9.09163C18.6796 9.72844 18.4266 10.3392 17.9763 10.7894C17.526 11.2397 16.9153 11.4927 16.2785 11.4927ZM16.2785 7.96395C16.054 7.96395 15.8345 8.03062 15.6478 8.15551C15.4612 8.2804 15.3159 8.45789 15.2302 8.66547C15.1446 8.87305 15.1225 9.10139 15.1668 9.32154C15.211 9.54169 15.3197 9.74374 15.4789 9.90208C15.6381 10.0604 15.8408 10.1679 16.0612 10.211C16.2816 10.254 16.5098 10.2306 16.7169 10.1438C16.924 10.057 17.1007 9.91069 17.2245 9.72337C17.3483 9.53605 17.4138 9.31618 17.4125 9.09163C17.4109 8.79197 17.2906 8.50515 17.0782 8.29385C16.8657 8.08255 16.5782 7.96394 16.2785 7.96395Z" fill="#03132E"/>
</svg>
