<svg width="32" height="32" viewBox="0 0 32 32" fill="none" xmlns="http://www.w3.org/2000/svg">
<path d="M13.0294 25.5698H6.37097C6.20477 25.5691 6.0455 25.5031 5.9275 25.3861L0.263752 19.773C0.205035 19.7138 0.158581 19.6436 0.127053 19.5664C0.0955261 19.4893 0.0795456 19.4066 0.0800277 19.3232V1.24229C0.0800277 1.07427 0.146775 0.91313 0.265585 0.794321C0.384395 0.675511 0.545534 0.608765 0.713557 0.608765H18.4524C18.6204 0.608765 18.7815 0.675511 18.9003 0.794321C19.0192 0.91313 19.0859 1.07427 19.0859 1.24229V7.33685C19.0859 7.50487 19.0192 7.66601 18.9003 7.78482C18.7815 7.90363 18.6204 7.97038 18.4524 7.97038C18.2844 7.97038 18.1232 7.90363 18.0044 7.78482C17.8856 7.66601 17.8188 7.50487 17.8188 7.33685V1.87582H1.34709V19.0381L6.63705 24.2838H13.0357C13.2037 24.2838 13.3649 24.3505 13.4837 24.4693C13.6025 24.5881 13.6692 24.7493 13.6692 24.9173C13.6718 25.0026 13.6571 25.0876 13.626 25.1671C13.5949 25.2465 13.5481 25.3189 13.4883 25.3799C13.4286 25.4408 13.3571 25.4891 13.2782 25.5217C13.1994 25.5544 13.1147 25.5707 13.0294 25.5698Z" fill="#03132E"/>
<path d="M6.89684 25.1453C6.72881 25.1453 6.56767 25.0785 6.44886 24.9597C6.33005 24.8409 6.26331 24.6798 6.26331 24.5118V19.2915H0.95433C0.786308 19.2915 0.625167 19.2247 0.506357 19.1059C0.387547 18.9871 0.320801 18.826 0.320801 18.6579C0.320801 18.4899 0.387547 18.3288 0.506357 18.21C0.625167 18.0912 0.786308 18.0244 0.95433 18.0244H6.89684C7.06486 18.0244 7.226 18.0912 7.34481 18.21C7.46362 18.3288 7.53036 18.4899 7.53036 18.6579V24.5244C7.52705 24.6902 7.45884 24.8481 7.34039 24.9642C7.22194 25.0803 7.06269 25.1453 6.89684 25.1453Z" fill="#03132E"/>
<path d="M30.9393 31.639H13.2004C13.0324 31.639 12.8713 31.5722 12.7525 31.4534C12.6336 31.3346 12.5669 31.1735 12.5669 31.0055V7.28612C12.5669 7.11809 12.6336 6.95695 12.7525 6.83814C12.8713 6.71933 13.0324 6.65259 13.2004 6.65259L25.2882 6.70327C25.4544 6.70397 25.6136 6.76995 25.7316 6.88699L31.3954 12.5001C31.4541 12.5593 31.5006 12.6295 31.5321 12.7067C31.5636 12.7838 31.5796 12.8665 31.5791 12.9499V31.0055C31.5791 31.0892 31.5625 31.1721 31.5303 31.2494C31.4981 31.3266 31.4508 31.3968 31.3913 31.4557C31.3318 31.5146 31.2612 31.5611 31.1836 31.5926C31.106 31.6241 31.023 31.6398 30.9393 31.639ZM13.834 30.3719H30.3057V13.2096L25.0158 7.97033L13.8213 7.92598L13.834 30.3719Z" fill="#10A372"/>
<path d="M30.6922 14.2233H24.7497C24.5817 14.2233 24.4205 14.1565 24.3017 14.0377C24.1829 13.9189 24.1161 13.7578 24.1161 13.5898V7.73595C24.1161 7.56792 24.1829 7.40679 24.3017 7.28798C24.4205 7.16917 24.5817 7.10242 24.7497 7.10242C24.9177 7.10242 25.0788 7.16917 25.1977 7.28798C25.3165 7.40679 25.3832 7.56792 25.3832 7.73595V12.9562H30.6922C30.8602 12.9562 31.0214 13.023 31.1402 13.1418C31.259 13.2606 31.3257 13.4217 31.3257 13.5898C31.3257 13.7578 31.259 13.9189 31.1402 14.0377C31.0214 14.1565 30.8602 14.2233 30.6922 14.2233Z" fill="#10A372"/>
</svg>
