<svg width="38" height="36" viewBox="0 0 38 36" fill="none" xmlns="http://www.w3.org/2000/svg">
<path d="M20.3282 27.5886C20.2563 27.5992 20.1833 27.5992 20.1114 27.5886C19.922 27.5301 19.7637 27.3987 19.6712 27.2235C19.5786 27.0482 19.5594 26.8434 19.6179 26.654C20.6793 23.081 22.4727 19.768 24.8838 16.9257C27.2949 14.0833 30.2711 11.7737 33.6231 10.1438L33.9372 10.0167C34.0631 9.97122 34.1989 9.96044 34.3305 9.98543C34.462 10.0104 34.5844 10.0703 34.6849 10.1587L35.7841 11.1383V2.12047L26.8934 3.08506L27.9328 4.07956C28.0233 4.16139 28.0925 4.26413 28.1342 4.37883C28.1759 4.49353 28.1889 4.6167 28.172 4.73758C28.1544 4.85946 28.107 4.97511 28.034 5.07425C27.9609 5.17338 27.8645 5.25295 27.7533 5.30586L27.5066 5.41803C23.8011 7.34583 20.7569 10.3379 18.7654 14.0096C18.7247 14.1039 18.665 14.1889 18.5901 14.2591C18.5151 14.3293 18.4265 14.3833 18.3297 14.4178C18.2329 14.4523 18.1301 14.4664 18.0276 14.4594C17.9251 14.4523 17.8252 14.4242 17.734 14.3769C17.6429 14.3295 17.5624 14.2638 17.4978 14.184C17.4331 14.1042 17.3856 14.0119 17.3582 13.9129C17.3308 13.8139 17.3241 13.7103 17.3385 13.6086C17.3529 13.5068 17.3881 13.4092 17.4419 13.3217C19.4352 9.59013 22.4556 6.50752 26.1457 4.43848L24.6502 3.07011C24.5502 2.97659 24.4777 2.8574 24.4408 2.72555C24.4039 2.59369 24.4039 2.45422 24.4408 2.32236C24.4858 2.18635 24.5689 2.06611 24.6803 1.97597C24.7916 1.88583 24.9265 1.82957 25.0689 1.8139L36.5244 0.58012C36.6281 0.569421 36.7328 0.580526 36.832 0.612719C36.9312 0.644912 37.0225 0.697482 37.1001 0.767056C37.1809 0.835845 37.2451 0.922033 37.2878 1.01916C37.3306 1.11628 37.3507 1.22182 37.3469 1.32786V12.8431C37.3465 12.9876 37.3043 13.1289 37.2254 13.2499C37.1465 13.3709 37.0342 13.4665 36.9021 13.525C36.77 13.5835 36.6237 13.6025 36.4811 13.5797C36.3384 13.5569 36.2054 13.4933 36.0981 13.3965L34.0718 11.557C25.6821 15.6397 22.3097 23.0125 21.046 27.0578C20.9994 27.2117 20.9044 27.3465 20.7751 27.4421C20.6457 27.5377 20.489 27.5891 20.3282 27.5886Z" fill="#10A372"/>
<path d="M17.6065 35.926C17.5544 35.9333 17.5015 35.9333 17.4494 35.926C17.2892 35.8919 17.1446 35.8061 17.0379 35.6818C16.9312 35.5575 16.8682 35.4016 16.8587 35.2381C16.8587 35.0661 15.7745 17.7334 3.14508 11.7439L1.3131 13.3965C1.20585 13.4933 1.07284 13.5569 0.930172 13.5797C0.787502 13.6025 0.641279 13.5835 0.509185 13.525C0.37709 13.4665 0.264783 13.3709 0.185843 13.2499C0.106903 13.1289 0.064712 12.9876 0.0643713 12.8431V1.32786C0.0605022 1.22182 0.0806913 1.11628 0.123426 1.01916C0.166161 0.922033 0.230333 0.835845 0.311127 0.767056C0.388764 0.697482 0.480091 0.644912 0.579246 0.612719C0.6784 0.580526 0.78319 0.569421 0.886889 0.58012L12.3349 1.8139C12.4786 1.82821 12.6151 1.88384 12.7279 1.97407C12.8407 2.06431 12.9249 2.18528 12.9704 2.32236C13.0003 2.46224 12.9893 2.60773 12.939 2.74159C12.8886 2.87545 12.8009 2.99206 12.6863 3.07759L10.7795 4.82731C13.434 6.7191 27.3197 17.7932 18.2719 35.4848C18.214 35.6137 18.1208 35.7236 18.003 35.8017C17.8852 35.8798 17.7477 35.9229 17.6065 35.926ZM2.96562 10.0615C3.07394 10.0609 3.1811 10.0839 3.27967 10.1288L3.77318 10.3531C14.2416 15.3107 17.2326 27.0652 18.0401 32.4116C24.8446 15.6846 10.1814 6.17325 9.53081 5.76199L9.14947 5.50775C9.055 5.44431 8.97626 5.36014 8.91924 5.26166C8.86223 5.16318 8.82844 5.05298 8.82046 4.93947C8.81302 4.82642 8.83136 4.71315 8.87411 4.60822C8.91685 4.5033 8.98288 4.40946 9.06721 4.3338L10.4431 3.08506L1.47013 2.12047V11.0934L2.41977 10.2335C2.495 10.1704 2.58193 10.1227 2.67559 10.0932C2.76925 10.0637 2.8678 10.0529 2.96562 10.0615Z" fill="#03132E"/>
</svg>
