<svg width="51" height="51" viewBox="0 0 51 51" fill="none" xmlns="http://www.w3.org/2000/svg">
<path d="M14.6518 20.9975C13.5126 20.9975 12.399 20.6597 11.4518 20.0268C10.5045 19.3939 9.76626 18.4943 9.3303 17.4418C8.89434 16.3893 8.78027 15.2312 9.00252 14.1138C9.22478 12.9965 9.77336 11.9702 10.5789 11.1646C11.3845 10.3591 12.4108 9.81047 13.5281 9.58822C14.6455 9.36597 15.8036 9.48004 16.8561 9.916C17.9086 10.352 18.8082 11.0902 19.4411 12.0375C20.074 12.9847 20.4118 14.0983 20.4118 15.2375C20.4118 16.7652 19.805 18.2303 18.7248 19.3105C17.6446 20.3907 16.1795 20.9975 14.6518 20.9975ZM14.6518 11.4775C13.9082 11.4775 13.1812 11.6981 12.5629 12.1112C11.9446 12.5244 11.4626 13.1116 11.1781 13.7987C10.8935 14.4857 10.819 15.2417 10.9641 15.9711C11.1092 16.7005 11.4673 17.3704 11.9931 17.8963C12.519 18.4221 13.1889 18.7802 13.9183 18.9253C14.6477 19.0704 15.4037 18.9959 16.0907 18.7113C16.7778 18.4267 17.365 17.9448 17.7782 17.3265C18.1913 16.7082 18.4118 15.9812 18.4118 15.2375C18.4118 14.7438 18.3146 14.2548 18.1256 13.7987C17.9367 13.3425 17.6597 12.928 17.3106 12.5788C16.9614 12.2297 16.5469 11.9527 16.0907 11.7638C15.6346 11.5748 15.1456 11.4775 14.6518 11.4775Z" fill="#10A372"/>
<path d="M13.7419 29.5776C13.3676 29.5803 12.9965 29.5091 12.6497 29.3683C12.3029 29.2276 11.9872 29.0198 11.7207 28.757C11.4542 28.4942 11.2421 28.1815 11.0965 27.8368C10.9508 27.492 10.8745 27.1219 10.8719 26.7476C10.875 26.575 10.8262 26.4054 10.7317 26.261C10.6371 26.1165 10.5013 26.0038 10.3419 25.9376L10.1919 25.8776C10.036 25.8104 9.86332 25.7926 9.69703 25.8266C9.53074 25.8605 9.37887 25.9447 9.26188 26.0676C8.7206 26.6044 7.98918 26.9056 7.22688 26.9056C6.46457 26.9056 5.73315 26.6044 5.19188 26.0676L3.87188 24.7476C3.33572 24.208 3.03479 23.4783 3.03479 22.7176C3.03479 21.957 3.33572 21.2272 3.87188 20.6876C3.99944 20.5694 4.08719 20.4146 4.12301 20.2444C4.15884 20.0743 4.14097 19.8972 4.07188 19.7376V19.6376C4.00967 19.4723 3.89914 19.3295 3.75468 19.2278C3.61022 19.1262 3.4385 19.0704 3.26188 19.0676V19.0676C2.51077 19.0611 1.79237 18.7594 1.26188 18.2276C0.99632 17.9665 0.785308 17.6553 0.641104 17.3119C0.496899 16.9686 0.422378 16.6 0.421875 16.2276V14.3376C0.427842 13.5884 0.725576 12.8709 1.25187 12.3376C1.78175 11.8049 2.50055 11.503 3.25187 11.4976C3.42815 11.4999 3.60114 11.4498 3.74891 11.3537C3.89667 11.2576 4.01256 11.1197 4.08187 10.9576L4.14188 10.8176C4.20713 10.6598 4.2239 10.4861 4.19007 10.3187C4.15623 10.1513 4.07331 9.99773 3.95188 9.87762C3.41724 9.34734 3.10897 8.63045 3.09188 7.87762C3.0973 7.12629 3.39919 6.4075 3.93188 5.87762L5.24187 4.54762C5.77317 4.01577 6.49024 3.71102 7.24187 3.69762V3.69762C7.99298 3.70412 8.71138 4.00585 9.24187 4.53762C9.36005 4.66519 9.5149 4.75294 9.68506 4.78876C9.85522 4.82458 10.0323 4.80671 10.1919 4.73762L10.3319 4.67762C10.4905 4.61615 10.6265 4.50739 10.7213 4.36608C10.8161 4.22478 10.8652 4.05775 10.8619 3.88762C10.8391 3.49574 10.8975 3.10338 11.0334 2.73513C11.1694 2.36688 11.3799 2.03069 11.6519 1.74762C11.9125 1.4807 12.2234 1.26813 12.5667 1.12223C12.91 0.976325 13.2789 0.89998 13.6519 0.897618H15.5319C15.9091 0.893659 16.2834 0.964381 16.6333 1.10571C16.9831 1.24704 17.3014 1.45618 17.5701 1.72109C17.8387 1.986 18.0523 2.30145 18.1985 2.64925C18.3446 2.99705 18.4206 3.37034 18.4219 3.74762C18.4152 3.9222 18.4626 4.09458 18.5574 4.24131C18.6522 4.38803 18.79 4.50197 18.9519 4.56762L19.1019 4.62762C19.2567 4.69606 19.4288 4.71549 19.5951 4.68332C19.7613 4.65114 19.9137 4.5689 20.0319 4.44762C20.5591 3.9085 21.2779 3.59942 22.0319 3.58762C22.782 3.5893 23.501 3.88768 24.0319 4.41762L25.4319 5.74762C25.9674 6.28549 26.2681 7.0136 26.2681 7.77262C26.2681 8.53164 25.9674 9.25975 25.4319 9.79762C25.2962 9.92116 25.2036 10.0849 25.1677 10.2648C25.1317 10.4447 25.1542 10.6314 25.2319 10.7976L25.2919 10.9476C25.3583 11.102 25.4686 11.2336 25.609 11.326C25.7494 11.4184 25.9138 11.4676 26.0819 11.4676V11.4676C26.8309 11.4746 27.548 11.7722 28.0819 12.2976C28.6146 12.8275 28.9165 13.5463 28.9219 14.2976V16.1576C28.9232 16.5345 28.8503 16.908 28.7072 17.2567C28.5642 17.6054 28.3539 17.9225 28.0883 18.1899C27.8228 18.4574 27.5071 18.6699 27.1594 18.8153C26.8117 18.9608 26.4388 19.0363 26.0619 19.0376C25.8784 19.0386 25.6996 19.0957 25.5495 19.2011C25.3994 19.3066 25.2851 19.4554 25.2219 19.6276C25.1452 19.7905 25.1185 19.9724 25.1452 20.1504C25.1719 20.3284 25.2508 20.4945 25.3719 20.6276C25.6386 20.8941 25.8501 21.2106 25.9945 21.5589C26.1388 21.9072 26.2131 22.2806 26.2131 22.6576C26.2131 23.0347 26.1388 23.408 25.9945 23.7563C25.8501 24.1046 25.6386 24.4211 25.3719 24.6876L24.0519 26.0176C23.5206 26.5495 22.8035 26.8542 22.0519 26.8676C21.3026 26.8617 20.5852 26.5639 20.0519 26.0376C19.9278 25.9029 19.7647 25.8103 19.5855 25.7726C19.4062 25.735 19.2197 25.7542 19.0519 25.8276L18.9419 25.8776C18.7784 25.9385 18.6373 26.0475 18.5373 26.1904C18.4373 26.3333 18.3831 26.5032 18.3819 26.6776C18.3846 27.4389 18.0868 28.1706 17.5531 28.7136C17.0195 29.2566 16.2931 29.5671 15.5319 29.5776H13.7419ZM11.0819 24.0476C11.6103 24.2579 12.0634 24.6219 12.3825 25.0926C12.7016 25.5633 12.8721 26.1189 12.8719 26.6876C12.8685 26.8056 12.8889 26.9231 12.9318 27.033C12.9748 27.143 13.0394 27.2432 13.1219 27.3276C13.2033 27.4086 13.3001 27.4724 13.4066 27.5153C13.5131 27.5583 13.6271 27.5794 13.7419 27.5776H15.6119C15.8409 27.575 16.0596 27.4822 16.2206 27.3193C16.3816 27.1564 16.4719 26.9366 16.4719 26.7076C16.4671 26.1315 16.6377 25.5676 16.961 25.0907C17.2843 24.6138 17.745 24.2465 18.2819 24.0376H18.4019C18.9205 23.8134 19.4947 23.7507 20.0495 23.8577C20.6043 23.9647 21.1139 24.2365 21.5119 24.6376C21.5942 24.725 21.6933 24.7949 21.8033 24.843C21.9132 24.8912 22.0318 24.9165 22.1519 24.9176C22.3774 24.8971 22.5908 24.8061 22.7619 24.6576L24.0819 23.3276C24.2419 23.1649 24.3316 22.9458 24.3316 22.7176C24.3316 22.4894 24.2419 22.2703 24.0819 22.1076C23.7042 21.6873 23.453 21.1688 23.3571 20.6119C23.2612 20.055 23.3245 19.4824 23.5397 18.9599C23.755 18.4374 24.1134 17.9864 24.5738 17.6587C25.0342 17.331 25.5777 17.14 26.1419 17.1076C26.2608 17.1115 26.3792 17.0904 26.4895 17.0456C26.5997 17.0008 26.6993 16.9333 26.7819 16.8476C26.8616 16.7674 26.9247 16.6722 26.9676 16.5675C27.0105 16.4628 27.0324 16.3507 27.0319 16.2376V14.2776C27.0324 14.1645 27.0105 14.0524 26.9676 13.9477C26.9247 13.843 26.8616 13.7479 26.7819 13.6676C26.6186 13.5084 26.3999 13.4188 26.1719 13.4176C25.6035 13.4228 25.0467 13.2568 24.5741 12.9411C24.1014 12.6254 23.7348 12.1747 23.5219 11.6476L23.4719 11.5276C23.2473 11.0057 23.1845 10.4285 23.2914 9.87052C23.3984 9.31255 23.6703 8.79947 24.0719 8.39762C24.1554 8.31737 24.2218 8.22109 24.2671 8.11455C24.3125 8.00802 24.3359 7.89341 24.3359 7.77762C24.3359 7.66182 24.3125 7.54722 24.2671 7.44068C24.2218 7.33414 24.1554 7.23787 24.0719 7.15762L22.7419 5.83762C22.6616 5.75788 22.5665 5.69475 22.4618 5.65185C22.3571 5.60895 22.245 5.58712 22.1319 5.58762V5.58762C22.0188 5.58712 21.9066 5.60895 21.802 5.65185C21.6973 5.69475 21.6021 5.75788 21.5219 5.83762C21.1237 6.24798 20.611 6.52861 20.0508 6.6428C19.4905 6.75699 18.9089 6.69942 18.3819 6.47762L18.2419 6.41762C17.7204 6.20552 17.2737 5.84321 16.9585 5.37672C16.6434 4.91022 16.474 4.36059 16.4719 3.79762C16.4759 3.68087 16.4564 3.56451 16.4145 3.45546C16.3725 3.34642 16.3091 3.24694 16.2279 3.16295C16.1467 3.07896 16.0494 3.01218 15.9419 2.96659C15.8343 2.92101 15.7187 2.89755 15.6019 2.89762H13.6819C13.568 2.89787 13.4553 2.92102 13.3505 2.96568C13.2457 3.01035 13.1509 3.07562 13.0719 3.15762C12.9921 3.23786 12.929 3.33304 12.8861 3.43771C12.8432 3.54239 12.8214 3.6545 12.8219 3.76762C12.8311 4.33938 12.667 4.90054 12.351 5.37716C12.0351 5.85379 11.5821 6.22351 11.0519 6.43762H10.9519C10.4297 6.66561 9.85102 6.73126 9.29104 6.62604C8.73106 6.52082 8.21568 6.2496 7.81187 5.84762C7.73148 5.76049 7.63413 5.6907 7.52579 5.64255C7.41746 5.5944 7.30042 5.5689 7.18188 5.56762V5.56762C6.95371 5.57731 6.73688 5.66973 6.57188 5.82762L5.28188 7.19762C5.19894 7.27597 5.13305 7.37057 5.08831 7.47553C5.04358 7.58048 5.02096 7.69353 5.02188 7.80762C5.0297 8.0362 5.1224 8.25367 5.28188 8.41762C5.68937 8.81765 5.9673 9.33088 6.07963 9.89076C6.19197 10.4506 6.13352 11.0314 5.91187 11.5576L5.86188 11.6676C5.65269 12.1955 5.29058 12.6489 4.82199 12.9696C4.3534 13.2903 3.79969 13.4637 3.23188 13.4676C3.11229 13.4635 2.99309 13.4834 2.88141 13.5264C2.76972 13.5694 2.66785 13.6344 2.58187 13.7176C2.42265 13.8809 2.33302 14.0996 2.33187 14.3276V16.1976C2.33148 16.4289 2.42114 16.6513 2.58187 16.8176C2.66211 16.8974 2.75729 16.9605 2.86197 17.0034C2.96664 17.0463 3.07875 17.0681 3.19188 17.0676V17.0676C3.76135 17.0631 4.31911 17.2293 4.79323 17.5448C5.26735 17.8603 5.63609 18.3106 5.85188 18.8376L4.97188 19.3376L5.89188 18.9476C6.11918 19.469 6.18351 20.0469 6.07643 20.6055C5.96935 21.1641 5.69587 21.6773 5.29188 22.0776C5.20933 22.1594 5.14382 22.2568 5.0991 22.3641C5.05439 22.4713 5.03137 22.5864 5.03137 22.7026C5.03137 22.8188 5.05439 22.9339 5.0991 23.0412C5.14382 23.1485 5.20933 23.2458 5.29188 23.3276L6.61188 24.6376C6.77502 24.8007 6.99623 24.8923 7.22688 24.8923C7.45752 24.8923 7.67874 24.8007 7.84188 24.6376C8.24071 24.2316 8.7516 23.9539 9.30918 23.8398C9.86677 23.7258 10.4457 23.7808 10.9719 23.9976L10.7219 24.9976L11.0819 24.0476Z" fill="#041C43"/>
<path d="M36.3818 42.4776H36.2818C34.6971 42.4578 33.1846 41.8118 32.0746 40.6807C30.9645 39.5496 30.347 38.0253 30.3569 36.4405C30.3668 34.8558 31.0033 33.3393 32.1274 32.2221C33.2516 31.105 34.772 30.478 36.3568 30.478C37.9416 30.478 39.462 31.105 40.5862 32.2221C41.7103 33.3393 42.3468 34.8558 42.3567 36.4405C42.3666 38.0253 41.7491 39.5496 40.639 40.6807C39.529 41.8118 38.0165 42.4578 36.4318 42.4776H36.3818ZM36.3818 32.9576C35.646 32.9567 34.926 33.1718 34.3113 33.5762C33.6965 33.9806 33.2139 34.5565 32.9232 35.2325C32.6326 35.9085 32.5467 36.6549 32.6762 37.3793C32.8057 38.1037 33.1449 38.7741 33.6518 39.3076C33.9908 39.6671 34.3979 39.9556 34.8494 40.1565C35.3009 40.3573 35.7878 40.4665 36.2818 40.4776C37.279 40.5041 38.2459 40.1334 38.9698 39.447C39.6937 38.7606 40.1153 37.8148 40.1418 36.8176C40.1683 35.8203 39.7976 34.8534 39.1112 34.1295C38.4249 33.4057 37.479 32.9841 36.4818 32.9576H36.3818Z" fill="#10A372"/>
<path d="M33.0419 50.5976C32.6999 50.5937 32.3614 50.5294 32.0419 50.4076L30.2819 49.7476C29.9296 49.6117 29.6078 49.4074 29.3349 49.1465C29.062 48.8857 28.8435 48.5733 28.6919 48.2276C28.4018 47.5229 28.4018 46.7322 28.6919 46.0276C28.7712 45.8617 28.7946 45.6746 28.7585 45.4942C28.7224 45.3139 28.6289 45.1502 28.4919 45.0276L28.3919 44.9276C28.2631 44.7995 28.0979 44.7144 27.9188 44.684C27.7398 44.6536 27.5557 44.6793 27.3919 44.7576C27.0466 44.9105 26.6745 44.9938 26.297 45.0027C25.9194 45.0115 25.5438 44.9458 25.1918 44.8092C24.8397 44.6727 24.518 44.468 24.2452 44.2069C23.9723 43.9457 23.7537 43.6333 23.6019 43.2876L22.8619 41.5776C22.7091 41.233 22.626 40.8616 22.6173 40.4848C22.6085 40.108 22.6744 39.7332 22.811 39.3819C22.9476 39.0307 23.1523 38.7099 23.4133 38.438C23.6743 38.166 23.9865 37.9484 24.3319 37.7976C24.4948 37.7323 24.6339 37.6188 24.7304 37.4722C24.8269 37.3256 24.8763 37.153 24.8719 36.9776V36.8776C24.8776 36.6993 24.829 36.5236 24.7326 36.3736C24.6361 36.2236 24.4964 36.1064 24.3319 36.0376C23.9796 35.9016 23.6577 35.6973 23.3848 35.4364C23.112 35.1754 22.8934 34.863 22.7419 34.5171C22.5904 34.1713 22.5088 33.7989 22.5019 33.4214C22.4951 33.0438 22.563 32.6687 22.7019 32.3176L23.3719 30.5876C23.6508 29.8795 24.1986 29.3106 24.8956 29.0052C25.5927 28.6998 26.3823 28.6827 27.0919 28.9576C27.2633 29.0231 27.4506 29.0352 27.629 28.9924C27.8075 28.9495 27.9688 28.8538 28.0919 28.7176C28.2126 28.5907 28.2945 28.4321 28.3282 28.2603C28.3619 28.0884 28.3458 27.9106 28.2819 27.7476C28.1292 27.4017 28.0465 27.029 28.0383 26.651C28.0301 26.2731 28.0967 25.8972 28.2342 25.545C28.3717 25.1928 28.5775 24.8713 28.8397 24.5989C29.1018 24.3264 29.4152 24.1085 29.7619 23.9576L31.4619 23.2176C31.8083 23.061 32.1824 22.9746 32.5624 22.9633C32.9424 22.9521 33.3209 23.0161 33.676 23.1519C34.0311 23.2876 34.3559 23.4923 34.6315 23.7542C34.9071 24.016 35.1282 24.3299 35.2819 24.6776C35.3406 24.8449 35.4526 24.9884 35.6007 25.086C35.7489 25.1835 35.9249 25.2298 36.1019 25.2176H36.2819C36.4505 25.214 36.6144 25.1609 36.7531 25.0649C36.8918 24.9688 36.9991 24.8342 37.0619 24.6776C37.1957 24.3236 37.3987 23.9998 37.659 23.7251C37.9193 23.4504 38.2317 23.2303 38.578 23.0776C38.9243 22.925 39.2975 22.8428 39.6759 22.8359C40.0543 22.829 40.4303 22.8976 40.7819 23.0376L42.5119 23.7176C42.863 23.8536 43.1837 24.0575 43.4558 24.3178C43.7279 24.578 43.9459 24.8894 44.0973 25.2341C44.2487 25.5788 44.3306 25.95 44.3383 26.3264C44.3459 26.7028 44.2792 27.077 44.1419 27.4276C44.0749 27.5988 44.0621 27.7865 44.105 27.9652C44.1479 28.144 44.2445 28.3054 44.3819 28.4276C44.5065 28.5615 44.6678 28.6557 44.8457 28.6984C45.0236 28.7411 45.2101 28.7303 45.3819 28.6676C46.0781 28.3618 46.8673 28.3449 47.576 28.6205C48.2847 28.8962 48.8551 29.4418 49.1619 30.1376L49.9119 31.8476C50.063 32.1929 50.1445 32.5647 50.1519 32.9416C50.1593 33.3185 50.0923 33.6931 49.9549 34.0442C49.8175 34.3952 49.6122 34.7157 49.3509 34.9874C49.0896 35.2591 48.7773 35.4766 48.4319 35.6276C48.2681 35.6916 48.1282 35.8049 48.0315 35.9517C47.9348 36.0986 47.886 36.2718 47.8919 36.4476V36.5876C47.8935 36.7579 47.9457 36.924 48.0419 37.0646C48.138 37.2053 48.2737 37.3142 48.4319 37.3776C48.7842 37.5136 49.1062 37.7179 49.3794 37.9787C49.6527 38.2394 49.8718 38.5515 50.0241 38.8971C50.1765 39.2427 50.2591 39.615 50.2673 39.9926C50.2755 40.3702 50.2091 40.7457 50.0719 41.0976L49.4019 42.8376C49.2637 43.1889 49.0574 43.5094 48.7948 43.7805C48.5322 44.0517 48.2185 44.2682 47.8719 44.4176C47.5253 44.5636 47.153 44.6388 46.7769 44.6388C46.4008 44.6388 46.0285 44.5636 45.6819 44.4176C45.516 44.3383 45.3289 44.3149 45.1486 44.3509C44.9682 44.387 44.8045 44.4806 44.6819 44.6176L44.5819 44.7176C44.4597 44.8373 44.3771 44.9915 44.3449 45.1594C44.3127 45.3274 44.3326 45.5012 44.4019 45.6576C44.555 46.0036 44.6385 46.3764 44.6474 46.7547C44.6564 47.1329 44.5908 47.5093 44.4543 47.8622C44.3178 48.2151 44.1131 48.5376 43.8518 48.8114C43.5906 49.0851 43.278 49.3047 42.9319 49.4576L41.2819 50.2376C40.9343 50.393 40.5593 50.4778 40.1787 50.4869C39.798 50.496 39.4194 50.4292 39.0648 50.2906C38.7102 50.1519 38.3868 49.944 38.1133 49.6791C37.8398 49.4142 37.6218 49.0976 37.4719 48.7476C37.4163 48.5809 37.306 48.4379 37.159 48.3417C37.012 48.2455 36.8368 48.2018 36.6619 48.2176H36.5119C36.3415 48.2192 36.1755 48.2714 36.0348 48.3675C35.8942 48.4637 35.7853 48.5994 35.7219 48.7576C35.5124 49.2985 35.1445 49.7635 34.6663 50.0919C34.1881 50.4202 33.6219 50.5964 33.0419 50.5976V50.5976ZM27.7519 42.7476C28.4996 42.7418 29.219 43.0331 29.7519 43.5576L29.8419 43.6476C30.2561 44.0344 30.5437 44.5375 30.6668 45.0908C30.79 45.644 30.7429 46.2215 30.5319 46.7476C30.4848 46.8565 30.4605 46.9739 30.4605 47.0926C30.4605 47.2112 30.4848 47.3286 30.5319 47.4376C30.5742 47.5425 30.6379 47.6376 30.7187 47.7168C30.7996 47.7959 30.896 47.8575 31.0019 47.8976L32.7419 48.5776C32.8474 48.621 32.9605 48.6427 33.0746 48.6414C33.1887 48.6401 33.3013 48.6159 33.4058 48.5702C33.5103 48.5245 33.6046 48.4582 33.6829 48.3752C33.7613 48.2923 33.8221 48.1945 33.8619 48.0876C34.0668 47.5552 34.4272 47.0968 34.8963 46.7722C35.3654 46.4475 35.9214 46.2717 36.4919 46.2676H36.6219C37.1778 46.266 37.7228 46.422 38.1936 46.7176C38.6644 47.0132 39.0417 47.4362 39.2819 47.9376C39.3262 48.0469 39.3927 48.146 39.477 48.2285C39.5613 48.3111 39.6616 48.3755 39.7719 48.4176C39.8762 48.4621 39.9884 48.4851 40.1019 48.4851C40.2153 48.4851 40.3276 48.4621 40.4319 48.4176L42.1419 47.6676C42.3521 47.5754 42.5174 47.4038 42.6017 47.1903C42.686 46.9767 42.6825 46.7385 42.5919 46.5276C42.357 46.0048 42.2857 45.4233 42.3874 44.8593C42.4892 44.2953 42.7591 43.7753 43.1619 43.3676L43.2419 43.2776C43.6345 42.8688 44.1398 42.5859 44.6935 42.4649C45.2472 42.3438 45.8245 42.39 46.3519 42.5976C46.573 42.6882 46.8208 42.6882 47.0419 42.5976C47.2509 42.5021 47.4154 42.3304 47.5019 42.1176L48.1819 40.3776C48.2239 40.2719 48.2445 40.159 48.2425 40.0453C48.2406 39.9317 48.2161 39.8195 48.1705 39.7153C48.125 39.6112 48.0592 39.5171 47.977 39.4385C47.8949 39.36 47.798 39.2985 47.6919 39.2576C47.1576 39.0513 46.6975 38.6895 46.3712 38.2188C46.045 37.7481 45.8675 37.1903 45.8619 36.6176V36.4976C45.8457 35.931 46.0001 35.3726 46.305 34.8948C46.6099 34.4169 47.0512 34.0417 47.5719 33.8176C47.6819 33.7723 47.7818 33.7057 47.8659 33.6216C47.95 33.5375 48.0166 33.4376 48.0619 33.3276C48.1067 33.2216 48.1298 33.1077 48.1298 32.9926C48.1298 32.8775 48.1067 32.7636 48.0619 32.6576L47.2819 30.9476C47.1897 30.7373 47.0181 30.5721 46.8046 30.4878C46.591 30.4035 46.3528 30.407 46.1419 30.4976C45.6143 30.6853 45.0446 30.7216 44.4975 30.6024C43.9503 30.4832 43.4474 30.2132 43.0457 29.8229C42.644 29.4327 42.3596 28.9378 42.2246 28.3943C42.0896 27.8508 42.1095 27.2804 42.2819 26.7476C42.3256 26.6407 42.3475 26.5261 42.3465 26.4106C42.3455 26.2951 42.3215 26.181 42.2758 26.0749C42.2302 25.9687 42.1639 25.8728 42.0808 25.7925C41.9978 25.7123 41.8995 25.6494 41.7919 25.6076L40.0619 24.9276C39.9576 24.883 39.8453 24.86 39.7319 24.86C39.6184 24.86 39.5062 24.883 39.4019 24.9276C39.2972 24.9731 39.2026 25.0389 39.1236 25.1213C39.0446 25.2037 38.9829 25.301 38.9419 25.4076C38.7324 25.9421 38.3663 26.4009 37.8917 26.7238C37.4171 27.0468 36.856 27.2189 36.2819 27.2176H36.1519C35.5875 27.2292 35.0322 27.0741 34.5555 26.7717C34.0788 26.4693 33.7019 26.0331 33.4719 25.5176C33.4293 25.4046 33.364 25.3016 33.28 25.215C33.196 25.1283 33.095 25.0599 32.9834 25.0139C32.8718 24.968 32.7519 24.9455 32.6312 24.9478C32.5105 24.9502 32.3916 24.9773 32.2819 25.0276L30.5819 25.7776C30.3716 25.8698 30.2064 26.0413 30.1221 26.2549C30.0378 26.4684 30.0413 26.7066 30.1319 26.9176C30.3381 27.4489 30.3887 28.0279 30.2778 28.5869C30.1669 29.1459 29.899 29.6618 29.5056 30.0741C29.1122 30.4864 28.6094 30.7781 28.0562 30.9151C27.503 31.0521 26.9222 31.0287 26.3819 30.8476C26.275 30.8039 26.1604 30.7819 26.0449 30.7829C25.9294 30.784 25.8153 30.808 25.7092 30.8536C25.603 30.8992 25.5071 30.9655 25.4268 31.0486C25.3466 31.1317 25.2837 31.2299 25.2419 31.3376L24.5619 33.0676C24.5197 33.1739 24.499 33.2876 24.5008 33.4019C24.5026 33.5163 24.527 33.6292 24.5725 33.7342C24.618 33.8392 24.6838 33.9341 24.766 34.0136C24.8483 34.0931 24.9454 34.1557 25.0519 34.1976C25.5843 34.4024 26.0427 34.7629 26.3673 35.232C26.6919 35.7011 26.8678 36.2571 26.8719 36.8276V36.9476C26.89 37.5158 26.7366 38.0764 26.4316 38.5562C26.1266 39.036 25.6841 39.4129 25.1619 39.6376C24.9421 39.7325 24.7668 39.9078 24.6719 40.1276C24.627 40.2336 24.6039 40.3475 24.6039 40.4626C24.6039 40.5777 24.627 40.6916 24.6719 40.7976L25.4119 42.5076C25.5079 42.7167 25.6821 42.8799 25.8971 42.9622C26.1121 43.0444 26.3507 43.0392 26.5619 42.9476C26.9409 42.801 27.3458 42.733 27.7519 42.7476V42.7476Z" fill="#041C43"/>
</svg>
