<svg width="38" height="29" viewBox="0 0 38 29" fill="none" xmlns="http://www.w3.org/2000/svg">
<path d="M32.5633 11.3554H5.45008C5.25176 11.3554 5.06157 11.2766 4.92134 11.1363C4.78111 10.9961 4.70233 10.8059 4.70233 10.6076C4.70233 10.4093 4.78111 10.2191 4.92134 10.0789C5.06157 9.93864 5.25176 9.85986 5.45008 9.85986H32.5633C32.7616 9.85986 32.9518 9.93864 33.092 10.0789C33.2323 10.2191 33.311 10.4093 33.311 10.6076C33.311 10.8059 33.2323 10.9961 33.092 11.1363C32.9518 11.2766 32.7616 11.3554 32.5633 11.3554Z" fill="#10A372"/>
<path d="M32.5633 14.5258H15.0212C14.8229 14.5258 14.6327 14.447 14.4924 14.3067C14.3522 14.1665 14.2734 13.9763 14.2734 13.778C14.2734 13.5797 14.3522 13.3895 14.4924 13.2493C14.6327 13.1091 14.8229 13.0303 15.0212 13.0303H32.5633C32.7616 13.0303 32.9518 13.1091 33.092 13.2493C33.2322 13.3895 33.311 13.5797 33.311 13.778C33.311 13.9763 33.2322 14.1665 33.092 14.3067C32.9518 14.447 32.7616 14.5258 32.5633 14.5258Z" fill="#10A372"/>
<path d="M11.1928 14.5258H5.45008C5.25176 14.5258 5.06157 14.447 4.92134 14.3067C4.78111 14.1665 4.70233 13.9763 4.70233 13.778C4.70233 13.5797 4.78111 13.3895 4.92134 13.2493C5.06157 13.1091 5.25176 13.0303 5.45008 13.0303H11.1928C11.3911 13.0303 11.5813 13.1091 11.7215 13.2493C11.8617 13.3895 11.9405 13.5797 11.9405 13.778C11.9405 13.9763 11.8617 14.1665 11.7215 14.3067C11.5813 14.447 11.3911 14.5258 11.1928 14.5258Z" fill="#10A372"/>
<path d="M32.5633 17.6962H28.3011C28.1028 17.6962 27.9126 17.6174 27.7724 17.4772C27.6322 17.3369 27.5534 17.1467 27.5534 16.9484C27.5534 16.7501 27.6322 16.5599 27.7724 16.4197C27.9126 16.2795 28.1028 16.2007 28.3011 16.2007H32.5633C32.7616 16.2007 32.9518 16.2795 33.092 16.4197C33.2322 16.5599 33.311 16.7501 33.311 16.9484C33.311 17.1467 33.2322 17.3369 33.092 17.4772C32.9518 17.6174 32.7616 17.6962 32.5633 17.6962Z" fill="#10A372"/>
<path d="M24.4129 17.6962H5.45008C5.25176 17.6962 5.06157 17.6174 4.92134 17.4772C4.78111 17.3369 4.70233 17.1467 4.70233 16.9484C4.70233 16.7501 4.78111 16.5599 4.92134 16.4197C5.06157 16.2795 5.25176 16.2007 5.45008 16.2007H24.4129C24.6112 16.2007 24.8014 16.2795 24.9416 16.4197C25.0818 16.5599 25.1606 16.7501 25.1606 16.9484C25.1606 17.1467 25.0818 17.3369 24.9416 17.4772C24.8014 17.6174 24.6112 17.6962 24.4129 17.6962Z" fill="#10A372"/>
<path d="M32.5633 20.8671H20.7639C20.5655 20.8671 20.3754 20.7883 20.2351 20.6481C20.0949 20.5078 20.0161 20.3176 20.0161 20.1193C20.0161 19.921 20.0949 19.7308 20.2351 19.5906C20.3754 19.4504 20.5655 19.3716 20.7639 19.3716H32.5633C32.7616 19.3716 32.9518 19.4504 33.092 19.5906C33.2322 19.7308 33.311 19.921 33.311 20.1193C33.311 20.3176 33.2322 20.5078 33.092 20.6481C32.9518 20.7883 32.7616 20.8671 32.5633 20.8671Z" fill="#10A372"/>
<path d="M17.1822 20.8671H5.45008C5.25176 20.8671 5.06157 20.7883 4.92134 20.6481C4.78111 20.5078 4.70233 20.3176 4.70233 20.1193C4.70233 19.921 4.78111 19.7308 4.92134 19.5906C5.06157 19.4504 5.25176 19.3716 5.45008 19.3716H17.1822C17.3805 19.3716 17.5707 19.4504 17.7109 19.5906C17.8511 19.7308 17.9299 19.921 17.9299 20.1193C17.9299 20.3176 17.8511 20.5078 17.7109 20.6481C17.5707 20.7883 17.3805 20.8671 17.1822 20.8671Z" fill="#10A372"/>
<path d="M32.5633 24.0072H5.45008C5.25176 24.0072 5.06157 23.9284 4.92134 23.7882C4.78111 23.648 4.70233 23.4578 4.70233 23.2595C4.70233 23.0611 4.78111 22.871 4.92134 22.7307C5.06157 22.5905 5.25176 22.5117 5.45008 22.5117H32.5633C32.7616 22.5117 32.9518 22.5905 33.092 22.7307C33.2323 22.871 33.311 23.0611 33.311 23.2595C33.311 23.4578 33.2323 23.648 33.092 23.7882C32.9518 23.9284 32.7616 24.0072 32.5633 24.0072Z" fill="#10A372"/>
<path d="M36.6983 6.88416H1.14307C0.944755 6.88416 0.754563 6.80538 0.614333 6.66515C0.474104 6.52492 0.395325 6.33473 0.395325 6.13642C0.395325 5.9381 0.474104 5.74791 0.614333 5.60768C0.754563 5.46745 0.944755 5.38867 1.14307 5.38867H36.6983C36.8966 5.38867 37.0868 5.46745 37.2271 5.60768C37.3673 5.74791 37.4461 5.9381 37.4461 6.13642C37.4461 6.33473 37.3673 6.52492 37.2271 6.66515C37.0868 6.80538 36.8966 6.88416 36.6983 6.88416Z" fill="#10A372"/>
<path d="M4.7995 4.31922H3.70032C3.50201 4.31922 3.31181 4.24044 3.17158 4.10021C3.03136 3.95998 2.95258 3.76979 2.95258 3.57148C2.95258 3.37316 3.03136 3.18297 3.17158 3.04274C3.31181 2.90251 3.50201 2.82373 3.70032 2.82373H4.7995C4.99782 2.82373 5.18801 2.90251 5.32824 3.04274C5.46847 3.18297 5.54725 3.37316 5.54725 3.57148C5.54725 3.76979 5.46847 3.95998 5.32824 4.10021C5.18801 4.24044 4.99782 4.31922 4.7995 4.31922Z" fill="#10A372"/>
<path d="M8.18681 4.31922H7.04276C6.84444 4.31922 6.65425 4.24044 6.51402 4.10021C6.37379 3.95998 6.29501 3.76979 6.29501 3.57148C6.29501 3.37316 6.37379 3.18297 6.51402 3.04274C6.65425 2.90251 6.84444 2.82373 7.04276 2.82373H8.1569C8.35521 2.82373 8.5454 2.90251 8.68563 3.04274C8.82586 3.18297 8.90464 3.37316 8.90464 3.57148C8.90464 3.76979 8.82586 3.95998 8.68563 4.10021C8.5454 4.24044 8.35521 4.31922 8.1569 4.31922H8.18681Z" fill="#10A372"/>
<path d="M11.5292 4.31922H10.445C10.2467 4.31922 10.0565 4.24044 9.91624 4.10021C9.77601 3.95998 9.69724 3.76979 9.69724 3.57148C9.69724 3.37316 9.77601 3.18297 9.91624 3.04274C10.0565 2.90251 10.2467 2.82373 10.445 2.82373H11.5292C11.7275 2.82373 11.9177 2.90251 12.0579 3.04274C12.1982 3.18297 12.277 3.37316 12.277 3.57148C12.277 3.76979 12.1982 3.95998 12.0579 4.10021C11.9177 4.24044 11.7275 4.31922 11.5292 4.31922Z" fill="#10A372"/>
<path d="M36.9525 28.4114H1.06079C0.86248 28.4114 0.672287 28.3326 0.532058 28.1924C0.391829 28.0522 0.313049 27.862 0.313049 27.6637V0.909366C0.313049 0.711051 0.391829 0.520859 0.532058 0.38063C0.672287 0.240401 0.86248 0.161621 1.06079 0.161621H36.9525C37.1508 0.161621 37.341 0.240401 37.4813 0.38063C37.6215 0.520859 37.7003 0.711051 37.7003 0.909366V27.6637C37.7003 27.862 37.6215 28.0522 37.4813 28.1924C37.341 28.3326 37.1508 28.4114 36.9525 28.4114ZM1.80854 26.9159H36.2048V1.65711H1.80854V26.9159Z" fill="#03132E"/>
</svg>
