<svg width="39" height="38" viewBox="0 0 39 38" fill="none" xmlns="http://www.w3.org/2000/svg">
<path d="M1.81331 37.6016C1.71491 37.6021 1.61735 37.5833 1.52625 37.5461C1.43515 37.5088 1.35229 37.454 1.28242 37.3847C1.15198 37.2553 1.07379 37.0823 1.06275 36.8989C1.05172 36.7154 1.10862 36.5344 1.2226 36.3902L12.0125 22.7663C12.1355 22.6106 12.3153 22.5102 12.5123 22.487C12.6098 22.4756 12.7087 22.4835 12.8032 22.5102C12.8977 22.5369 12.986 22.5821 13.0631 22.6429C13.1402 22.7038 13.2046 22.7793 13.2525 22.865C13.3004 22.9508 13.3309 23.0451 13.3424 23.1427C13.3539 23.2402 13.346 23.3391 13.3192 23.4336C13.2925 23.5281 13.2474 23.6164 13.1865 23.6935L6.45681 32.1505L15.0633 25.2413C15.1399 25.1795 15.228 25.1333 15.3224 25.1055C15.4168 25.0776 15.5158 25.0687 15.6137 25.0791C15.7116 25.0895 15.8065 25.1191 15.893 25.1662C15.9795 25.2133 16.0558 25.2769 16.1177 25.3535C16.1795 25.4301 16.2257 25.5181 16.2535 25.6126C16.2814 25.707 16.2904 25.806 16.2799 25.9039C16.2695 26.0018 16.2399 26.0967 16.1928 26.1832C16.1458 26.2696 16.0821 26.346 16.0055 26.4078L2.27692 37.4371C2.14536 37.5426 1.98198 37.6006 1.81331 37.6016Z" fill="#03132E"/>
<path d="M28.4929 17.1353C28.3755 17.1365 28.2596 17.11 28.1543 17.0581C28.0491 17.0061 27.9576 16.9301 27.8872 16.8362C27.8287 16.7572 27.7863 16.6674 27.7625 16.572C27.7387 16.4766 27.734 16.3775 27.7486 16.2802C27.7632 16.183 27.7968 16.0896 27.8475 16.0054C27.8982 15.9211 27.9651 15.8477 28.0442 15.7894L34.0935 11.3029C34.2377 11.1971 34.415 11.1464 34.5934 11.1601C34.7717 11.1738 34.9392 11.251 35.0655 11.3777L36.8527 13.1424V1.829H25.5094L27.274 3.54133C27.4038 3.66711 27.4836 3.83561 27.4988 4.01569C27.5139 4.19577 27.4633 4.37523 27.3563 4.52088L23.5652 9.64293C23.5068 9.72198 23.4334 9.78874 23.3492 9.83941C23.2649 9.89008 23.1715 9.92367 23.0743 9.93825C22.878 9.9677 22.678 9.91795 22.5184 9.79996C22.3587 9.68196 22.2525 9.50538 22.2231 9.30906C22.1936 9.11274 22.2434 8.91275 22.3614 8.75311L25.7636 4.15448L23.139 1.61963C23.0314 1.51592 22.9573 1.38234 22.9264 1.23614C22.8954 1.08993 22.909 0.9378 22.9653 0.799375C23.0217 0.660951 23.1182 0.542582 23.2424 0.459544C23.3667 0.376505 23.513 0.332606 23.6624 0.33351H37.6004C37.7987 0.33351 37.9889 0.412289 38.1291 0.552518C38.2694 0.692748 38.3481 0.88294 38.3481 1.08125V14.9519C38.3475 15.0998 38.3031 15.2442 38.2204 15.3668C38.1377 15.4894 38.0205 15.5848 37.8837 15.6408C37.7468 15.6968 37.5964 15.711 37.4515 15.6815C37.3066 15.6521 37.1736 15.5803 37.0695 15.4753L34.4898 12.8881L28.9565 16.9858C28.823 17.086 28.6598 17.1386 28.4929 17.1353Z" fill="#03132E"/>
<path d="M37.6003 37.721C37.4317 37.72 37.2683 37.662 37.1367 37.5565L23.0642 26.4076C22.928 26.279 22.845 26.104 22.8316 25.9171C22.8183 25.7303 22.8755 25.5452 22.9921 25.3986C23.1087 25.2519 23.276 25.1544 23.4611 25.1252C23.6461 25.0961 23.8354 25.1374 23.9914 25.2411L32.9643 32.3671L26.1299 23.7083C26.0687 23.6309 26.0233 23.5421 25.9965 23.4471C25.9697 23.352 25.962 23.2526 25.9738 23.1546C25.9856 23.0566 26.0168 22.9619 26.0654 22.876C26.114 22.79 26.1791 22.7146 26.2571 22.6539C26.4129 22.5325 26.6105 22.4777 26.8067 22.5015C27.0029 22.5254 27.1816 22.6259 27.3039 22.7811L38.1761 36.4947C38.2671 36.604 38.3251 36.7369 38.3432 36.878C38.3613 37.019 38.3388 37.1623 38.2784 37.291C38.218 37.4198 38.1221 37.5286 38.002 37.6048C37.8819 37.6809 37.7425 37.7212 37.6003 37.721Z" fill="#03132E"/>
<path d="M10.6815 17.0232C10.5206 17.0253 10.3633 16.9755 10.2329 16.8811L4.84914 12.8881L2.26943 15.4753C2.16529 15.5803 2.03235 15.6521 1.88743 15.6816C1.74251 15.711 1.5921 15.6968 1.45524 15.6408C1.31838 15.5848 1.20121 15.4894 1.11853 15.3668C1.03586 15.2442 0.991404 15.0998 0.990784 14.9519V1.08125C0.990784 0.88294 1.06956 0.692748 1.20979 0.552519C1.35002 0.412289 1.54021 0.33351 1.73853 0.33351H15.6466C15.796 0.332606 15.9423 0.376505 16.0666 0.459544C16.1908 0.542582 16.2873 0.660951 16.3437 0.799375C16.4 0.9378 16.4136 1.08993 16.3826 1.23614C16.3517 1.38234 16.2776 1.51592 16.17 1.61963L13.5454 4.15448L16.985 8.79798C17.103 8.95762 17.1528 9.1576 17.1233 9.35392C17.0939 9.55024 16.9877 9.72682 16.828 9.84482C16.6684 9.96282 16.4684 10.0126 16.2721 9.98312C16.0757 9.95367 15.8992 9.84744 15.7812 9.68779L11.9527 4.52088C11.8457 4.37523 11.7951 4.19577 11.8103 4.01569C11.8254 3.83561 11.9052 3.66711 12.035 3.54133L13.7847 1.829H2.45636V13.1424L4.22104 11.3777C4.34734 11.251 4.51486 11.1738 4.69321 11.1601C4.87156 11.1464 5.04892 11.1971 5.19311 11.3029L11.0928 15.6772C11.1719 15.7356 11.2388 15.809 11.2895 15.8932C11.3402 15.9774 11.3739 16.0708 11.3884 16.1681C11.403 16.2653 11.3983 16.3645 11.3745 16.4599C11.3507 16.5553 11.3084 16.6451 11.2498 16.7241C11.1833 16.813 11.0977 16.886 10.9994 16.9377C10.9011 16.9895 10.7925 17.0187 10.6815 17.0232Z" fill="#03132E"/>
<path d="M19.2731 20.9265C19.1747 20.927 19.0772 20.9082 18.9861 20.871C18.895 20.8337 18.8121 20.7789 18.7422 20.7096L15.7961 17.7186C15.6568 17.5785 15.5787 17.389 15.5787 17.1915C15.5787 16.9939 15.6568 16.8044 15.7961 16.6643C15.8656 16.5942 15.9483 16.5386 16.0394 16.5006C16.1306 16.4627 16.2283 16.4431 16.327 16.4431C16.4257 16.4431 16.5235 16.4627 16.6146 16.5006C16.7057 16.5386 16.7884 16.5942 16.8579 16.6643L19.2731 19.087L23.7596 14.5557C23.9054 14.4059 24.1046 14.3203 24.3136 14.3175C24.5225 14.3146 24.724 14.395 24.8737 14.5407C25.0235 14.6865 25.1091 14.8858 25.112 15.0947C25.1148 15.3036 25.0344 15.5051 24.8887 15.6549L19.804 20.7096C19.7342 20.7789 19.6513 20.8337 19.5602 20.871C19.4691 20.9082 19.3715 20.927 19.2731 20.9265Z" fill="#10A372"/>
<path d="M19.6545 27.2527C17.7439 27.2571 15.875 26.694 14.2848 25.6349C12.6946 24.5757 11.4548 23.0681 10.7226 21.3033C9.99046 19.5385 9.79887 17.596 10.1722 15.7222C10.5455 13.8484 11.4669 12.1277 12.8195 10.7782C14.1721 9.42876 15.8949 8.5114 17.7696 8.14247C19.6443 7.77354 21.5863 7.96966 23.3494 8.70596C25.1125 9.44226 26.6172 10.6856 27.6726 12.2782C28.7281 13.8708 29.2869 15.7411 29.278 17.6517C29.2661 20.1983 28.2477 22.6369 26.4449 24.4355C24.6421 26.2341 22.2011 27.2468 19.6545 27.2527ZM19.6545 9.48632C17.9236 9.48245 16.2366 10.0307 14.8387 11.0515C13.4408 12.0723 12.4049 13.5122 11.8816 15.1622C11.3583 16.8121 11.3748 18.5859 11.9289 20.2257C12.4829 21.8656 13.5455 23.286 14.9622 24.2804C16.3789 25.2749 18.0759 25.7916 19.8064 25.7554C21.5369 25.7193 23.2108 25.1321 24.5847 24.0792C25.9586 23.0264 26.9609 21.5628 27.4459 19.9013C27.9309 18.2397 27.8733 16.4668 27.2815 14.8402C26.7059 13.2802 25.6664 11.9338 24.303 10.9821C22.9395 10.0303 21.3173 9.51876 19.6545 9.51622V9.48632Z" fill="#10A372"/>
</svg>
