<svg width="38" height="38" viewBox="0 0 38 38" fill="none" xmlns="http://www.w3.org/2000/svg">
<path d="M26.4841 37.6238C26.3155 37.6228 26.1521 37.5649 26.0205 37.4593L23.71 35.6199L21.4069 37.4444C21.2749 37.5487 21.1116 37.6054 20.9433 37.6054C20.7751 37.6054 20.6118 37.5487 20.4797 37.4444L18.1692 35.6199L15.8662 37.4518C15.7335 37.558 15.5687 37.6159 15.3988 37.6159C15.2289 37.6159 15.0641 37.558 14.9315 37.4518L12.6509 35.6199L10.3403 37.4444C10.2083 37.5487 10.045 37.6054 9.87673 37.6054C9.70847 37.6054 9.54514 37.5487 9.41312 37.4444L7.11007 35.6199L5.47999 36.9135C5.36981 37.0017 5.23691 37.057 5.09665 37.0728C4.95639 37.0887 4.81449 37.0646 4.68738 37.0032C4.56014 36.9426 4.45261 36.8473 4.3772 36.7282C4.30179 36.6091 4.26157 36.4712 4.26117 36.3302L4.09666 1.18623C4.09609 1.08783 4.11496 0.990274 4.15217 0.89917C4.18938 0.808067 4.24421 0.725205 4.31351 0.655336C4.38338 0.586034 4.46624 0.531205 4.55734 0.493994C4.64845 0.456783 4.746 0.43792 4.84441 0.438489H36.9226C37.121 0.438489 37.3111 0.51727 37.4514 0.657499C37.5916 0.797729 37.6704 0.987919 37.6704 1.18623V36.3302C37.6707 36.4704 37.6316 36.6078 37.5575 36.7268C37.4835 36.8457 37.3775 36.9415 37.2517 37.0032C37.1245 37.0646 36.9826 37.0887 36.8424 37.0728C36.7021 37.057 36.5692 37.0017 36.459 36.9135L34.829 35.6199L32.511 37.4444C32.3789 37.5487 32.2156 37.6054 32.0474 37.6054C31.8791 37.6054 31.7158 37.5487 31.5837 37.4444L29.2807 35.6199L26.9702 37.4593C26.8326 37.5698 26.6605 37.628 26.4841 37.6238ZM23.71 33.8851C23.8812 33.8844 24.0475 33.9424 24.1811 34.0496L26.4841 35.919L28.7872 34.0795C28.9198 33.9733 29.0846 33.9155 29.2545 33.9155C29.4244 33.9155 29.5892 33.9733 29.7219 34.0795L32.0249 35.9115L34.3429 34.0795C34.4749 33.9752 34.6383 33.9185 34.8065 33.9185C34.9748 33.9185 35.1381 33.9752 35.2701 34.0795L36.1525 34.7824V1.9265H5.56972L5.72675 34.7674L6.61656 34.0646C6.74918 33.9584 6.91401 33.9005 7.0839 33.9005C7.25379 33.9005 7.41862 33.9584 7.55124 34.0646L9.85429 35.8891L12.1648 34.0646C12.2968 33.9602 12.4602 33.9035 12.6284 33.9035C12.7967 33.9035 12.96 33.9602 13.092 34.0646L15.3951 35.8965L17.7056 34.0646C17.8376 33.9602 18.001 33.9035 18.1692 33.9035C18.3375 33.9035 18.5008 33.9602 18.6328 34.0646L20.9433 35.8891L23.2464 34.0646C23.386 33.9595 23.5579 33.9066 23.7324 33.915L23.71 33.8851Z" fill="#03132E"/>
<path d="M1.06079 24.83C0.949201 24.831 0.838984 24.8054 0.739263 24.7553C0.612018 24.6947 0.504492 24.5993 0.429081 24.4803C0.353671 24.3612 0.313448 24.2232 0.313049 24.0823V3.78853C0.313049 1.74718 1.43467 0.431152 3.17691 0.431152H4.81447C5.01278 0.431152 5.20297 0.509933 5.3432 0.650162C5.48343 0.790392 5.56221 0.980583 5.56221 1.1789C5.56221 1.37721 5.48343 1.5674 5.3432 1.70763C5.20297 1.84786 5.01278 1.92664 4.81447 1.92664H3.20682C2.01791 1.92664 1.83845 3.09312 1.83845 3.78853V22.4821L4.36582 20.381C4.43967 20.3096 4.52743 20.2541 4.62365 20.2181C4.71987 20.1821 4.82246 20.1664 4.92505 20.1718C5.02763 20.1772 5.128 20.2037 5.21989 20.2496C5.31179 20.2955 5.39323 20.3599 5.45915 20.4387C5.52506 20.5175 5.57404 20.609 5.60301 20.7076C5.63199 20.8061 5.64035 20.9096 5.62757 21.0115C5.61479 21.1134 5.58115 21.2116 5.52873 21.3C5.47632 21.3883 5.40626 21.4649 5.32294 21.525L1.58422 24.6581C1.43799 24.7799 1.2508 24.8414 1.06079 24.83Z" fill="#03132E"/>
<path d="M20.0311 22.3027C19.8349 22.3019 19.6469 22.224 19.5077 22.0858L16.5167 19.0949C16.3774 18.9548 16.2993 18.7652 16.2993 18.5677C16.2993 18.3702 16.3774 18.1806 16.5167 18.0405C16.5862 17.9705 16.6689 17.9148 16.76 17.8769C16.8511 17.8389 16.9489 17.8194 17.0476 17.8194C17.1463 17.8194 17.244 17.8389 17.3352 17.8769C17.4263 17.9148 17.509 17.9705 17.5785 18.0405L20.0311 20.5231L24.5549 15.9992C24.6247 15.9295 24.7074 15.8742 24.7985 15.8365C24.8896 15.7987 24.9873 15.7793 25.0858 15.7793C25.1844 15.7793 25.2821 15.7987 25.3732 15.8365C25.4643 15.8742 25.547 15.9295 25.6167 15.9992C25.6865 16.0689 25.7418 16.1517 25.7795 16.2428C25.8172 16.3339 25.8367 16.4315 25.8367 16.5301C25.8367 16.6287 25.8172 16.7263 25.7795 16.8174C25.7418 16.9085 25.6865 16.9913 25.6167 17.061L20.562 22.1158C20.4161 22.2448 20.2257 22.3119 20.0311 22.3027Z" fill="#10A372"/>
<path d="M20.405 28.6585C18.4959 28.6615 16.6289 28.0979 15.0404 27.0391C13.4518 25.9803 12.2132 24.474 11.4812 22.7108C10.7493 20.9477 10.557 19.007 10.9287 17.1344C11.3004 15.2619 12.2194 13.5418 13.5693 12.1919C14.9192 10.842 16.6393 9.92303 18.5119 9.55132C20.3844 9.17961 22.3251 9.37189 24.0882 10.1038C25.8514 10.8357 27.3577 12.0744 28.4165 13.663C29.4753 15.2515 30.0389 17.1185 30.0359 19.0275C30.032 21.5806 29.016 24.028 27.2107 25.8333C25.4054 27.6386 22.958 28.6545 20.405 28.6585ZM20.405 10.8921C18.6735 10.8921 16.9872 11.4446 15.5914 12.4692C14.1955 13.4937 13.163 14.9369 12.6439 16.5887C12.1249 18.2406 12.1464 20.015 12.7053 21.6537C13.2642 23.2925 14.3315 24.7102 15.7517 25.7007C17.1719 26.6911 18.8711 27.2025 20.6021 27.1606C22.3331 27.1187 24.0056 26.5256 25.3762 25.4677C26.7469 24.4097 27.7442 22.942 28.2232 21.2781C28.7022 19.6142 28.6378 17.8408 28.0394 16.216C27.4634 14.6549 26.4228 13.3076 25.0578 12.3558C23.6929 11.4039 22.069 10.8931 20.405 10.8921Z" fill="#10A372"/>
</svg>
