<svg width="51" height="51" viewBox="0 0 51 51" fill="none" xmlns="http://www.w3.org/2000/svg">
<path d="M29.372 15.8562H12.542C12.2768 15.8562 12.0225 15.7508 11.8349 15.5633C11.6474 15.3758 11.542 15.1214 11.542 14.8562C11.542 14.591 11.6474 14.3366 11.8349 14.1491C12.0225 13.9616 12.2768 13.8562 12.542 13.8562H29.372C29.6372 13.8562 29.8916 13.9616 30.0791 14.1491C30.2667 14.3366 30.372 14.591 30.372 14.8562C30.372 15.1214 30.2667 15.3758 30.0791 15.5633C29.8916 15.7508 29.6372 15.8562 29.372 15.8562Z" fill="#10A372"/>
<path d="M29.372 21.3862H12.542C12.2768 21.3862 12.0225 21.2809 11.8349 21.0933C11.6474 20.9058 11.542 20.6514 11.542 20.3862C11.542 20.121 11.6474 19.8667 11.8349 19.6791C12.0225 19.4916 12.2768 19.3862 12.542 19.3862H29.372C29.6372 19.3862 29.8916 19.4916 30.0791 19.6791C30.2667 19.8667 30.372 20.121 30.372 20.3862C30.372 20.6514 30.2667 20.9058 30.0791 21.0933C29.8916 21.2809 29.6372 21.3862 29.372 21.3862Z" fill="#10A372"/>
<path d="M29.372 26.9263H12.542C12.2768 26.9263 12.0225 26.8209 11.8349 26.6334C11.6474 26.4458 11.542 26.1915 11.542 25.9263C11.542 25.6611 11.6474 25.4067 11.8349 25.2192C12.0225 25.0316 12.2768 24.9263 12.542 24.9263H29.372C29.6372 24.9263 29.8916 25.0316 30.0791 25.2192C30.2667 25.4067 30.372 25.6611 30.372 25.9263C30.372 26.1915 30.2667 26.4458 30.0791 26.6334C29.8916 26.8209 29.6372 26.9263 29.372 26.9263Z" fill="#10A372"/>
<path d="M20.972 36.0463C17.2871 36.0552 13.7171 34.7643 10.89 32.4008C8.06289 30.0373 6.1598 26.7526 5.5155 23.1244C4.8712 19.4963 5.52696 15.7571 7.36744 12.5648C9.20791 9.37238 12.1152 6.93128 15.5778 5.67087C19.0405 4.41047 22.8367 4.4115 26.2987 5.67379C29.7606 6.93607 32.6666 9.37876 34.5053 12.5721C36.3441 15.7655 36.9978 19.505 36.3515 23.1328C35.7053 26.7606 33.8004 30.0443 30.972 32.4063C28.1671 34.752 24.6285 36.04 20.972 36.0463ZM20.972 6.72627C17.8627 6.72983 14.8476 7.79325 12.424 9.74107C10.0005 11.6889 8.31336 14.4047 7.64105 17.4404C6.96873 20.4761 7.3514 23.6504 8.72591 26.4393C10.1004 29.2283 12.3846 31.4653 15.2016 32.7814C18.0187 34.0974 21.2002 34.4138 24.2212 33.6783C27.2422 32.9428 29.9223 31.1994 31.8191 28.7358C33.716 26.2722 34.7163 23.2355 34.655 20.1268C34.5937 17.0181 33.4745 14.0232 31.482 11.6363C30.3339 10.2555 28.9235 9.11594 27.3324 8.28348C25.7413 7.45101 24.001 6.94214 22.212 6.78627C21.752 6.74627 21.342 6.72627 20.932 6.72627H20.972Z" fill="#17CF81"/>
<path d="M20.992 40.6163C20.382 40.6163 19.762 40.6163 19.152 40.5263C15.8396 40.2303 12.6513 39.1218 9.86959 37.2991C7.08793 35.4764 4.79878 32.9957 3.20498 30.0768C1.61118 27.158 0.761931 23.8911 0.732482 20.5656C0.703033 17.24 1.49429 13.9586 3.03615 11.012C4.57801 8.06535 6.82287 5.54452 9.57182 3.67283C12.3208 1.80115 15.4889 0.636403 18.7956 0.281788C22.1023 -0.0728261 25.4454 0.393643 28.5287 1.63986C31.6121 2.88609 34.3404 4.87358 36.472 7.42626C38.933 10.3759 40.5033 13.9654 40.9992 17.7747C41.4952 21.5841 40.8962 25.4559 39.2724 28.9374C37.6487 32.4188 35.0672 35.366 31.8299 37.4342C28.5927 39.5024 24.8335 40.6061 20.992 40.6163ZM20.942 2.17626C16.7972 2.18185 12.7782 3.60048 9.54824 6.198C6.31832 8.79553 4.07058 12.4167 3.17601 16.4638C2.28143 20.511 2.79349 24.7421 4.62767 28.459C6.46186 32.1759 9.50853 35.1564 13.2648 36.9084C17.0211 38.6605 21.2626 39.0794 25.2891 38.0961C29.3155 37.1128 32.8864 34.786 35.4123 31.4998C37.9383 28.2135 39.2682 24.1643 39.1827 20.0204C39.0972 15.8764 37.6013 11.8855 34.942 8.70626C33.2311 6.65657 31.0897 5.00889 28.6701 3.8803C26.2504 2.7517 23.6119 2.16991 20.942 2.17626Z" fill="#17CF81"/>
<path d="M44.522 50.1163C44.2597 50.1152 44.0083 50.011 43.822 49.8263L30.962 36.9163C30.8683 36.8233 30.7939 36.7127 30.7431 36.5909C30.6923 36.469 30.6662 36.3383 30.6662 36.2063C30.6662 36.0743 30.6923 35.9436 30.7431 35.8217C30.7939 35.6999 30.8683 35.5893 30.962 35.4963C31.1494 35.31 31.4028 35.2055 31.667 35.2055C31.9312 35.2055 32.1846 35.31 32.372 35.4963L44.522 47.6463L48.362 43.8163L36.432 31.8863C36.2682 31.695 36.1826 31.4489 36.1923 31.1972C36.202 30.9456 36.3063 30.7068 36.4844 30.5287C36.6625 30.3506 36.9013 30.2463 37.1529 30.2366C37.4046 30.2269 37.6507 30.3125 37.842 30.4763L50.482 43.1163C50.6683 43.3037 50.7728 43.5571 50.7728 43.8213C50.7728 44.0855 50.6683 44.3389 50.482 44.5263L45.232 49.7763C45.1428 49.8781 45.0339 49.9607 44.9119 50.0191C44.7898 50.0775 44.6572 50.1106 44.522 50.1163Z" fill="#17CF81"/>
</svg>
