<svg width="40" height="51" viewBox="0 0 40 51" fill="none" xmlns="http://www.w3.org/2000/svg">
<path d="M25.778 2.48169L37.848 14.5417V48.4817H2.59796V2.48169H25.778ZM26.598 0.481689H0.597961V50.4817H39.898L39.848 13.7117L26.598 0.481689Z" fill="#10A372"/>
<path d="M38.408 14.8718H26.348C26.0827 14.8718 25.8284 14.7664 25.6409 14.5789C25.4533 14.3914 25.348 14.137 25.348 13.8718V2.0918C25.348 1.82658 25.4533 1.57223 25.6409 1.38469C25.8284 1.19715 26.0827 1.0918 26.348 1.0918C26.6132 1.0918 26.8675 1.19715 27.0551 1.38469C27.2426 1.57223 27.348 1.82658 27.348 2.0918V12.8718H38.408C38.6732 12.8718 38.9275 12.9772 39.1151 13.1647C39.3026 13.3522 39.408 13.6066 39.408 13.8718C39.408 14.137 39.3026 14.3914 39.1151 14.5789C38.9275 14.7664 38.6732 14.8718 38.408 14.8718Z" fill="#10A372"/>
<path d="M20.248 32.0616C13.868 32.0616 8.83798 26.2216 8.62798 25.9716C8.47037 25.7898 8.38361 25.5572 8.38361 25.3166C8.38361 25.076 8.47037 24.8434 8.62798 24.6616C8.83798 24.4216 13.858 18.9016 20.228 18.9016C26.598 18.9016 31.618 24.4216 31.828 24.6616C31.9856 24.8434 32.0723 25.076 32.0723 25.3166C32.0723 25.5572 31.9856 25.7898 31.828 25.9716C31.658 26.2016 26.628 32.0616 20.248 32.0616ZM10.788 25.3416C12.248 26.7816 15.978 30.0616 20.248 30.0616C24.518 30.0616 28.248 26.7816 29.708 25.3416C28.248 23.9716 24.518 20.9016 20.248 20.9016C15.978 20.9016 12.248 23.9716 10.788 25.3416Z" fill="#17CF81"/>
<path d="M20.248 29.4517C19.4569 29.4517 18.6835 29.2171 18.0257 28.7775C17.3679 28.338 16.8552 27.7133 16.5525 26.9824C16.2497 26.2515 16.1705 25.4472 16.3248 24.6713C16.4792 23.8954 16.8602 23.1826 17.4196 22.6232C17.979 22.0638 18.6917 21.6829 19.4676 21.5285C20.2436 21.3742 21.0478 21.4534 21.7787 21.7561C22.5096 22.0589 23.1343 22.5716 23.5739 23.2294C24.0134 23.8872 24.248 24.6605 24.248 25.4517C24.248 26.5125 23.8266 27.5299 23.0764 28.2801C22.3263 29.0302 21.3089 29.4517 20.248 29.4517ZM20.248 23.5117C19.8524 23.5117 19.4657 23.629 19.1368 23.8487C18.8079 24.0685 18.5516 24.3808 18.4002 24.7463C18.2489 25.1117 18.2092 25.5139 18.2864 25.9018C18.3636 26.2898 18.5541 26.6462 18.8338 26.9259C19.1135 27.2056 19.4698 27.3961 19.8578 27.4732C20.2458 27.5504 20.6479 27.5108 21.0134 27.3594C21.3788 27.208 21.6912 26.9517 21.9109 26.6228C22.1307 26.2939 22.248 25.9072 22.248 25.5117C22.248 24.9812 22.0373 24.4725 21.6622 24.0974C21.2871 23.7224 20.7784 23.5117 20.248 23.5117Z" fill="#17CF81"/>
</svg>
