<svg id="Camada_1" data-name="Camada 1" xmlns="http://www.w3.org/2000/svg" viewBox="0 0 100 100"><defs><style>.cls-1{fill:#10a372;}.cls-2{fill:#03132e;}</style></defs><path class="cls-1" d="M52.22,62.44a1,1,0,0,1-.29,0,1,1,0,0,1-.66-1.25A35.93,35.93,0,0,1,70,39.11l.42-.17a1,1,0,0,1,1,.19l1.47,1.31,0-12.06L61,29.67,62.39,31a1,1,0,0,1,.32.88,1,1,0,0,1-.56.76l-.33.15A28,28,0,0,0,50.13,44.28a1,1,0,1,1-1.77-.92A29.62,29.62,0,0,1,60,31.48l-2-1.83a1,1,0,0,1-.28-1,1,1,0,0,1,.84-.68l15.32-1.65a1,1,0,0,1,.77.25.94.94,0,0,1,.33.75l0,15.4a1,1,0,0,1-1.67.74L70.6,41C59.38,46.46,54.87,56.32,53.18,61.73A1,1,0,0,1,52.22,62.44Z"/><path class="cls-2" d="M48.58,73.59a.76.76,0,0,1-.21,0,1,1,0,0,1-.79-.92c0-.23-1.45-23.41-18.34-31.42l0,0-2.45,2.21a1,1,0,0,1-1.67-.74l0-15.4a.94.94,0,0,1,.33-.75,1,1,0,0,1,.77-.25l15.31,1.65a1,1,0,0,1,.85.68A1,1,0,0,1,42,29.66L39.45,32C43,34.53,61.57,49.34,49.47,73A1,1,0,0,1,48.58,73.59ZM29,39a1,1,0,0,1,.42.09l.66.3c14,6.63,18,22.35,19.08,29.5C58.26,46.52,38.65,33.8,37.78,33.25l-.51-.34a1,1,0,0,1-.44-.76,1,1,0,0,1,.33-.81L39,29.67,27,28.38l0,12,1.27-1.15A1,1,0,0,1,29,39Z"/></svg>