<svg id="Camada_1" data-name="Camada 1" xmlns="http://www.w3.org/2000/svg" viewBox="0 0 100 100"><defs><style>.cls-1{fill:#03132e;}.cls-2{fill:#10a372;}</style></defs><path class="cls-1" d="M66.61,39.79H42.33a1,1,0,0,1,0-2H66.61a1,1,0,0,1,0,2Z"/><path class="cls-1" d="M36,39.79H33.22a1,1,0,0,1,0-2H36a1,1,0,0,1,0,2Z"/><path class="cls-1" d="M66.61,50.92H53.24a1,1,0,1,1,0-2H66.61a1,1,0,0,1,0,2Z"/><path class="cls-1" d="M46.94,50.92H33.22a1,1,0,0,1,0-2H46.94a1,1,0,0,1,0,2Z"/><path class="cls-1" d="M66.61,62H64.16a1,1,0,0,1,0-2h2.45a1,1,0,0,1,0,2Z"/><path class="cls-1" d="M58.22,62h-25a1,1,0,0,1,0-2h25a1,1,0,0,1,0,2Z"/><path class="cls-2" d="M39.63,37a1,1,0,0,1,1,1v1.66a1,1,0,0,1-1,1H38a1,1,0,0,1-1-1V38a1,1,0,0,1,1-1h1.67m0-2H38a3,3,0,0,0-3,3v1.66a3,3,0,0,0,3,3h1.67a3,3,0,0,0,3-3V38a3,3,0,0,0-3-3Z"/><path class="cls-2" d="M61.87,59.21a1,1,0,0,1,1,1v1.67a1,1,0,0,1-1,1H60.21a1,1,0,0,1-1-1V60.21a1,1,0,0,1,1-1h1.66m0-2H60.21a3,3,0,0,0-3,3v1.67a3,3,0,0,0,3,3h1.66a3,3,0,0,0,3-3V60.21a3,3,0,0,0-3-3Z"/><path class="cls-2" d="M50.75,48.08a1,1,0,0,1,1,1v1.67a1,1,0,0,1-1,1H49.08a1,1,0,0,1-1-1V49.08a1,1,0,0,1,1-1h1.67m0-2H49.08a3,3,0,0,0-3,3v1.67a3,3,0,0,0,3,3h1.67a3,3,0,0,0,3-3V49.08a3,3,0,0,0-3-3Z"/><path class="cls-2" d="M73.86,74.86H26.14a1,1,0,0,1-1-1V26.14a1,1,0,0,1,1-1H73.86a1,1,0,0,1,1,1V73.86A1,1,0,0,1,73.86,74.86Zm-46.72-2H72.86V27.14H27.14Z"/></svg>