<svg id="Camada_1" data-name="Camada 1" xmlns="http://www.w3.org/2000/svg" viewBox="0 0 100 100"><defs><style>.cls-1{fill:#10a372;}.cls-2{fill:#03132e;}</style></defs><path class="cls-1" d="M40.27,53.19a1,1,0,0,1,0-2l5.94,0h0a1,1,0,0,1,0,2l-5.93,0Z"/><path class="cls-1" d="M39,53.18H31.32a1,1,0,0,1,0-2H39a1,1,0,0,1,0,2Z"/><path class="cls-2" d="M68.55,48.92H62.16a1,1,0,0,1,0-2h6.39a1,1,0,0,1,0,2Z"/><path class="cls-2" d="M71.14,34.19a1,1,0,0,1-1-1,1,1,0,0,1,1-1h2.8a1,1,0,0,1,0,2Z"/><path class="cls-2" d="M39.34,54.64a1,1,0,0,1-.71-.3L25.56,41.2a1,1,0,0,1,0-1.41L38.65,26.68a1,1,0,0,1,1.71.7v4.76l19,.06h9.23a1,1,0,0,1,0,2H59.32l-20-.06a1,1,0,0,1-1-1V29.8L27.68,40.5,38.34,51.22V47.88a1,1,0,0,1,1-1h0l20.17,0a1,1,0,0,1,0,2h0l-19.17,0v4.76a1,1,0,0,1-1,1Z"/><path class="cls-2" d="M71.15,48.92a1,1,0,0,1,0-2H74a1,1,0,0,1,0,2Z"/><path class="cls-1" d="M28.73,53.17H26.05a1,1,0,0,1,0-2h2.67a1,1,0,1,1,0,2Z"/><path class="cls-1" d="M28.72,67.9H26.05a1,1,0,0,1-1-1,1,1,0,0,1,1-1h2.67a1,1,0,0,1,0,2Z"/><path class="cls-1" d="M60.53,73.62a1,1,0,0,1-1-1V67.86l-28.21,0h0a1,1,0,1,1,0-2l29.21,0h0a1,1,0,0,1,1,1v3.33L72.19,59.48,61.51,48.78v3.34a1,1,0,0,1-1,1L44,53.17h0a1,1,0,0,1,0-2l15.56-.05V46.36a1,1,0,0,1,1.71-.7L74.31,58.77a1,1,0,0,1,0,1.41L61.24,73.32A1,1,0,0,1,60.53,73.62Z"/></svg>