<svg id="Camada_1" data-name="Camada 1" xmlns="http://www.w3.org/2000/svg" viewBox="0 0 100 100"><defs><style>.cls-1{fill:#10a372;}.cls-2{fill:#03132e;}</style></defs><path class="cls-1" d="M39.37,45.25a5.76,5.76,0,1,1,5.76-5.76A5.76,5.76,0,0,1,39.37,45.25Zm0-9.52a3.76,3.76,0,1,0,3.76,3.76A3.76,3.76,0,0,0,39.37,35.73Z"/><path class="cls-2" d="M38.46,53.83A2.85,2.85,0,0,1,35.59,51a.86.86,0,0,0-.53-.81l-.15-.06a.83.83,0,0,0-.93.19,2.89,2.89,0,0,1-4.07,0L28.59,49a2.88,2.88,0,0,1,0-4.06.84.84,0,0,0,.2-.95l0-.1a.88.88,0,0,0-.81-.57h0a2.86,2.86,0,0,1-2-.84,2.81,2.81,0,0,1-.84-2V38.59a2.88,2.88,0,0,1,.83-2,2.85,2.85,0,0,1,2-.84.89.89,0,0,0,.83-.54l.06-.14a.86.86,0,0,0-.19-.94,2.91,2.91,0,0,1-.86-2,2.85,2.85,0,0,1,.84-2l1.31-1.33a2.9,2.9,0,0,1,2-.85h0a2.86,2.86,0,0,1,2,.84.84.84,0,0,0,.95.2l.14-.06a.83.83,0,0,0,.53-.79A2.85,2.85,0,0,1,36.37,26a2.82,2.82,0,0,1,2-.85h1.88A2.86,2.86,0,0,1,43.14,28a.85.85,0,0,0,.53.82l.15.06a.83.83,0,0,0,.93-.18,2.86,2.86,0,0,1,2-.86h0a2.84,2.84,0,0,1,2,.83L50.15,30a2.87,2.87,0,0,1,0,4.05.86.86,0,0,0-.2,1l.06.15a.86.86,0,0,0,.79.52h0a2.89,2.89,0,0,1,2,.83,2.85,2.85,0,0,1,.84,2v1.86a2.87,2.87,0,0,1-2.86,2.88.9.9,0,0,0-.84.59.91.91,0,0,0,.15,1,2.87,2.87,0,0,1,0,4.06l-1.32,1.33a2.9,2.9,0,0,1-2,.85h0a2.88,2.88,0,0,1-2-.83.88.88,0,0,0-1-.21l-.11.05a.86.86,0,0,0-.56.8,2.89,2.89,0,0,1-2.85,2.9H38.46ZM35.8,48.3a2.84,2.84,0,0,1,1.79,2.64.88.88,0,0,0,.25.64.86.86,0,0,0,.62.25h1.87a.87.87,0,0,0,.86-.87A2.84,2.84,0,0,1,43,48.29l.12,0a2.81,2.81,0,0,1,3.11.6.89.89,0,0,0,.64.28,1.08,1.08,0,0,0,.61-.26l1.32-1.33a.87.87,0,0,0,0-1.22,3,3,0,0,1,2.06-5,.85.85,0,0,0,.64-.26.86.86,0,0,0,.25-.61V38.53a.86.86,0,0,0-.25-.61.88.88,0,0,0-.61-.25h0a2.83,2.83,0,0,1-2.65-1.77l-.05-.12a2.84,2.84,0,0,1,.6-3.13.86.86,0,0,0,0-1.24l-1.33-1.32a.86.86,0,0,0-.61-.25h0a.86.86,0,0,0-.61.25,2.84,2.84,0,0,1-3.14.64l-.14-.06a2.84,2.84,0,0,1-1.77-2.62.87.87,0,0,0-.87-.9H38.4a.85.85,0,0,0-.61.26.86.86,0,0,0-.25.61,2.83,2.83,0,0,1-1.77,2.67l-.1,0a2.84,2.84,0,0,1-3.14-.59.87.87,0,0,0-.63-.28h0a.94.94,0,0,0-.61.26L30,31.45a.83.83,0,0,0-.26.61.92.92,0,0,0,.26.61,2.85,2.85,0,0,1,.63,3.14l-.05.11a2.85,2.85,0,0,1-2.63,1.8.89.89,0,0,0-.65.25.88.88,0,0,0-.25.61v1.87a.89.89,0,0,0,.25.62.86.86,0,0,0,.61.25h0a2.85,2.85,0,0,1,2.66,1.77l-.88.5.92-.39a2.82,2.82,0,0,1-.6,3.13.88.88,0,0,0,0,1.25l1.32,1.31a.87.87,0,0,0,1.23,0,2.86,2.86,0,0,1,3.13-.64l-.25,1Z"/><path class="cls-1" d="M61.1,66.73H61a6,6,0,1,1,.15,0Zm0-9.52a3.76,3.76,0,0,0-2.73,6.35A3.73,3.73,0,0,0,61,64.73a3.76,3.76,0,1,0,.2-7.52Z"/><path class="cls-2" d="M57.76,74.85a2.9,2.9,0,0,1-1-.19L55,74a2.86,2.86,0,0,1-1.59-1.52,2.89,2.89,0,0,1,0-2.2.85.85,0,0,0-.2-1l-.1-.1a.88.88,0,0,0-1-.17,2.87,2.87,0,0,1-3.79-1.47l-.74-1.71a2.86,2.86,0,0,1,1.47-3.78.86.86,0,0,0,.54-.82v-.1a.88.88,0,0,0-.54-.84,2.86,2.86,0,0,1-1.63-3.72l.67-1.73a2.88,2.88,0,0,1,3.72-1.63.91.91,0,0,0,1-.24A.92.92,0,0,0,53,52a2.87,2.87,0,0,1,1.48-3.79l1.7-.74A2.88,2.88,0,0,1,60,48.93a.81.81,0,0,0,.82.54H61a.86.86,0,0,0,.78-.54,2.85,2.85,0,0,1,3.72-1.64l1.73.68a2.86,2.86,0,0,1,1.63,3.71.9.9,0,0,0,.24,1,.93.93,0,0,0,1,.24,2.87,2.87,0,0,1,3.78,1.47l.75,1.71a2.87,2.87,0,0,1-1.48,3.78.85.85,0,0,0-.54.82v.14a.86.86,0,0,0,.54.79,2.87,2.87,0,0,1,1.64,3.72l-.67,1.74a2.86,2.86,0,0,1-1.53,1.58,2.82,2.82,0,0,1-2.19,0,.85.85,0,0,0-1,.2l-.1.1a.84.84,0,0,0-.18.94,2.88,2.88,0,0,1-1.47,3.8L66,74.49A2.87,2.87,0,0,1,62.19,73a.78.78,0,0,0-.81-.53h-.15a.86.86,0,0,0-.79.54A2.88,2.88,0,0,1,57.76,74.85ZM52.47,67a2.82,2.82,0,0,1,2,.81l.09.09a2.81,2.81,0,0,1,.69,3.1.87.87,0,0,0,0,.69.82.82,0,0,0,.47.46l1.74.68a.85.85,0,0,0,1.12-.49,2.84,2.84,0,0,1,2.63-1.82h.13A2.94,2.94,0,0,1,64,72.19a.86.86,0,0,0,.49.48.84.84,0,0,0,.66,0l1.71-.75a.87.87,0,0,0,.45-1.14,2.84,2.84,0,0,1,.57-3.16l.08-.09h0a2.86,2.86,0,0,1,3.11-.68.91.91,0,0,0,.69,0,.9.9,0,0,0,.46-.48l.68-1.74a.86.86,0,0,0-.49-1.12,2.86,2.86,0,0,1-1.83-2.64v-.12a2.83,2.83,0,0,1,1.71-2.68.9.9,0,0,0,.49-.49.86.86,0,0,0,0-.67L72,55.2a.87.87,0,0,0-1.14-.45A3,3,0,0,1,67,51a.87.87,0,0,0-.49-1.14l-1.73-.68a.84.84,0,0,0-.66,0,.86.86,0,0,0-.46.48A2.85,2.85,0,0,1,61,51.47h-.13a2.87,2.87,0,0,1-2.68-1.7A.88.88,0,0,0,57,49.28l-1.7.75a.87.87,0,0,0-.45,1.14A3,3,0,0,1,51.1,55.1a.87.87,0,0,0-1.14.49l-.68,1.73a.87.87,0,0,0,.49,1.13,2.84,2.84,0,0,1,1.82,2.63v.12a2.83,2.83,0,0,1-1.71,2.69.94.94,0,0,0-.49.49.86.86,0,0,0,0,.67l.74,1.71a.88.88,0,0,0,1.15.44A3,3,0,0,1,52.47,67Z"/></svg>