<svg id="Camada_1" data-name="Camada 1" xmlns="http://www.w3.org/2000/svg" viewBox="0 0 100 100"><defs><style>.cls-1{fill:#03132e;}.cls-2{fill:#10a372;}</style></defs><path class="cls-1" d="M53.62,40.74H36.79a1,1,0,0,1,0-2H53.62a1,1,0,0,1,0,2Z"/><path class="cls-1" d="M53.62,46.27H36.79a1,1,0,0,1,0-2H53.62a1,1,0,0,1,0,2Z"/><path class="cls-1" d="M53.62,51.81H36.79a1,1,0,1,1,0-2H53.62a1,1,0,1,1,0,2Z"/><path class="cls-2" d="M45.22,60.93a15.66,15.66,0,1,1,10-3.64A15.63,15.63,0,0,1,45.22,60.93Zm0-29.32a13.67,13.67,0,1,0,10.51,4.91h0a13.59,13.59,0,0,0-9.27-4.85C46,31.63,45.59,31.61,45.18,31.61Z"/><path class="cls-2" d="M45.24,65.5c-.61,0-1.23,0-1.84-.09a20.22,20.22,0,1,1,17.32-33.1h0A20.23,20.23,0,0,1,45.24,65.5Zm-.05-38.44a18.22,18.22,0,1,0,14,6.53h0A18.18,18.18,0,0,0,45.19,27.06Z"/><path class="cls-2" d="M68.77,75a1,1,0,0,1-.7-.29L55.21,61.8a1,1,0,0,1,0-1.42,1,1,0,0,1,1.41,0L68.77,72.53l3.84-3.83L60.68,56.77a1,1,0,0,1,1.41-1.41L74.73,68a1,1,0,0,1,0,1.41l-5.25,5.25A1,1,0,0,1,68.77,75Z"/></svg>