<svg id="Camada_1" data-name="Camada 1" xmlns="http://www.w3.org/2000/svg" viewBox="0 0 100 100"><defs><style>.cls-1{fill:#03132e;}.cls-2{fill:#10a372;}</style></defs><path class="cls-1" d="M37.38,40.11H31.06a1,1,0,0,1,0-2h6.32a1,1,0,1,1,0,2Z"/><path class="cls-1" d="M37.38,44.66H31.06a1,1,0,0,1,0-2h6.32a1,1,0,0,1,0,2Z"/><path class="cls-1" d="M37.38,49.21H31.06a1,1,0,1,1,0-2h6.32a1,1,0,0,1,0,2Z"/><path class="cls-2" d="M49.21,48.34H43.45a1,1,0,0,1,0-2h5.76a1,1,0,1,1,0,2Z"/><path class="cls-2" d="M49.21,52.89H43.45a1,1,0,0,1,0-2h5.76a1,1,0,0,1,0,2Z"/><path class="cls-2" d="M49.21,57.45H43.45a1,1,0,0,1,0-2h5.76a1,1,0,0,1,0,2Z"/><path class="cls-1" d="M42.53,34.71h0a1,1,0,0,1-1-1V27a1,1,0,0,1,1-1h0a1,1,0,0,1,1,1v6.68A1,1,0,0,1,42.53,34.71Z"/><path class="cls-1" d="M34.21,60.89a1,1,0,0,1-.63-.22l-1.49-1.19-1.5,1.19a1,1,0,0,1-1.24,0l-1.5-1.19-1,.78a1,1,0,0,1-1.62-.78l-.13-33.66a1,1,0,0,1,1-1h16.2a1,1,0,0,1,.69.28l8.26,8.07a1,1,0,1,1-1.4,1.43l-8-7.78H27.12l.12,30.6a1,1,0,0,1,1.23,0L30,58.61l1.5-1.19a1,1,0,0,1,1.24,0l1.5,1.19,1.49-1.19a1,1,0,0,1,1.38.13l1.46,1.67A1,1,0,0,1,37,60.53l-.83-1-1.37,1.09A1,1,0,0,1,34.21,60.89Z"/><path class="cls-2" d="M54.19,41.09a1,1,0,0,1-1-1l0-4.94a1,1,0,0,1,1-1h0a1,1,0,0,1,1,1l0,4.94a1,1,0,0,1-1,1Z"/><path class="cls-2" d="M45.82,69a1,1,0,0,1-.62-.22l-1.5-1.19-1.49,1.18a1,1,0,0,1-1.25,0l-1.49-1.18-1,.78a1,1,0,0,1-1.06.11,1,1,0,0,1-.56-.89L36.74,34a1,1,0,0,1,1-1H53.93a1,1,0,0,1,.71.29l6,6a1,1,0,1,1-1.41,1.42l-5.75-5.69H38.74l.12,30.6a1,1,0,0,1,1.23,0l1.5,1.18,1.49-1.18a1,1,0,0,1,1.25,0l1.49,1.19,1.5-1.19a1,1,0,0,1,1.24,0l1.34,1a1,1,0,0,1-1.24,1.57l-.72-.56L46.45,68.8A1.07,1.07,0,0,1,45.82,69Z"/><path class="cls-1" d="M72.78,49.25h-7a1,1,0,0,1-1-1V41.33a1,1,0,0,1,2,0v5.92h6a1,1,0,0,1,0,2Z"/><path class="cls-1" d="M65.92,75.19a1,1,0,0,1-.63-.22l-1.5-1.19L62.3,75a1,1,0,0,1-1.24,0l-1.5-1.18L58.06,75a1,1,0,0,1-1.24,0l-1.5-1.19L53.82,75a1,1,0,0,1-1.24,0l-1.5-1.18-1,.78a1,1,0,0,1-1.06.12,1,1,0,0,1-.57-.9l-.13-33.66a1,1,0,0,1,.3-.71,1,1,0,0,1,.7-.3h16.2a1,1,0,0,1,.7.29l8.33,8.2a1,1,0,0,1,.3.72V73.77a1,1,0,0,1-1.62.79l-1-.78L70.77,75a1,1,0,0,1-1.24,0L68,73.78,66.54,75A1,1,0,0,1,65.92,75.19ZM63.8,71.5a1,1,0,0,1,.62.22l1.5,1.19,1.49-1.19a1,1,0,0,1,1.25,0l1.49,1.18,1.51-1.18a1,1,0,0,1,1.22,0v-23L65.14,41.1H50.36l.12,30.6a1,1,0,0,1,1.22,0l1.5,1.18,1.5-1.18a1,1,0,0,1,1.24,0l1.5,1.19,1.5-1.19a1,1,0,0,1,1.24,0l1.5,1.18,1.5-1.18A1,1,0,0,1,63.8,71.5Z"/><path class="cls-1" d="M69.53,55.6H53.7a1,1,0,0,1,0-2H69.53a1,1,0,0,1,0,2Z"/><path class="cls-1" d="M69.53,60.15H53.7a1,1,0,0,1,0-2H69.53a1,1,0,0,1,0,2Z"/><path class="cls-1" d="M69.53,64.7H53.7a1,1,0,0,1,0-2H69.53a1,1,0,0,1,0,2Z"/></svg>