<svg id="Camada_1" data-name="Camada 1" xmlns="http://www.w3.org/2000/svg" viewBox="0 0 100 100"><defs><style>.cls-1{fill:#03132e;}.cls-2{fill:#10a372;}</style></defs><path class="cls-1" d="M50,74.78a.91.91,0,0,1-.48-.13l-23-12.49a1,1,0,0,1-.52-.88,1,1,0,0,1,.52-.88L36.7,54.87a1,1,0,1,1,1,1.76l-8.55,4.65L50,72.64,70.89,61.28l-8.48-4.61a1,1,0,1,1,1-1.76L73.46,60.4a1,1,0,0,1,.52.88,1,1,0,0,1-.52.88l-23,12.49A.94.94,0,0,1,50,74.78Z"/><path class="cls-2" d="M50,63.5a1,1,0,0,1-.48-.12l-23-12.5a1,1,0,0,1,0-1.76l10.38-5.64a1,1,0,1,1,1,1.75L29.11,50,50,61.36,70.89,50l-8.43-4.58a1,1,0,1,1,1-1.76l10,5.46a1,1,0,0,1,0,1.76l-23,12.5A1,1,0,0,1,50,63.5Z"/><path class="cls-1" d="M50,52.22a1,1,0,0,1-.48-.12l-23-12.5a1,1,0,0,1-.52-.88,1,1,0,0,1,.52-.88l23-12.49a1,1,0,0,1,1,0l23,12.49a1,1,0,0,1,.52.88,1,1,0,0,1-.52.88l-23,12.5A1,1,0,0,1,50,52.22ZM29.11,38.72,50,50.08,70.89,38.72,50,27.36Z"/></svg>