<svg id="Camada_1" data-name="Camada 1" xmlns="http://www.w3.org/2000/svg" viewBox="0 0 100 100"><defs><style>.cls-1{fill:#10a372;}.cls-2{fill:#03132e;}</style></defs><path class="cls-1" d="M68.13,46.08H31.87a1,1,0,0,1,0-2H68.13a1,1,0,0,1,0,2Z"/><path class="cls-1" d="M68.13,50.32H44.67a1,1,0,0,1,0-2H68.13a1,1,0,0,1,0,2Z"/><path class="cls-1" d="M39.55,50.32H31.87a1,1,0,1,1,0-2h7.68a1,1,0,0,1,0,2Z"/><path class="cls-1" d="M68.13,54.56h-5.7a1,1,0,0,1,0-2h5.7a1,1,0,0,1,0,2Z"/><path class="cls-1" d="M57.23,54.56H31.87a1,1,0,0,1,0-2H57.23a1,1,0,0,1,0,2Z"/><path class="cls-1" d="M68.13,58.8H52.35a1,1,0,0,1,0-2H68.13a1,1,0,0,1,0,2Z"/><path class="cls-1" d="M47.56,58.8H31.87a1,1,0,0,1,0-2H47.56a1,1,0,0,1,0,2Z"/><path class="cls-1" d="M68.13,63H31.87a1,1,0,1,1,0-2H68.13a1,1,0,0,1,0,2Z"/><path class="cls-1" d="M73.66,40.1H26.11a1,1,0,0,1,0-2H73.66a1,1,0,0,1,0,2Z"/><path class="cls-1" d="M31,36.67H29.53a1,1,0,0,1,0-2H31a1,1,0,1,1,0,2Z"/><path class="cls-1" d="M35.53,36.67H34a1,1,0,0,1,0-2h1.49a1,1,0,0,1,0,2Z"/><path class="cls-1" d="M40,36.67H38.55a1,1,0,0,1,0-2H40a1,1,0,1,1,0,2Z"/><path class="cls-2" d="M74,68.89H26a1,1,0,0,1-1-1V32.11a1,1,0,0,1,1-1H74a1,1,0,0,1,1,1V67.89A1,1,0,0,1,74,68.89Zm-47-2H73V33.11H27Z"/></svg>