<svg id="Camada_1" data-name="Camada 1" xmlns="http://www.w3.org/2000/svg" viewBox="0 0 100 100"><defs><style>.cls-1{fill:#10a372;}.cls-2{fill:#03132e;}</style></defs><path class="cls-1" d="M26.73,65.35a1,1,0,0,1-1-1V34.8a1,1,0,0,1,2,0V64.35A1,1,0,0,1,26.73,65.35Z"/><path class="cls-1" d="M50.78,61.75a1,1,0,0,1-1-1V34.8a1,1,0,0,1,2,0v26A1,1,0,0,1,50.78,61.75Z"/><path class="cls-1" d="M38.75,40.59c-6.31,0-13-2.05-13-5.84s6.71-5.84,13-5.84,13,2,13,5.84S45.07,40.59,38.75,40.59Zm0-9.68c-6.83,0-11,2.23-11,3.84s4.19,3.84,11,3.84,11-2.24,11-3.84S45.58,30.91,38.75,30.91Z"/><path class="cls-1" d="M38.75,46.5c-6.31,0-13-2-13-5.84a1,1,0,0,1,2,0c0,1.6,4.19,3.84,11,3.84s11-2.24,11-3.84a1,1,0,0,1,2,0C51.78,44.45,45.07,46.5,38.75,46.5Z"/><path class="cls-1" d="M38.75,52.41c-6.31,0-13-2-13-5.84a1,1,0,0,1,2,0c0,1.6,4.19,3.84,11,3.84s11-2.24,11-3.84a1,1,0,1,1,2,0C51.78,50.36,45.07,52.41,38.75,52.41Z"/><path class="cls-1" d="M38.75,58.32c-6.31,0-13-2-13-5.84a1,1,0,0,1,2,0c0,1.6,4.19,3.84,11,3.84s11-2.24,11-3.84a1,1,0,1,1,2,0C51.78,56.27,45.07,58.32,38.75,58.32Z"/><path class="cls-1" d="M38.75,64.23c-6.31,0-13-2.05-13-5.84a1,1,0,1,1,2,0c0,1.6,4.19,3.84,11,3.84s11-2.24,11-3.84a1,1,0,0,1,2,0C51.78,62.18,45.07,64.23,38.75,64.23Z"/><path class="cls-1" d="M38.75,70.14c-6.31,0-13-2-13-5.84a1,1,0,0,1,2,0c0,1.61,4.19,3.84,11,3.84s11-2.23,11-3.84a1,1,0,0,1,2,0C51.78,68.1,45.07,70.14,38.75,70.14Z"/><path class="cls-2" d="M60.15,74.78a1,1,0,0,1-.71-.29L46.31,61.41A1,1,0,0,1,47,59.7h4.75V37.2a1,1,0,0,1,2,0V60.7a1,1,0,0,1-1,1H49.44L60.15,72.37,70.85,61.7H67.51a1,1,0,0,1-1-1l-.05-23.5a1,1,0,0,1,1-1h0a1,1,0,0,1,1,1l.05,22.5h4.76a1,1,0,0,1,.93.62A1,1,0,0,1,74,61.41L60.86,74.49A1,1,0,0,1,60.15,74.78Z"/><path class="cls-2" d="M52.82,35.58a1,1,0,0,1-1-1V30.65a1,1,0,0,1,2,0v3.93A1,1,0,0,1,52.82,35.58Z"/><path class="cls-2" d="M52.82,29.22a1,1,0,0,1-1-1v-2a1,1,0,1,1,2,0v2A1,1,0,0,1,52.82,29.22Z"/><path class="cls-2" d="M67.41,35.58a1,1,0,0,1-1-1V30.65a1,1,0,0,1,2,0v3.93A1,1,0,0,1,67.41,35.58Z"/><path class="cls-2" d="M67.41,29.22a1,1,0,0,1-1-1v-2a1,1,0,0,1,2,0v2A1,1,0,0,1,67.41,29.22Z"/></svg>