<svg id="Camada_1" data-name="Camada 1" xmlns="http://www.w3.org/2000/svg" viewBox="0 0 100 100"><defs><style>.cls-1{fill:#03132e;}.cls-2{fill:#10a372;}</style></defs><path class="cls-1" d="M61.18,70.67h0a1,1,0,0,1-1-1l0-24.28a1,1,0,0,1,1-1h0a1,1,0,0,1,1,1l0,24.29A1,1,0,0,1,61.18,70.67Z"/><path class="cls-1" d="M61.24,40h0a1,1,0,0,1-1-1V36.29a1,1,0,0,1,1-1h0a1,1,0,0,1,1,1V39A1,1,0,0,1,61.24,40Z"/><path class="cls-1" d="M50.05,70.66h0a1,1,0,0,1-1-1l0-13.36a1,1,0,0,1,1-1h0a1,1,0,0,1,1,1l0,13.37A1,1,0,0,1,50.05,70.66Z"/><path class="cls-1" d="M50.09,51h0a1,1,0,0,1-1-1l0-13.72a1,1,0,0,1,1-1h0a1,1,0,0,1,1,1l0,13.72A1,1,0,0,1,50.09,51Z"/><path class="cls-1" d="M38.93,70.64h0a1,1,0,0,1-1-1V67.18a1,1,0,0,1,1-1h0a1,1,0,0,1,1,1v2.45A1,1,0,0,1,38.93,70.64Z"/><path class="cls-1" d="M38.94,62.25h0a1,1,0,0,1-1-1l0-25a1,1,0,0,1,1-1h0a1,1,0,0,1,1,1l0,25A1,1,0,0,1,38.94,62.25Z"/><path class="cls-2" d="M60.4,40h1.67a1,1,0,0,1,1,1V42.7a1,1,0,0,1-1,1H60.39a1,1,0,0,1-1-1V41a1,1,0,0,1,1-1m0-2h0a3,3,0,0,0-3,3v1.67a3,3,0,0,0,3,3h1.67a3,3,0,0,0,3-3V41a3,3,0,0,0-3-3Z"/><path class="cls-2" d="M38.1,62.23h1.67a1,1,0,0,1,1,1V64.9a1,1,0,0,1-1,1H38.1a1,1,0,0,1-1-1V63.23a1,1,0,0,1,1-1m0-2h0a3,3,0,0,0-3,3v1.66a3,3,0,0,0,3,3h1.66a3,3,0,0,0,3-3V63.24a3,3,0,0,0-3-3Z"/><path class="cls-2" d="M49.25,51.13h1.67a1,1,0,0,1,1,1V53.8a1,1,0,0,1-1,1H49.25a1,1,0,0,1-1-1V52.13a1,1,0,0,1,1-1m0-2h0a3,3,0,0,0-3,3v1.67a3,3,0,0,0,3,3h1.67a3,3,0,0,0,3-3V52.14a3,3,0,0,0-3-3Z"/><path class="cls-2" d="M73.82,78h0L26.1,77.86a1,1,0,0,1-1-1l.08-47.72a1,1,0,0,1,1-1h0l47.71.08a1,1,0,0,1,.71.29,1,1,0,0,1,.29.71L74.82,77a1,1,0,0,1-1,1ZM27.1,75.87l45.72.07.08-45.72-45.72-.07Z"/></svg>