<svg id="Camada_1" data-name="Camada 1" xmlns="http://www.w3.org/2000/svg" viewBox="0 0 100 100"><defs><style>.cls-1{fill:#03132e;}.cls-2{fill:#10a372;}</style></defs><path class="cls-1" d="M45.59,64.91h0l-10.51,0a1,1,0,0,1-.7-.29l-8.94-8.86a1,1,0,0,1-.29-.71V26.51a1,1,0,0,1,1-1h28a1,1,0,0,1,1,1v9.62a1,1,0,0,1-2,0V27.51h-26V54.6l8.35,8.28,10.1,0a1,1,0,0,1,1,1A1,1,0,0,1,45.59,64.91Z"/><path class="cls-1" d="M35.91,64.24a1,1,0,0,1-1-1V55H26.53a1,1,0,1,1,0-2h9.38a1,1,0,0,1,1,1v9.26A1,1,0,0,1,35.91,64.24Z"/><path class="cls-2" d="M73.86,74.49h-28a1,1,0,0,1-1-1V36.05a1,1,0,0,1,1-1h0l19.08.08a1,1,0,0,1,.7.29l8.94,8.86a1,1,0,0,1,.29.71v28.5A1,1,0,0,1,73.86,74.49Zm-27-2h26V45.4l-8.35-8.27-17.67-.07Z"/><path class="cls-2" d="M73.47,47H64.09a1,1,0,0,1-1-1V36.76a1,1,0,1,1,2,0V45h8.38a1,1,0,0,1,0,2Z"/></svg>