<svg id="Camada_1" data-name="Camada 1" xmlns="http://www.w3.org/2000/svg" viewBox="0 0 100 100"><defs><style>.cls-1{fill:#10a372;}.cls-2{fill:#03132e;}</style></defs><path class="cls-1" d="M68,34.82H31.94a1,1,0,0,1,0-2H68a1,1,0,0,1,0,2Z"/><path class="cls-2" d="M45.8,74.52a1,1,0,0,1-1-1V55.15L25.87,27a1,1,0,0,1-.05-1,1,1,0,0,1,.88-.53H73.3a1,1,0,0,1,.88.53,1,1,0,0,1-.05,1l-19,28.1v12a1,1,0,0,1-.39.79l-8.36,6.36A1,1,0,0,1,45.8,74.52Zm-17.22-47L46.63,54.29a.93.93,0,0,1,.17.56V71.5l6.36-4.84V54.84a1,1,0,0,1,.17-.56l18.09-26.8Z"/></svg>