<svg id="Camada_1" data-name="Camada 1" xmlns="http://www.w3.org/2000/svg" viewBox="0 0 100 100"><defs><style>.cls-1{fill:#03132e;}.cls-2{fill:#10a372;}</style></defs><path class="cls-1" d="M60,74.87a1,1,0,0,1-.62-.22l-3.09-2.46-3.08,2.44a1,1,0,0,1-1.24,0l-3.09-2.44-3.08,2.45a1,1,0,0,1-1.25,0L41.5,72.19l-3.09,2.44a1,1,0,0,1-1.24,0l-3.08-2.44-2.18,1.73a1,1,0,0,1-1.06.12,1,1,0,0,1-.57-.9l-.22-47a1,1,0,0,1,.29-.71,1,1,0,0,1,.71-.29l42.9,0h0a1,1,0,0,1,1,1v47a1,1,0,0,1-.56.9,1,1,0,0,1-1.06-.12l-2.18-1.73-3.1,2.44a1,1,0,0,1-1.24,0l-3.08-2.44-3.09,2.46A1,1,0,0,1,60,74.87Zm-3.71-5a1,1,0,0,1,.63.22L60,72.59l3.08-2.46a1,1,0,0,1,1.25,0l3.08,2.45,3.1-2.45a1,1,0,0,1,1.24,0l1.18.94V27.13l-40.9,0,.21,43.92,1.19-.94a1,1,0,0,1,1.25,0l3.08,2.44,3.09-2.44a1,1,0,0,1,1.24,0l3.08,2.45,3.09-2.45a1,1,0,0,1,1.24,0l3.09,2.44,3.08-2.44A1,1,0,0,1,56.32,69.91Z"/><path class="cls-1" d="M26,57.76a.94.94,0,0,1-.43-.1,1,1,0,0,1-.57-.9V29.62c0-2.73,1.5-4.49,3.83-4.49h2.19a1,1,0,1,1,0,2H28.87c-1.59,0-1.83,1.56-1.83,2.49v25l3.38-2.81a1,1,0,1,1,1.28,1.53l-5,4.19A1,1,0,0,1,26,57.76Z"/><path class="cls-2" d="M51.37,54.38h0a1,1,0,0,1-.7-.29l-4-4a1,1,0,0,1,0-1.41,1,1,0,0,1,1.42,0L51.37,52l6.05-6.05a1,1,0,0,1,1.42,1.42l-6.76,6.76A1,1,0,0,1,51.37,54.38Z"/><path class="cls-2" d="M51.87,62.88A12.9,12.9,0,1,1,64.75,50,12.9,12.9,0,0,1,51.87,62.88Zm0-23.76a10.88,10.88,0,1,0,10.21,7.12A10.89,10.89,0,0,0,51.87,39.12Z"/></svg>