<svg id="Camada_1" data-name="Camada 1" xmlns="http://www.w3.org/2000/svg" viewBox="0 0 100 100"><defs><style>.cls-1{fill:#10a372;}.cls-2{fill:#03132e;}</style></defs><path class="cls-1" d="M64.89,56.38H35.1a10.12,10.12,0,0,1,0-20.23,10.35,10.35,0,0,1,2.22.25,12.57,12.57,0,0,1,25,.08,10,10,0,0,1,2.55-.33,10.12,10.12,0,0,1,0,20.23ZM35.1,38.15a8.12,8.12,0,0,0,0,16.23H64.89a8.12,8.12,0,0,0,0-16.23,8,8,0,0,0-3.11.63,1,1,0,0,1-.93-.09,1,1,0,0,1-.45-.84v-.18a10.58,10.58,0,0,0-21.15,0,1,1,0,0,1-.43.84,1,1,0,0,1-.92.14A8.1,8.1,0,0,0,35.1,38.15Z"/><path class="cls-2" d="M35.09,74.9a1,1,0,0,1-1-1V66.48a1,1,0,0,1,.32-.73l4.35-4.06V48.86a1,1,0,0,1,2,0V62.13a1,1,0,0,1-.31.73l-4.36,4.06v7A1,1,0,0,1,35.09,74.9Z"/><path class="cls-2" d="M64.91,74.9a1,1,0,0,1-1-1V67.73l-4.36-4.06a1,1,0,0,1-.31-.73V48.86a1,1,0,0,1,2,0V62.51l4.35,4.06a1,1,0,0,1,.32.73v6.6A1,1,0,0,1,64.91,74.9Z"/><path class="cls-2" d="M50,74.9a1,1,0,0,1-1-1V41.69a1,1,0,0,1,2,0V73.9A1,1,0,0,1,50,74.9Z"/><path class="cls-2" d="M39.68,49.39a3.79,3.79,0,1,1,3.79-3.78A3.79,3.79,0,0,1,39.68,49.39Zm0-5.57a1.79,1.79,0,1,0,1.79,1.79A1.79,1.79,0,0,0,39.68,43.82Z"/><path class="cls-2" d="M60.23,49.39A3.79,3.79,0,1,1,64,45.61,3.79,3.79,0,0,1,60.23,49.39Zm0-5.57A1.79,1.79,0,1,0,62,45.61,1.79,1.79,0,0,0,60.23,43.82Z"/><path class="cls-2" d="M50,42.69a3.79,3.79,0,1,1,3.79-3.79A3.79,3.79,0,0,1,50,42.69Zm0-5.57a1.79,1.79,0,1,0,1.79,1.78A1.79,1.79,0,0,0,50,37.12Z"/></svg>