<svg id="Camada_1" data-name="Camada 1" xmlns="http://www.w3.org/2000/svg" viewBox="0 0 100 100"><defs><style>.cls-1{fill:#03132e;}.cls-2{fill:#10a372;}</style></defs><path class="cls-1" d="M55.53,33.28,67.6,45.34l0,33.94H32.35v-46H55.53m.82-2h-26v50h39.3L69.6,44.51,56.35,31.28Z"/><path class="cls-1" d="M68.16,45.67H56.1a1,1,0,0,1-1-1V32.89a1,1,0,0,1,2,0V43.67H68.16a1,1,0,0,1,0,2Z"/><path class="cls-2" d="M50,62.86c-6.38,0-11.41-5.84-11.62-6.09a1,1,0,0,1,0-1.31c.21-.24,5.23-5.76,11.6-5.76s11.39,5.52,11.6,5.76a1,1,0,0,1,0,1.31C61.41,57,56.38,62.86,50,62.86Zm-9.46-6.72C42,57.58,45.73,60.86,50,60.86s8-3.28,9.46-4.72C58,54.77,54.27,51.7,50,51.7S42,54.77,40.54,56.14Z"/><path class="cls-2" d="M50,60.25a4,4,0,1,1,4-4A4,4,0,0,1,50,60.25Zm0-5.94a2,2,0,1,0,2,2A2,2,0,0,0,50,54.31Z"/></svg>