<svg id="Camada_1" data-name="Camada 1" xmlns="http://www.w3.org/2000/svg" viewBox="0 0 100 100"><defs><style>.cls-1{fill:#10a372;}.cls-2{fill:#03132e;}</style></defs><path class="cls-1" d="M53.6,62.9a1,1,0,0,1-.73-1.69L54,60l-1.62-1.52-4.1-3.69a1,1,0,0,1,1.34-1.48L53.72,57l2.37,2.21a1,1,0,0,1,.31.7,1,1,0,0,1-.26.71l-.16.17,5.11-.18-.17-5.11-.16.17a1,1,0,0,1-1.4.06l-6.48-5.89a1,1,0,0,1,1.34-1.48L60,53.6l1.13-1.21a1,1,0,0,1,1.73.65l.28,8.52a1,1,0,0,1-1,1l-8.52.31Z"/><path class="cls-1" d="M47.27,53.39a1,1,0,0,1-.68-.26l-1.32-1.22a1,1,0,0,1,1.35-1.47l1.32,1.22a1,1,0,0,1-.67,1.73Z"/><path class="cls-1" d="M44.18,50.45a1,1,0,0,1-.68-.27l-.67-.63a1,1,0,1,1,1.36-1.46l.67.63a1,1,0,0,1,0,1.41A1,1,0,0,1,44.18,50.45Z"/><path class="cls-1" d="M51.85,48.49a1,1,0,0,1-.68-.27L49.85,47a1,1,0,1,1,1.36-1.47l1.32,1.21a1,1,0,0,1,0,1.41A1,1,0,0,1,51.85,48.49Z"/><path class="cls-1" d="M48.76,45.54a1,1,0,0,1-.68-.27l-.67-.62a1,1,0,0,1,1.36-1.47l.67.63a1,1,0,0,1,.05,1.41A1,1,0,0,1,48.76,45.54Z"/><path class="cls-2" d="M56.92,74.68a1,1,0,0,1-.69-.27L32.77,51.9a1,1,0,0,1-.3-.83L34.11,36A1,1,0,0,1,35,35.1l15.12-2.38a1,1,0,0,1,.85.27l23.46,22.5a1,1,0,0,1,0,1.42L57.65,74.38a1,1,0,0,1-.71.3ZM34.51,50.8,56.89,72.27l15.38-16L49.89,34.78,36,37Z"/><path class="cls-2" d="M42,45.58a3.27,3.27,0,1,1,3.26-3.26A3.27,3.27,0,0,1,42,45.58Zm0-4.53a1.27,1.27,0,1,0,1.26,1.27A1.27,1.27,0,0,0,42,41.05Z"/><path class="cls-2" d="M43.71,41.34a1.5,1.5,0,0,1-1.15-2.46c.18-.23,1.59-2.17-.66-5-.73-.92-3.34-.67-5.64-.46-3.18.3-6.77.63-9-1.42a6.73,6.73,0,0,1-1.92-5.23,1.5,1.5,0,0,1,1.5-1.5h0a1.5,1.5,0,0,1,1.5,1.5,3.89,3.89,0,0,0,.94,3c1.27,1.16,4.17.89,6.72.65,3.2-.29,6.52-.6,8.26,1.57,3.11,3.86,1.76,7.42.61,8.76A1.5,1.5,0,0,1,43.71,41.34Z"/></svg>