<svg id="Camada_1" data-name="Camada 1" xmlns="http://www.w3.org/2000/svg" viewBox="0 0 100 100"><defs><style>.cls-1{fill:#03132e;}.cls-2{fill:#10a372;}</style></defs><path class="cls-1" d="M26,44.44a1,1,0,0,1-.92-.62,1,1,0,0,1,.54-1.31l5.44-2.27a1,1,0,0,1,1.31.54,1,1,0,0,1-.54,1.3l-5.44,2.28A1.09,1.09,0,0,1,26,44.44Z"/><path class="cls-2" d="M38.06,44.33a1,1,0,0,1-.66-1.75l19-17a1,1,0,0,1,1.41.07L70.9,40.19a1.06,1.06,0,0,1,.25.73,1,1,0,0,1-.33.69L68.19,44a1,1,0,1,1-1.34-1.48l1.89-1.69L57,27.69,38.73,44.07A1,1,0,0,1,38.06,44.33Z"/><path class="cls-2" d="M31,43.69a.93.93,0,0,1-.32,0A1,1,0,0,1,30,42.37l5.72-16.54A1,1,0,0,1,37,25.2L51.9,30a1,1,0,1,1-.61,1.9l-14-4.49L31.91,43A1,1,0,0,1,31,43.69Z"/><path class="cls-1" d="M70.83,74.85H26a1,1,0,0,1-1-1V43.44a1,1,0,0,1,1-1H70.83a1,1,0,0,1,1,1v8.62a1,1,0,0,1-2,0V44.44H27V72.85H69.83V65.33a1,1,0,0,1,2,0v8.52A1,1,0,0,1,70.83,74.85Z"/><path class="cls-1" d="M74,66.13H63.27a7.49,7.49,0,0,1,0-15H74a1,1,0,0,1,1,1v13A1,1,0,0,1,74,66.13Zm-10.73-13a5.49,5.49,0,0,0,0,11H73v-11Z"/><path class="cls-2" d="M63.23,61.81a3.17,3.17,0,1,1,3.17-3.17A3.17,3.17,0,0,1,63.23,61.81Zm0-4.34a1.17,1.17,0,1,0,0,2.34,1.17,1.17,0,1,0,0-2.34Z"/><path class="cls-1" d="M33.32,67.53a1,1,0,0,1-1-1V49.86a1,1,0,0,1,2,0V66.53A1,1,0,0,1,33.32,67.53Z"/></svg>